<?xml version="1.0"?>
<svg xmlns="http://www.w3.org/2000/svg" version="1.2" baseProfile="tiny" width="800" height="968" viewBox="0 0 800 968" stroke-linecap="round" stroke-linejoin="round">
<g id="สมุทรสงคราม">
<path d="M 484.22 667.94 485.17 668.56 485.25 668.69 485.5 668.96 486.32 669.84 486.8 670.51 486.94 671.32 486.91 671.79 486.89 672.03 486.25 673.18 485.98 673.4 484.25 674.84 480.29 677.64 476.87 679.89 469.21 684.41 467.31 685.36 466.82 685.6 466.33 685.78 465.65 686.02 460.37 686.78 457.27 687.23 456 687.22 454.54 687.22 453.47 687.12 452.09 687.35 449.76 689.16 451.86 691.64 454.25 695.11 454.3 695.19 454.56 695.54 454.73 695.85 454.76 696.22 454.75 696.25 454.66 696.55 454.66 696.56 454.44 696.9 452.22 699.02 451.61 699.54 450.8 700.18 446.59 702.74 435.65 708.62 433.52 709.7 433.47 709.73 432.84 710.05 431.68 710.61 428.05 712.35 423.04 714.53 421.22 715.32 420.99 715.42 420.39 715.68 417.37 716.74 415.46 717.2 414.07 717.34 413.82 717.33 412.91 717.3 411.89 717.16 411.1 717.04 406.66 721.01 400.6 724.45 397.31 726.46 381.4 736.19 376.16 738.92 375.68 739.15 372.32 740.76 371.72 740.9 371.51 740.95 371.1 741.04 369.99 741.02 368.9 740.58 368.23 740.21 367.83 739.85 367.77 739.8 367.4 739.15 366.77 738.77 366.65 738.83 362.7 743.3 359.99 746.36 360.01 746.44 360.03 746.59 359.99 746.72 359.94 746.77 359.89 747.49 359.91 747.5 360.09 747.78 360.09 747.98 359.97 748.46 359.59 749.35 359.44 749.48 359.14 750.48 359.2 750.73 359.25 750.95 359.14 752.31 359.03 752.89 358.97 752.99 358.91 753.06 358.77 754.1 358.78 754.13 358.79 754.28 358.35 758.85 358.3 759.36 358.23 760.1 357.94 761.95 357.65 763.62 357.13 765.84 356.53 767.71 354.89 771.86 354.76 772.16 354.68 772.42 354.62 772.6 354.62 772.62 354.3 773.66 354.28 773.98 354.35 774.41 354.34 774.41 352.47 774.62 350.33 775.03 350 775.12 349.72 775.26 347.96 776.16 347.34 776.37 346.84 776.49 346 776.63 345.34 776.68 344.77 776.68 344.22 776.67 343.69 776.6 343.28 776.53 342.71 776.36 340.86 775.64 340.42 775.53 340.06 775.49 339.62 775.5 338.02 775.6 335.14 775.6 334.84 775.57 333.04 775.19 332.5 775.16 332.07 775.16 331.7 775.2 331.29 775.28 328.66 776.19 326.83 776.8 326.32 776.9 325.71 776.96 324.91 777 324 777.03 323.03 777.08 321.06 777.15 320.3 777.24 319.14 777.48 317.43 777.95 315.73 778.46 314.49 778.93 312.33 779.93 309.65 781.16 308.97 781.42 308.77 781.47 306.82 781.82 306.36 781.92 306.03 782.02 305.5 782.26 303.98 783.21 303.72 783.34 303.33 783.5 301.06 784.41 300.84 784.56 300.64 784.69 300.47 784.87 299.88 785.85 299.8 785.99 299.51 786.21 299.28 786.29 298.85 786.37 297.53 786.62 295.94 787.05 295.35 787.26 295.08 787.45 294.8 787.69 294.54 787.97 294.37 788.24 293.83 789.34 293.13 791.05 292.54 793.12 292.25 794.26 291.35 796.41 291.25 796.64 290.9 798.11 290.8 798.35 290.67 798.54 290.53 798.7 289.47 799.41 289.35 799.53 289.26 799.69 289.16 799.88 288.23 802.16 287.97 802.67 286.8 804.27 286.73 804.41 286.66 804.64 286.62 804.85 286.64 805.11 286.99 806.42 287.72 809.09 287.76 809.28 287.75 809.45 287.75 809.63 287.71 809.75 287.5 810.45 287.52 810.64 287.59 810.83 289.51 813.57 289.69 813.94 289.71 814.1 289.71 814.29 289.66 814.46 289.54 814.69 289.36 814.9 289.11 815.08 288.79 815.24 288.4 815.38 287.99 815.45 287.48 815.43 286.24 815.26 286.08 815.28 285.88 815.41 285.75 815.54 285.62 815.73 285.19 816.77 285.04 816.94 284.92 817.02 284.76 817.08 284.54 817.1 282.71 816.9 282.44 816.94 282.26 817.02 282.06 817.15 281.81 817.4 280.98 818.38 279.32 819.52 278.14 820.53 277.7 821.12 277.18 822.11 276.83 822.78 276.62 823.12 276.15 823.41 275.5 823.71 274.79 823.93 274.52 824.08 274.18 824.55 274.06 824.81 273.64 825.29 273.26 825.63 272.3 825.87 271.98 825.88 270.97 825.67 270.46 825.6 270.06 825.67 269.73 825.93 269.39 826.34 269.21 826.42 269.04 826.43 268.89 826.44 268.71 826.41 268.37 826.28 268.23 826.2 268.03 826.19 267.7 826.31 267.1 826.38 266.02 826.37 265.57 826.34 263.57 826.23 262.88 826.34 261.93 826.46 260.27 826.77 255.81 828.03 255.14 828.38 254.6 828.73 254.31 828.9 254.1 828.9 253.84 828.82 253.67 828.69 253.5 828.71 253.25 828.76 250.15 831.85 249.96 832 244.53 825.48 239.48 819.55 234.89 815.18 234.66 815.08 234.46 815.12 234.19 815.27 233.91 815.61 233.77 815.94 233.33 817.38 233.25 817.65 233.17 817.81 233.06 817.96 232.93 818.08 232.75 818.22 232.55 818.35 231.02 819.02 230.79 819.11 230.6 819.2 230.45 819.3 230.33 819.4 230.2 819.53 230.05 819.7 229.73 820.2 228.96 821.36 228.53 821.92 228.33 822.14 228.2 822.25 227.77 822.61 227.64 822.69 227.5 822.75 227.34 822.79 227.15 822.85 225.98 823.09 225.82 823.13 225.67 823.2 225.48 823.28 225.27 823.38 225.14 823.45 225.02 823.52 224.89 823.6 224.46 823.93 223.1 825.07 222.32 825.66 222.21 825.72 222.14 825.76 221.06 826.23 220.96 826.26 220.84 826.28 220.41 826.37 219.66 826.51 219.58 826.52 219.48 826.52 218.64 826.53 218.54 826.53 218.47 826.53 217.74 826.43 217.03 826.36 216.87 826.35 216.76 826.35 216.61 826.36 216.26 826.44 216.2 826.45 216.14 826.48 215.04 826.94 214.36 827.23 214.2 827.27 214.03 827.29 213.91 827.3 213.8 827.31 213.73 827.31 213.47 827.3 213.25 827.3 213.13 827.31 213.02 827.33 212.85 827.39 212.64 827.48 212.49 827.56 212.38 827.65 212.29 827.73 212.19 827.82 211.93 828.13 211.02 829.27 210.77 829.5 210.55 829.66 210.35 829.78 210.14 829.88 209.97 829.94 209.83 829.96 209.72 829.97 209.59 829.96 209.48 829.95 209.35 829.92 209.22 829.88 209.13 829.84 209.01 829.76 208.65 829.42 208.21 828.93 207.9 828.6 207.8 828.52 207.68 828.43 207.56 828.37 207.42 828.3 206.77 828.03 206.63 827.95 206.53 827.87 206.42 827.74 206.32 827.6 206.21 827.38 206.14 827.21 206.08 827 206.05 826.8 206.04 826.64 206.03 826.41 206.03 826.29 206.08 825.46 206.06 825.35 206.03 825.24 205.97 825.13 205.89 825.05 205.78 824.97 205.64 824.89 205.49 824.84 205.38 824.82 205.24 824.81 205.03 824.8 204.89 824.81 204.75 824.84 204.62 824.88 204.5 824.91 204.16 825.06 203.32 825.45 203.29 825.48 203.28 825.51 203.27 825.6 203.25 825.74 203.22 825.8 203.19 825.87 203.13 826 203.09 826.1 203.09 826.13 203.1 826.18 203.12 826.25 203.15 826.32 203.18 826.38 203.26 826.46 203.37 826.56 203.45 826.61 203.5 826.63 203.58 826.64 203.76 826.66 203.8 826.67 203.84 826.69 203.86 826.73 203.94 826.91 203.98 827 203.99 827.03 204.02 827.07 204.2 827.25 204.24 827.3 204.26 827.36 204.26 827.41 204.25 827.46 204.23 827.52 204.12 827.75 204.09 827.88 204.08 827.99 204.09 828.11 204.12 828.2 204.16 828.28 204.22 828.37 204.44 828.61 204.48 828.66 204.49 828.7 204.49 828.74 204.5 829.17 204.49 829.2 204.48 829.24 204.26 829.49 204.25 829.52 204.24 829.57 204.24 829.61 204.25 829.64 204.26 829.67 204.27 829.7 204.32 829.75 204.55 829.95 204.57 830 204.58 830.05 204.57 830.1 204.55 830.15 204.08 830.84 204.04 830.91 204.03 830.97 204.02 831.03 204.01 831.08 204.02 831.48 204.02 831.52 203.94 831.87 203.9 831.93 203.86 831.98 203.81 832.02 203.77 832.04 203.73 832.05 203.67 832.05 203.4 832.01 203.33 831.98 202.95 831.86 202.75 831.79 202.67 831.78 202.58 831.77 202.42 831.77 202.14 831.78 201.93 831.8 201.8 831.83 201.65 831.88 201.41 832 201.33 832.05 201.28 832.08 201.22 832.16 201.11 832.32 201.01 832.45 200.97 832.51 200.95 832.58 200.93 832.68 200.94 833.04 200.93 833.1 200.91 833.15 200.87 833.22 200.8 833.3 200.6 833.47 200.48 833.59 200.34 833.76 200.3 833.84 200.29 833.86 200.29 833.9 200.29 833.95 200.32 834.08 200.4 834.41 200.42 834.47 200.42 834.5 200.43 835.08 200.42 835.11 200.41 835.14 200.4 835.18 200.38 835.22 200.35 835.26 200.19 835.44 200.16 835.49 200.13 835.53 200.09 835.61 200 835.91 199.98 835.97 199.91 836.07 199.66 836.35 199.56 836.43 199.48 836.47 199.44 836.49 199.38 836.5 199.21 836.55 199.06 836.61 198.98 836.63 198.72 836.66 198.51 836.7 198.45 836.72 198.39 836.75 198.36 836.78 198.34 836.81 198.33 836.85 198.33 836.89 198.34 836.93 198.36 836.97 198.5 837.19 198.53 837.25 198.53 837.3 198.53 837.36 198.53 837.41 198.52 837.47 198.5 837.53 198.48 837.58 198.43 837.67 198.29 837.85 198.18 838 198.15 838.05 198 838.4 197.99 838.42 197.97 838.43 197.81 838.53 197.69 838.62 197.62 838.67 197.59 838.7 197.57 838.73 197.56 838.76 197.54 838.82 197.53 838.89 197.51 838.94 197.5 838.97 197.48 839.02 197.2 839.46 196.88 839.88 196.73 840.1 196.34 840.78 196.26 840.89 196.22 840.97 196.17 841.05 196.14 841.12 196.1 841.16 196.02 841.25 195.96 841.33 195.94 841.39 195.92 841.44 195.89 841.84 195.85 842.34 195.86 842.39 195.88 842.43 195.94 842.46 196.08 842.5 197.89 842.74 198.05 842.85 198.15 842.96 198.22 843.11 198.24 843.23 198.14 844.28 198.17 844.56 198.25 844.78 198.44 845.14 199.54 846.74 199.73 847.17 199.75 847.31 199.75 847.47 199.72 847.68 199.63 847.93 199.5 848.17 198.6 849.32 198.28 849.79 198.15 850.09 198.09 850.31 198.09 850.44 198.13 850.6 198.19 850.73 198.31 850.89 198.46 851.03 198.74 851.21 199.06 851.4 200.66 851.95 201.15 852.21 201.74 852.59 202 852.83 202.19 853.17 202.25 853.39 202.26 853.57 202.26 853.77 202.11 854 201.95 854.12 201.64 854.23 201.17 854.37 200.88 854.51 200.69 854.64 200.53 854.77 200.4 854.9 199.7 855.85 199.39 856.24 199.16 856.5 198.85 856.81 198.06 857.36 197.73 857.63 197.5 857.9 197.33 858.16 197.28 858.31 197.24 858.47 197.23 858.65 197.26 858.87 197.4 859.16 198.01 860.55 198.17 861.27 198.2 861.68 198.18 861.85 198.14 861.93 197.85 862.54 197.71 862.82 197.65 863.1 197.66 863.31 197.81 863.86 197.92 864.14 198.06 864.29 198.25 864.4 198.47 864.4 198.82 864.37 199.13 864.28 199.97 863.79 200.28 863.68 200.52 863.62 200.79 863.62 201.13 863.69 201.98 864.03 202.91 864.58 204.57 865.86 204.77 866.19 204.83 866.45 204.82 866.7 204.7 868.64 204.84 870.69 204.85 870.9 204.96 871.15 206.46 873.61 207.32 874.83 207.37 875.11 207.39 875.47 207.35 875.81 207.22 876.1 206.88 876.69 204.87 879.93 204.59 880.39 204.04 881.29 203.81 881.47 203.53 881.54 203.23 881.58 202.89 881.58 202.51 881.67 202.05 881.86 201.69 882.15 201.06 882.92 198.22 888.31 197.73 888.94 196.96 889.51 196.08 889.89 195.27 889.99 194.4 890 193.09 889.73 191.86 889.26 189.21 887.84 184.52 884.69 181.69 882.43 177.27 879.58 175.93 879.11 173.78 878.71 169.56 878.14 166.46 877.95 163.57 878.11 161.48 878.41 160.31 878.74 158.57 879.39 156.51 880.33 153.25 881.9 151.41 882.54 150.39 882.74 149.48 882.79 148.65 882.71 147.75 882.5 146.44 881.9 145.77 883.17 145.65 883.77 145.51 884.55 145.43 885.11 145.26 885.71 145.07 886.15 144.81 886.72 144.22 887.64 143.69 888.41 142.88 889.22 142.54 889.53 142.32 889.65 142.07 889.74 141.86 889.81 141.65 889.84 141.28 889.82 140.84 889.71 140.61 889.65 140.31 889.52 139.38 888.79 136.95 887.1 135.41 886.24 134.8 886.05 134.49 886.01 134.31 886.03 134.15 886.08 133.98 886.18 133.83 886.36 133.76 886.48 133.71 886.64 133.69 886.85 133.86 888.05 133.86 888.26 133.84 888.41 133.75 888.63 133.61 888.75 133.38 888.83 132.66 888.94 131.51 889.11 131.3 889.16 131.03 889.27 130.81 889.4 130.62 889.57 130.14 890.14 129.25 891.35 129.03 891.49 128.75 891.56 128.43 891.59 128.04 891.56 127.66 891.48 127.38 891.33 127.24 891.17 127.13 890.98 126.88 889.54 126.79 889.23 126.69 889.03 126.47 888.85 126.24 888.73 126.06 888.69 125.81 888.67 125.46 888.68 124.84 888.79 123.95 889.01 122.51 889.54 122.27 889.67 122.12 889.79 121.99 890 121.94 890.19 121.9 890.47 121.89 890.69 121.94 890.88 122.05 891.09 123.84 893.44 123.96 893.72 123.98 893.9 123.96 894.14 123.89 894.34 123.79 894.52 123.67 894.61 123.5 894.68 123.32 894.69 123.1 894.64 122.93 894.52 121.88 893.38 121.72 893.28 121.55 893.24 121.37 893.24 121.25 893.31 121.13 893.42 121.06 893.58 121.05 893.78 121.08 894.07 121.36 894.96 121.44 895.41 121.45 895.75 121.43 896.12 121.39 896.36 121.29 896.65 121.04 896.92 119.65 898.13 119.57 898.24 119.55 898.37 119.55 898.51 119.55 898.63 119.59 898.74 119.71 898.86 119.9 898.99 121.19 899.55 121.35 899.65 121.44 899.78 121.49 899.94 121.49 900.16 121.44 900.39 121.35 900.63 121.14 900.82 120.71 901.1 120.1 901.42 119.83 901.53 119.63 901.55 119.44 901.57 119.23 901.56 118.95 901.46 118.69 901.26 118.44 900.84 117.76 899.6 117.62 899.45 117.45 899.38 117.27 899.32 117.07 899.3 116.9 899.31 116.73 899.34 116.54 899.43 116.31 899.55 115.94 899.77 115.74 899.88 115.49 899.95 115.21 899.94 114.81 899.89 114.27 899.82 114.1 899.82 113.9 899.87 113.78 899.93 113.71 900.04 113.68 900.17 113.68 900.33 113.73 900.55 113.89 901 113.94 901.3 113.91 901.53 113.79 901.78 113.61 902 113.31 902.2 112.75 902.5 110.75 903.36 110.3 903.52 110.01 903.6 108.48 903.94 108.22 904.04 108.04 904.13 107.92 904.22 107.83 904.32 107.62 904.56 107.27 905.12 106.96 905.56 106.73 905.85 105.51 907.12 104.26 908.46 104.25 908.55 104.26 908.64 104.29 908.76 104.47 909.26 104.53 909.35 104.6 909.42 104.7 909.5 104.84 909.54 105.12 909.58 105.24 909.64 105.3 909.73 105.4 909.98 105.59 910.52 105.68 910.66 106.04 911.01 106.36 911.32 107.09 912.32 107.68 913.38 107.84 913.59 107.92 913.69 108.75 914.32 108.88 914.46 110.08 916.27 110.3 916.61 110.58 917.31 110.66 917.47 110.75 917.58 111.31 918.06 111.42 918.22 111.47 918.35 111.48 918.48 111.47 918.71 111.45 919.02 111.46 919.15 111.51 919.26 111.61 919.45 111.9 919.99 111.92 920.12 111.91 920.49 111.95 920.61 112.01 920.72 112.13 920.82 112.41 920.98 113.14 921.41 113.33 921.59 113.51 921.83 113.71 922.22 113.88 922.67 113.97 923.29 113.99 923.79 113.96 924.12 113.76 925.05 113.78 925.16 113.81 925.28 113.91 925.45 114.23 925.79 114.92 926.35 115.01 926.48 115.12 926.71 115.55 927.66 115.61 927.88 115.82 928.97 115.86 929.09 115.92 929.19 116.01 929.29 116.15 929.39 116.28 929.43 116.43 929.43 116.57 929.41 117.47 929.25 117.64 929.23 118.25 929.23 118.41 929.26 118.51 929.3 118.92 929.47 119.02 929.5 119.12 929.5 119.22 929.48 119.31 929.45 119.38 929.39 119.41 929.32 119.44 929.19 119.45 929.04 119.44 928.76 119.45 928.69 119.47 928.61 119.51 928.55 119.6 928.48 119.74 928.43 119.88 928.42 120 928.43 120.08 928.47 120.15 928.56 120.47 929.78 120.53 929.84 120.61 929.88 120.68 929.89 120.74 929.87 120.82 929.85 120.91 929.81 121 929.73 121.44 929.31 121.54 929.26 121.67 929.25 121.78 929.26 122.09 929.35 123.13 929.69 123.31 929.73 124.56 929.84 124.72 929.86 124.89 929.97 125.01 930.09 126.2 932.28 126.2 932.36 126.2 932.44 126.19 932.5 126.15 932.59 126.11 932.63 126.05 932.66 125.86 932.69 125.64 932.73 125.51 932.78 124.88 933.13 124.71 933.29 124.66 933.41 124.64 933.53 124.64 933.67 124.66 933.76 124.73 933.89 124.83 933.97 125.01 934.06 125.08 934.12 125.11 934.26 125.11 934.37 125.1 934.49 125.05 934.66 124.99 934.82 124.38 935.42 124.33 935.5 124.33 935.58 124.33 935.66 124.35 935.73 124.41 935.78 124.51 935.79 124.7 935.79 124.95 935.79 125.29 935.81 125.44 935.85 125.55 935.89 125.65 935.97 125.78 936.08 125.93 936.17 126.12 936.24 126.46 936.39 126.95 936.68 127.77 937.38 127.87 937.42 127.96 937.43 128.05 937.42 128.16 937.38 128.31 937.28 129.42 936.46 129.57 936.39 129.67 936.36 129.78 936.37 129.88 936.43 129.93 936.49 129.95 936.56 129.96 936.62 129.94 936.71 129.9 936.82 129.47 937.73 129.46 937.89 129.47 937.99 129.52 938.09 129.62 938.21 129.73 938.28 129.91 938.33 130.44 938.39 130.6 938.41 130.7 938.47 130.78 938.61 131.2 940.27 131.25 940.37 131.33 940.47 131.43 940.52 131.66 940.6 131.91 940.68 133.82 941.21 133.86 941.29 133.87 941.36 133.88 941.43 133.86 941.49 133.81 941.58 133.08 942.02 132.99 942.12 132.94 942.22 132.93 942.3 132.92 942.4 132.95 942.52 133.06 942.67 133.2 942.78 133.44 942.9 133.67 942.95 133.8 942.95 133.9 942.92 134.07 942.82 134.65 942.35 134.85 942.27 135.07 942.22 135.64 942.14 135.73 942.14 135.79 942.17 135.86 942.23 135.92 942.39 136.19 944.05 136.22 944.16 136.27 944.24 136.34 944.33 136.72 944.75 136.78 944.8 136.86 944.83 136.94 944.82 137.01 944.81 137.09 944.79 137.93 944.4 138.07 944.37 138.14 944.36 138.23 944.39 138.31 944.45 138.38 944.58 138.44 944.74 138.46 944.89 138.42 945.03 138.32 945.25 138.1 945.63 138.04 945.68 137.97 945.71 137.41 945.91 137.22 946.03 137.12 946.12 137.05 946.2 137.03 946.27 137.02 946.34 137.04 946.43 137.08 946.53 137.24 946.77 137.4 946.97 137.6 947.16 137.84 947.31 138.07 947.41 138.79 947.59 140.24 948.05 140.36 948.12 140.44 948.21 140.47 948.3 140.49 948.37 140.51 948.83 140.54 948.92 140.58 949.02 140.64 949.12 140.74 949.25 141.01 949.55 141.17 949.75 141.27 949.93 141.52 950.47 141.87 951.61 141.94 951.81 142.06 952 142.16 952.11 142.7 952.63 142.78 952.72 142.83 952.82 142.85 952.93 142.85 953.04 142.83 953.22 142.75 953.58 142.67 953.95 142.61 955.11 142.62 955.2 142.64 955.3 142.73 955.49 142.88 955.75 142.98 955.97 143.22 956.66 143.82 957.56 144 957.76 144.16 957.88 144.29 957.95 144.41 958 144.51 958.02 144.65 958.03 144.74 958.02 144.93 958 145.26 957.93 145.51 957.88 145.58 957.89 145.62 957.92 145.67 957.98 145.7 958.09 145.7 958.27 145.7 958.56 145.64 958.93 145.56 959.18 145.46 959.34 145.28 959.52 145.1 959.68 144.63 960.3 142.44 963.22 142.36 963.26 142.26 963.27 142.12 963.24 141.75 963.1 141.39 963 141.11 962.92 139.82 962.48 139.58 962.45 139.36 962.46 139.13 962.5 138.6 962.65 137.9 962.87 137.44 963.09 137.2 963.22 137.08 963.3 136.97 963.42 136.84 963.59 136.69 963.94 136.32 964.84 136.22 964.94 134.55 966.36 134.3 966.51 134.09 966.57 133.86 966.58 133.64 966.54 133.43 966.49 133.27 966.4 133.09 966.23 131.74 964.73 131.68 964.6 131.65 964.46 131.61 964.2 131.6 963.93 131.61 963.5 131.67 962.77 131.67 962.64 131.63 962.49 131.58 962.36 131.45 962.11 130.84 961.24 130.55 960.79 130.44 960.57 130.39 960.39 130.35 960.21 130.22 959.43 130.17 959.24 130.02 958.96 129.82 958.69 129.57 958.43 129.24 958.15 129.09 958.05 128.87 957.96 127.61 957.43 127.44 957.39 127.07 957.35 126.44 957.34 126.26 957.36 126.13 957.4 125.98 957.45 125.68 957.59 125.53 957.64 125.44 957.66 125.36 957.66 125.22 957.64 125.08 957.6 124.84 957.48 124.61 957.34 124.45 957.24 124.31 957.13 124.17 956.98 123.71 956.49 123.56 956.37 123.39 956.26 123.24 956.18 123.05 956.09 122.89 956.01 122.76 955.93 121.23 954.63 120.84 954.37 119.92 953.79 119.8 953.71 119.16 953.1 119.02 953.01 118.79 952.91 118.45 952.79 118.26 952.73 118.05 952.71 117.56 952.66 117.06 952.65 116.94 952.64 116.85 952.62 116.74 952.57 116.35 952.38 116.15 952.33 115.56 952.2 114.41 951.9 113.76 951.71 113.61 951.68 113.14 951.62 112.89 951.57 112.75 951.53 112.63 951.48 112.5 951.38 112.4 951.26 112.26 951.02 112.17 950.88 112.13 950.82 112.07 950.76 112.06 950.75 111.96 950.68 111.84 950.61 111.06 950.23 110.56 949.99 110.41 949.94 110.25 949.89 110.07 949.85 109.78 949.81 109.38 949.73 109.18 949.68 108.95 949.62 108.72 949.51 108.57 949.39 108.48 949.28 108.39 949.1 108.34 948.94 108.3 948.83 108.27 948.46 108.28 948.36 108.31 948.11 108.41 947.75 108.48 947.55 108.69 947.15 108.73 947.06 108.76 946.86 108.76 946.62 108.75 946.45 108.72 946.19 108.63 945.94 108.51 945.75 108.39 945.59 108.26 945.46 108.12 945.35 107.82 945.15 107.74 945.1 107.61 944.97 107.51 944.86 107.36 944.66 107.2 944.37 107.05 944.05 106.41 942.83 106.32 942.74 106.2 942.68 106.08 942.63 105.87 942.58 105.74 942.57 105.56 942.59 105.27 942.65 105.02 942.76 103.51 943.64 102.41 944.21 102.25 944.26 102.11 944.29 101.96 944.3 101.85 944.3 101.75 944.29 101.63 944.27 101.48 944.22 101.08 944.1 100.33 943.84 100.15 943.76 100.04 943.66 99.96 943.58 99.9 943.46 99.87 943.29 99.86 943.09 99.89 942.82 99.93 942.64 100.01 942.5 100.11 942.4 100.28 942.32 100.94 942.01 101.11 941.89 101.22 941.79 101.3 941.7 101.35 941.57 101.44 941.15 101.5 940.55 101.5 940.23 101.48 939.91 101.42 939.79 101.35 939.7 101.21 939.62 101.08 939.58 100.95 939.58 100.82 939.57 100.67 939.63 100.08 940.15 99.82 940.31 99.61 940.41 99.36 940.48 99.18 940.51 98.83 940.51 98.5 940.54 98.36 940.55 98.16 940.61 98.02 940.68 97.73 940.86 96.92 941.59 96.82 941.66 96.72 941.69 96.53 941.72 96.31 941.73 96.19 941.71 96.07 941.68 95.97 941.64 95.8 941.53 94.6 940.42 93.33 939.09 93.13 938.98 92.96 938.93 92.84 938.94 92.71 938.98 92.42 939.14 91.89 939.34 91.74 939.38 91.2 939.46 91.06 939.47 90.93 939.46 90.81 939.42 90.68 939.36 90.55 939.27 90.44 939.17 90.23 938.95 90.05 938.68 89.97 938.48 89.93 938.34 89.93 938.14 89.94 938.01 90 937.92 90.13 937.83 90.24 937.77 91.12 937.34 91.54 937.08 92.08 936.56 92.32 936.31 92.52 936 92.64 935.79 92.71 935.61 92.72 935.52 92.74 935.37 92.74 935.26 92.72 935.14 92.69 935.06 92.57 934.98 92.46 934.94 92.33 934.92 92.14 934.9 91.92 934.9 91.72 934.93 91.14 935.01 90.92 935 90.68 935 90.51 934.99 90.35 934.94 90.21 934.89 89.95 934.68 89.82 934.53 89.74 934.44 89.7 934.35 89.67 934.19 89.67 934.11 89.19 934.02 88.97 934.06 88.84 934.12 88.69 934.27 87.97 935.41 86.85 936.94 86.73 937.06 86.52 937.2 86.38 937.26 86.08 937.3 84.83 937.43 83.71 937.53 83.53 937.53 83.35 937.52 83.04 937.47 82.85 937.44 82.72 937.41 82.53 937.33 82.37 937.24 82.25 937.15 82.17 937.05 82.03 936.8 81.79 936.18 81.67 935.98 81.56 935.85 81.45 935.78 81.35 935.76 81.25 935.77 81.17 935.77 80.99 935.82 80.14 936.12 79.42 936.24 78.95 936.27 78.55 936.28 78.41 936.28 78.24 936.24 77.98 936.19 77 935.86 76.59 935.78 76.34 935.77 75.83 935.78 75.52 935.82 75.19 935.93 74.96 936.03 74.73 936.12 74.52 936.16 74.22 936.21 73.85 936.29 73.32 936.44 71.95 937.03 71.6 937.15 71.36 937.21 71.16 937.22 70.89 937.23 70.01 937.24 69.69 937.27 69.33 937.34 69.06 937.45 68.77 937.56 68.17 937.92 67.68 938.26 67.14 938.51 66.82 938.62 66.42 938.7 65.91 938.77 65.69 938.82 65.52 938.88 65.34 938.95 65.23 939.02 65.05 939.18 65 939.29 64.97 939.42 64.98 939.58 65.02 939.71 65.1 939.89 65.36 940.39 65.41 940.58 65.42 940.92 65.41 941.06 65.37 941.27 65.28 941.41 65.2 941.48 65.08 941.55 64.63 941.68 64.32 941.77 64.04 941.87 63.77 942 62.41 942.84 60.62 944.01 60.21 944.23 60 944.3 59.71 944.36 59.54 944.39 59.37 944.4 59.21 944.39 59.04 944.38 58.73 944.33 58.52 944.27 58.45 944.24 58.37 944.17 58.28 944.07 58.05 943.67 57.94 943.5 57.82 943.38 57.69 943.3 57.54 943.22 57.26 943.11 56.35 942.9 54.55 942.52 53.44 942.29 51.99 941.94 51.06 941.72 50.88 941.69 50.69 941.68 49.81 941.62 49.1 941.56 49.04 941.57 48.96 941.57 48.9 941.6 48.85 941.62 48.83 941.66 48.8 941.71 48.79 941.77 48.81 941.96 49.14 943.77 49.29 944.59 49.65 946.44 50.12 947.82 50.3 948.57 50.83 950.92 51.17 952.41 47.15 951.34 45.92 951.03 45.52 950.95 45.07 950.91 43 950.86 42.79 950.87 42.6 950.93 42.47 951.02 42.3 951.15 42.22 951.28 41.39 953.42 41.31 953.56 41.26 953.62 41.03 953.79 40.84 953.9 40.68 953.97 40.41 954.05 38.5 954.38 38.44 954.4 38.37 954.43 38.33 954.46 38.28 954.51 38.19 954.62 37.67 955.5 37.6 955.56 37.55 955.59 37.49 955.62 37.35 955.66 37.08 955.7 35.15 956.03 32.57 956.54 29.72 957.56 16.36 853.77 5.67 770.18 4.62 762.15 4.26 759.61 4.17 758.99 3.88 756.78 3.4 753.1 3.13 751.01 2.71 747.78 2.33 744.81 1.75 740.28 1.24 736.44 1 734.54 1 734.52 1.01 734.5 1.02 734.48 1.03 734.48 1.04 734.47 1.23 734.44 1.44 734.4 1.67 734.35 1.77 734.32 1.83 734.29 1.9 734.22 1.96 734.15 2.01 734.08 2.05 733.98 2.11 733.81 2.03 732.38 2.06 731.86 2.12 731.26 2.27 730.58 3.11 728.59 3.65 727.78 5.35 725.85 5.56 725.49 5.71 725.01 5.78 724.29 5.99 721.08 5.95 718.57 5.95 717.92 6.14 716.76 6.26 716.14 6.3 715.7 5.9 714.08 5.83 713.65 5.78 713.18 5.8 712.76 6.11 711.06 6.81 708.38 7.46 705.9 7.72 705.27 7.86 704.94 7.92 704.69 7.95 704.52 7.95 704.41 7.93 704.28 7.9 704.19 7.42 703.55 7.21 703.18 7.14 703 7.1 702.81 7.1 702.59 7.14 702.29 7.92 700.62 8.04 700.29 8.14 699.94 8.14 698.16 8.21 697.53 8.28 697.23 8.42 696.77 8.74 696.04 9.12 695.18 9.28 694.54 9.37 693.92 9.4 693.18 9.4 692.66 9.4 692.58 9 690.36 8.98 690.11 9.02 689.82 9.15 689.45 9.33 689.03 9.44 688.9 9.59 688.73 10.01 688.43 10.19 688.28 10.41 687.97 10.78 687.31 10.91 686.88 10.94 686.35 10.72 684.28 10.22 680.2 10.17 679.77 9.82 677.53 9.77 676.79 9.78 676.1 9.84 675.28 10.13 673.8 10.36 671.19 10.5 670.58 10.62 670.24 10.94 669.79 11.23 669.5 12.6 668.29 14.35 666.76 14.62 666.35 14.84 665.62 14.97 664.93 15.06 663.9 15.06 663.26 14.93 662.02 14.74 661.13 14.37 659.75 15.92 659.36 16.17 659.29 16.33 659.22 16.44 659.14 16.58 659.01 16.65 658.95 16.73 658.89 16.8 658.84 16.88 658.79 17.09 658.66 17.3 658.53 17.46 658.42 17.5 658.39 17.73 658.22 17.9 658.06 18.02 657.89 18.07 657.75 18.09 657.6 18.08 657.41 18.03 657.22 17.97 657.02 17.91 656.89 17.88 656.8 17.82 656.71 17.71 656.51 17.61 656.32 17.54 656.16 17.52 656 17.53 655.8 17.57 655.58 17.66 655.23 17.71 655.04 17.78 654.81 17.84 654.51 17.89 654.22 17.91 653.93 17.92 653.63 17.91 653.31 17.87 652.9 17.83 652.7 17.79 652.45 17.76 652.23 17.75 652.18 17.74 651.99 17.73 650.73 17.74 650.22 17.76 649.99 17.83 649.71 17.92 649.45 18.06 649.18 18.19 648.99 18.32 648.82 18.5 648.59 18.75 648.28 18.88 648.1 19.14 647.73 19.31 647.46 19.44 647.21 19.54 647 19.66 646.68 19.75 646.38 19.79 646.16 19.8 646.12 19.83 645.89 19.88 645.5 19.94 645 19.98 644.67 20.03 644.34 20.1 643.98 20.17 643.74 20.27 643.51 20.81 642.44 20.86 642.34 21.13 641.82 21.14 641.8 21.31 641.55 21.48 641.37 21.65 641.21 21.84 641.06 22.06 640.88 22.08 640.86 22.27 640.71 22.6 640.44 22.9 640.19 23.13 640 23.24 639.83 23.25 639.83 23.36 639.64 23.42 639.44 23.44 639.36 23.46 639.24 23.48 639.08 23.48 638.96 23.49 638.56 23.49 637.73 23.5 637.36 23.54 636.98 23.58 636.73 23.64 636.58 23.71 636.43 23.8 636.3 23.89 636.21 23.99 636.14 24.11 636.06 24.28 635.96 24.38 635.87 24.44 635.78 24.48 635.65 24.51 635.49 24.65 634.55 24.67 634.38 24.72 634.25 24.79 634.12 24.79 634.11 24.89 633.9 24.93 633.82 24.95 633.77 25.02 633.5 25.03 633.49 25.07 633.22 25.11 632.99 25.13 632.8 25.17 632.42 25.21 632.16 25.28 631.84 25.34 631.56 25.43 631.19 25.53 630.9 26.02 629.67 26.1 629.45 26.38 628.78 26.69 628.16 26.87 627.8 27.03 627.48 27.18 627.21 27.31 627.02 27.4 626.9 27.54 626.76 27.75 626.54 27.93 626.39 28.11 626.24 28.26 626.18 28.27 626.18 28.43 626.1 28.61 626.02 28.71 625.94 28.82 625.8 28.88 625.6 28.93 625.36 28.94 625.26 28.94 625.2 28.87 624.9 28.31 623.4 28.18 623.06 28.06 622.8 27.5 621.69 27.48 621.65 27.38 621.49 27.26 621.33 27.11 621.19 26.96 621.1 26.93 621.09 26.59 620.88 26.3 620.69 26.01 620.48 25.81 620.31 25.43 619.9 25.29 619.74 25.07 619.47 24.85 619.2 24.7 618.96 24.6 618.76 24.54 618.59 24.51 618.44 24.53 618.19 24.56 618.01 24.66 617.77 24.76 617.6 24.88 617.45 25.09 617.23 25.27 617.07 25.47 616.91 25.69 616.76 25.97 616.58 26.17 616.46 26.28 616.41 26.39 616.35 26.68 616.23 26.69 616.22 27.01 616.08 27.24 615.95 27.46 615.8 27.61 615.62 27.73 615.43 27.88 615.14 27.97 614.97 28.06 614.74 28.07 614.72 28.22 614.28 28.31 613.95 28.39 613.58 28.4 613.49 28.44 613.11 28.45 612.72 28.43 612.28 28.4 611.91 28.38 611.69 28.36 611.55 28.29 611.24 28.23 611 28.15 610.74 28.05 610.52 27.94 610.26 27.87 610.08 27.85 610.01 27.8 609.73 27.75 609.41 27.74 609.08 27.75 608.81 27.79 608.47 27.85 608.2 27.93 607.95 28.03 607.67 28.16 607.34 28.24 607.16 28.31 606.99 28.72 606.12 29 605.47 29.05 605.35 29.12 605.12 29.19 604.82 29.21 604.58 29.21 604.49 29.25 603.22 29.28 602.77 29.29 602.3 29.29 601.93 29.33 601.56 29.38 601.14 29.72 599.1 29.78 598.77 29.93 597.98 30.02 597.46 30.15 596.89 30.23 596.55 30.5 595.65 30.78 594.57 31.6 591.43 31.87 590.28 31.98 589.78 32.09 589.25 32.16 588.96 32.31 588.41 32.58 587.53 32.76 586.88 32.84 586.6 33.11 585.74 33.17 585.54 33.24 585.33 33.3 585.08 33.45 584.43 33.62 583.73 33.72 583.4 33.84 583.03 34.25 581.89 34.43 581.41 34.6 580.98 34.92 580.06 35.17 579.31 35.35 578.72 35.61 577.95 35.71 577.59 35.84 577.2 35.94 576.86 36.02 576.55 36.15 576 36.26 575.56 36.38 575.18 36.5 574.8 36.63 574.44 36.76 574.05 36.93 573.63 37.44 572.25 37.76 571.33 37.93 570.83 38.08 570.39 38.24 569.88 38.34 569.51 38.4 569.26 38.91 567.32 39.46 564.88 39.5 564.72 39.61 564.3 39.68 563.94 39.75 563.62 39.8 563.43 39.82 563.3 39.88 563.01 39.97 562.51 40.04 562.23 40.14 561.78 40.28 561.2 40.38 560.8 40.45 560.56 40.73 559.79 40.87 559.42 41.02 559.08 41.15 558.85 41.43 558.33 42.37 556.61 42.42 556.52 42.46 556.46 42.52 556.31 43.08 554.9 43.11 554.8 43.16 554.65 43.16 554.6 43.19 554.46 43.19 554.41 43.22 554.11 43.24 553.88 43.27 553.71 43.61 552.2 43.77 551.54 43.9 551.09 44.06 550.58 44.21 550.15 44.32 549.76 44.4 549.4 44.45 549.15 44.51 548.79 44.8 546.74 44.86 546.38 44.89 546.17 44.95 545.99 45.3 545.03 46.47 541.73 46.51 541.59 46.52 541.57 46.6 541.31 47.02 539.46 47.12 539 47.47 537.5 47.61 536.88 47.69 536.52 47.75 536.27 47.81 536.06 48.11 535.28 48.6 533.78 49.06 532.38 49.19 531.96 49.27 531.71 49.32 531.51 49.34 531.35 49.36 531.19 49.37 531.01 49.56 529.23 49.66 528.39 49.67 528.17 49.68 527.99 49.7 527.83 49.74 527.65 50.21 525.56 50.39 524.76 50.47 524.31 50.52 524.04 50.56 523.8 50.84 520.86 50.95 519.81 51 519.34 51.13 518.22 51.18 517.95 51.23 517.77 51.29 517.6 51.4 517.33 51.54 517.05 51.59 516.92 51.6 516.9 51.73 516.59 52.08 515.42 52.27 514.8 52.42 514.26 52.47 514.1 52.55 513.77 52.66 513.31 52.74 512.87 52.8 512.54 52.84 512.27 52.85 512 52.85 511.72 52.85 511.51 52.84 511.32 52.83 511.06 52.83 510.82 52.83 510.78 52.83 510.61 52.85 510.42 52.91 510.21 53.06 509.62 53.2 509.02 53.39 508.22 53.47 507.83 53.61 507.16 53.73 506.46 53.79 506.19 53.81 506.01 53.93 504.71 53.96 504.29 54.03 503.54 54.09 502.88 54.12 502.59 54.19 502.06 54.26 501.7 54.32 501.48 54.4 501.22 54.55 500.78 54.7 500.33 54.92 499.75 54.98 499.61 55.16 499.18 55.32 498.73 55.51 498.24 55.61 497.97 55.72 497.69 55.87 497.32 56.08 496.88 56.69 495.5 56.88 494.89 56.91 494.78 56.99 494.41 57.01 494.27 57.04 493.97 57.32 492.18 58.02 488.42 58.45 486.27 59.02 483.79 59.25 483.1 59.71 482 60.03 481.18 60.21 480.54 60.52 478.97 60.53 478.92 60.61 478.54 60.77 477.81 60.88 477.36 61.21 476.26 61.72 474.43 62.05 473.34 62.74 471.16 62.92 470.66 63.46 469.39 64.47 467.23 65.02 465.94 65.94 463.66 66.4 462.58 67.74 459.78 68.13 459.07 68.48 458.49 69.13 457.58 69.34 457.27 69.49 457.06 69.8 456.63 69.85 456.56 69.89 456.5 69.94 456.46 69.97 456.43 70.02 456.39 70.09 456.34 70.17 456.29 70.2 456.27 70.26 456.23 70.35 456.16 70.38 456.13 70.41 456.11 70.45 456.07 70.51 456 70.53 455.98 70.53 455.97 70.56 455.93 70.58 455.89 70.6 455.84 70.62 455.77 70.67 455.56 70.68 455.44 70.69 455.34 70.69 455.28 70.71 455.22 70.73 455.15 70.85 454.88 71.11 454.25 71.56 453.38 72.04 452.63 72.39 452.08 72.91 450.9 73.19 450.22 73.35 449.76 73.4 449.64 73.69 448.92 73.92 448.02 74.06 447.58 74.26 446.98 74.32 446.73 74.41 446.26 74.47 445.8 74.56 445.29 74.58 445.21 74.87 444.58 75.8 442.81 76.25 441.84 76.49 441.36 76.5 441.35 76.76 440.76 76.96 440.09 77.1 439.61 77.3 439.06 77.79 437.92 77.93 437.62 78.08 437.29 78.26 436.91 78.61 436.25 79.06 435.36 79.33 434.92 79.53 434.64 80.06 433.81 80.33 433.4 80.38 433.28 80.47 433.05 80.55 432.7 80.84 431.19 80.93 430.55 81 429.81 81.05 429.45 81.14 428.99 81.66 427.36 81.93 426.61 82.09 426.25 82.53 425.39 83.91 422.82 84.06 422.56 84.97 421.18 85.21 420.77 85.31 420.58 85.45 420.2 85.47 420.15 85.53 419.88 86.1 417.19 86.23 416.73 86.32 416.49 86.47 416.15 86.73 415.63 87.18 414.82 87.63 414.19 87.85 413.84 87.87 413.81 87.93 413.68 87.97 413.58 88 413.46 88.02 413.36 88.03 413.25 88.02 413.12 88.01 413.09 87.99 412.79 87.98 412.7 87.96 412.48 87.96 412.43 87.95 412.01 87.95 411.87 87.96 411.65 87.97 411.56 87.97 411.55 87.97 411.49 87.99 411.41 88.01 411.33 88.05 411.21 88.11 411.11 88.14 411.07 88.19 411.02 88.24 410.97 88.27 410.96 88.29 410.95 88.4 410.9 88.53 410.85 88.63 410.8 88.71 410.74 88.86 410.61 88.89 410.57 89.03 410.39 89.14 410.22 89.18 410.13 89.22 410.01 89.26 409.87 89.27 409.81 89.26 409.7 89.24 409.63 89.18 409.42 89.14 409.32 89.1 409.19 89.08 409.1 89.08 408.91 89.1 408.73 89.14 408.61 89.17 408.5 89.26 408.33 89.35 408.18 89.47 408.01 89.67 407.81 90.01 407.54 90.02 407.53 90.16 407.38 90.29 407.21 90.55 406.73 90.71 406.3 90.93 405.55 90.96 405.46 91.13 405.02 91.37 404.6 91.68 404.12 91.92 403.81 91.93 403.8 91.93 403.79 91.96 403.75 92.02 403.66 92.06 403.6 92.1 403.52 92.14 403.41 92.15 403.34 92.15 403.21 92.12 403.1 92.07 402.99 92.05 402.95 92.01 402.89 91.97 402.84 91.87 402.75 91.75 402.67 91.67 402.62 91.49 402.52 91.46 402.5 91.42 402.47 91.37 402.4 91.35 402.36 91.33 402.3 91.32 402.19 91.35 402.04 91.41 401.88 91.47 401.75 91.57 401.59 91.67 401.45 91.79 401.33 91.97 401.18 92 401.16 92.23 400.96 92.34 400.87 92.38 400.84 92.42 400.79 92.48 400.72 92.52 400.66 92.6 400.51 92.73 400.23 92.8 400.01 92.86 399.7 92.89 399.44 92.98 398.9 93 398.69 93.02 398.31 92.99 398.01 92.84 397.29 92.83 397.15 92.83 396.96 92.84 396.87 92.86 396.77 92.89 396.68 93.16 396.04 93.18 395.99 93.33 395.68 93.44 395.46 93.66 395.09 93.77 394.93 93.82 394.86 93.94 394.78 93.95 394.76 94.04 394.72 94.15 394.67 94.26 394.63 94.44 394.6 94.76 394.51 94.81 394.5 94.91 394.46 94.96 394.42 95 394.37 95.06 394.25 95.12 394.09 95.13 394.05 95.24 393.69 95.33 393.31 95.37 393.03 95.41 392.75 95.45 392.52 95.6 391.99 95.71 391.65 95.74 391.6 96.65 389.78 96.74 389.65 97.24 388.92 97.49 388.53 97.72 388.14 98.4 386.86 98.49 386.68 98.63 386.33 98.77 385.93 98.92 385.4 99.01 384.96 99.05 384.77 99.07 384.64 99.09 384.49 99.13 384.28 99.17 384 99.19 383.88 99.24 383.7 99.25 383.66 99.29 383.54 99.34 383.44 99.39 383.34 99.65 382.96 100.32 381.88 100.89 380.93 101.17 380.39 101.54 379.61 101.98 378.4 102.27 377.69 103.42 375.09 103.77 374.34 104.07 373.74 104.11 373.64 104.11 373.63 104.15 373.49 104.17 373.33 104.17 373.21 104.17 373.09 104.16 372.97 104.14 372.88 104.12 372.8 104.08 372.67 104.03 372.57 104.01 372.53 103.95 372.41 103.91 372.36 103.84 372.24 103.65 371.94 103.55 371.78 103.48 371.66 103.48 371.64 103.46 371.59 103.45 371.48 103.45 371.4 103.46 371.29 103.49 371.15 103.55 371 103.57 370.94 103.59 370.9 103.64 370.84 104.32 370.21 104.65 369.9 104.72 369.82 104.77 369.75 104.8 369.69 104.82 369.63 104.82 369.6 104.82 369.52 104.81 369.43 104.8 369.39 104.77 369.27 104.76 369.25 104.71 369.03 104.69 368.91 104.68 368.81 104.66 368.67 104.67 368.55 104.69 368.44 104.73 368.32 104.78 368.23 104.8 368.2 104.84 368.14 104.91 368.09 104.94 368.07 105.03 368.02 105.21 367.93 105.25 367.92 105.38 367.87 105.5 367.82 105.55 367.79 105.65 367.73 105.7 367.7 105.78 367.62 105.85 367.54 105.87 367.51 105.92 367.4 105.99 367.24 106.05 367.09 106.12 366.95 106.49 366 107.05 364.46 107.21 364.08 107.67 362.84 108.04 361.87 108.17 361.55 108.52 360.74 108.6 360.58 108.64 360.51 108.73 360.36 108.81 360.25 108.89 360.16 109 360.09 109.16 360.02 109.28 359.96 109.39 359.91 109.51 359.83 109.61 359.76 109.73 359.64 109.79 359.56 109.82 359.53 109.91 359.4 109.98 359.26 110.03 359.14 110.09 358.99 110.16 358.71 110.57 357.33 111.67 353.95 112.02 353.08 112.54 351.97 113.06 350.62 113.14 350.44 113.52 349.74 113.9 349.26 114.62 348.33 114.77 348.1 115.27 347.22 115.93 345.73 116.05 345.43 116.19 344.92 116.31 344.34 116.38 343.6 116.45 342.39 116.48 342.26 116.53 342.13 116.63 341.98 117.22 341.5 117.66 341.17 118.2 340.77 118.31 340.6 118.41 340.42 118.41 340.4 118.48 340.24 118.53 340.05 118.54 339.81 118.53 339.38 118.46 338.31 118.47 338.03 118.52 337.77 118.58 337.56 118.66 337.39 118.74 337.26 119.15 336.82 119.21 336.75 119.48 336.5 119.82 336.11 120.05 335.8 120.64 334.77 121.66 332.64 121.9 332.13 122.12 331.62 122.62 330.53 122.77 330.14 123.3 328.88 123.54 328.31 123.7 327.95 124.31 326.77 125.58 324.61 126.37 323.07 126.87 322.17 127.32 321.38 127.42 321.25 127.47 321.17 127.53 321.03 127.56 320.87 127.56 320.69 127.54 320.47 127.54 320.28 127.56 320.14 127.66 319.86 127.76 319.68 127.97 319.25 128.12 319.02 128.26 318.84 128.65 318.51 128.88 318.34 129.13 318.15 129.25 318.01 129.36 317.84 130.09 316.27 130.37 315.75 130.43 315.67 130.63 315.37 130.84 315.12 131.04 314.86 131.1 314.76 131.14 314.6 131.17 314.39 131.13 313.53 131.19 312.86 131.22 312.69 131.27 312.52 131.47 312.2 131.6 312.05 132.93 310.79 133.12 310.61 133.23 310.48 133.34 310.31 133.53 309.97 133.75 309.53 134.34 308.47 134.64 307.97 135.28 306.85 135.55 306.22 135.67 305.83 135.7 305.67 135.71 305.39 135.68 305.18 135.6 304.98 135.57 304.92 135.5 304.86 135.44 304.82 135.37 304.79 135.2 304.75 134.86 304.69 134.68 304.64 134.52 304.59 134.39 304.53 134.35 304.49 134.35 304.48 134.3 304.41 134.25 304.27 134.24 304.05 134.28 303.89 134.37 303.71 134.38 303.69 134.5 303.49 134.69 303.28 135.07 302.72 135.34 302.25 135.52 301.74 135.91 300.28 136.01 299.95 136.05 299.81 136.19 299.58 136.3 299.44 136.36 299.37 136.51 299.29 136.74 299.18 136.98 299.11 137.33 299.07 137.48 299.03 137.67 298.97 137.85 298.85 138.18 298.42 138.48 297.83 138.63 297.51 138.94 296.75 139.08 296.33 139.14 295.86 139.09 294.9 139.07 294.78 138.9 293.51 138.78 292.43 138.74 292.24 138.6 291.77 138.37 291.2 138.31 290.96 138.27 290.65 138.21 290.05 138.22 289.68 138.33 288.81 138.39 288.56 138.63 287.77 138.82 287.28 138.88 287.14 139.13 286.67 139.35 286.24 139.6 285.87 140.08 285.29 140.34 285.01 140.63 284.8 140.81 284.6 140.87 284.47 140.94 284.26 140.95 283.9 140.91 283.44 140.78 282.71 140.75 282.33 140.74 281.9 140.71 281.14 140.71 280.75 140.72 280.41 140.75 279.48 140.71 279.04 140.65 278.67 140.63 278.6 140.37 277.95 140.12 277.48 139.81 277.08 139.71 276.99 139.59 276.92 139.42 276.87 139.3 276.85 138.83 276.86 138.66 276.83 138.42 276.72 138.29 276.56 138.25 276.47 138.22 276.37 138.21 276.19 138.31 275.67 138.43 274.75 138.29 274.23 138.18 273.89 138.17 273.86 138.05 273.15 137.99 272.28 137.99 271.68 138.02 271.54 138.09 271.09 138.23 269.79 138.37 269.1 138.7 268.08 138.72 268.01 138.89 267.5 139.31 266.19 139.45 265.48 139.64 264.17 139.66 263.67 139.63 263.38 139.53 263.01 139.33 262.46 139.17 262.01 138.98 261.77 138.78 261.65 138.2 261.4 136.88 260.97 136.57 260.87 136.36 260.78 136.25 260.67 136.2 260.5 136.16 260.25 136.14 259.82 136.14 259.68 136.2 257.12 136.57 254.29 136.59 254.17 136.71 253.79 136.82 253.55 137.44 252.6 137.66 252.33 137.69 252.29 138.29 251.61 138.57 251.27 138.73 250.9 138.86 250.34 138.93 249.63 138.93 249.26 138.92 249.2 138.77 248.19 138.57 247.77 138.42 247.53 138.21 247.28 137.87 247.03 137.73 246.95 136.6 246.32 136.47 246.21 136.34 246.1 136.23 245.9 136.18 245.61 136.18 245.36 136.23 244.98 136.33 244.7 136.42 244.48 136.47 244.4 136.7 244.04 136.84 243.81 136.87 243.7 136.9 243.57 136.93 243.46 136.98 243.07 137.04 242.65 137.04 242.6 137 242.36 136.94 242.22 136.84 242.08 136.8 242.02 136.6 241.74 135.62 240.49 135.57 240.37 135.53 240.26 135.51 240.1 135.5 240.04 135.5 239.87 135.52 239.72 135.53 239.7 135.62 239.55 135.64 239.5 136 238.97 137.11 237.62 137.5 237.14 134.14 233.61 131.73 230.73 129.99 228.5 128.51 226.06 127.07 223.37 126.47 222.04 126.06 220.72 125.79 219.5 125.62 218.23 125.57 215.31 125.6 214.35 125.64 213.38 125.77 212.35 125.89 211.88 125.99 211.46 126.45 210.09 127.02 208.8 127.95 207.21 129.45 204.66 131.11 201.44 133.07 197.65 134.2 195.22 134.29 195 134.32 194.93 135.66 191.78 136.68 189.48 137.12 188.27 137.75 185.99 138.08 184.72 138.43 183.52 138.59 182.4 138.64 180.88 138.62 179.84 138.45 178.42 138.42 178.28 137.6 174.35 137.57 174.18 137.12 172.41 135.83 169.36 134.77 167.13 133.77 165.66 132.5 164.48 132.33 164.33 131.32 163.56 131.76 162.94 131.95 162.67 132.03 162.6 132.36 162.31 132.59 162.16 133.42 161.62 134.08 161.12 134.22 161.02 134.63 160.84 135.12 160.67 135.33 160.62 135.48 160.58 137.06 160.33 137.19 160.28 137.98 159.98 138.5 159.66 138.75 159.45 138.98 159.21 139.2 158.91 139.32 158.62 139.35 158.45 139.41 157.75 139.48 156.37 139.52 155.93 139.55 155.77 139.69 155.33 139.81 155.14 140.08 154.86 140.26 154.73 140.44 154.65 140.81 154.54 141.27 154.49 141.68 154.42 142.04 154.32 142.3 154.23 143 153.89 143.45 153.62 143.67 153.42 143.77 153.27 143.81 153.15 143.84 152.89 143.84 151.9 143.82 151.5 143.84 151.38 143.89 151.31 143.92 151.27 143.97 151.25 144.05 151.25 144.15 151.26 144.45 151.41 144.7 151.53 144.93 151.6 145.17 151.65 145.42 151.66 145.63 151.64 145.83 151.61 146 151.56 146.1 151.51 146.17 151.44 146.22 151.3 146.23 151.08 146.22 150.87 146.15 150.49 146.15 150.47 146.14 150.32 146.15 150.24 146.17 150.13 146.2 150.04 146.61 149.56 146.8 149.27 147.04 148.8 147.16 148.65 147.26 148.58 147.36 148.54 147.48 148.51 147.67 148.52 147.9 148.55 148.11 148.61 148.23 148.64 148.49 148.71 148.72 148.79 148.81 148.81 148.88 148.82 148.97 148.81 149.29 148.65 149.69 148.49 149.76 148.44 149.81 148.4 149.87 148.28 149.93 148.12 150.1 147.67 150.13 147.62 150.16 147.59 150.19 147.58 150.23 147.57 150.28 147.58 150.71 147.76 150.9 147.82 151.13 147.91 151.26 147.93 151.36 147.94 151.48 147.93 151.63 147.87 151.85 147.74 151.94 147.66 152.16 147.44 152.23 147.35 152.34 147.28 152.45 147.22 152.56 147.18 152.77 147.14 152.89 147.13 153.08 147.11 153.23 147.1 153.38 147.06 153.52 146.99 153.61 146.92 153.7 146.8 153.88 146.39 154.04 146.03 154.1 145.91 154.23 145.74 154.33 145.62 154.53 145.44 154.76 145.31 154.86 145.25 154.93 145.19 154.96 145.14 154.99 145.06 154.99 144.91 154.93 144.12 154.92 143.5 154.93 143.34 154.94 143.17 154.95 143.12 154.95 143.08 154.99 142.95 155.11 142.54 155.22 141.98 155.37 141.11 155.37 141.1 155.41 140.94 155.47 140.8 155.61 140.57 155.64 140.47 155.65 140.36 155.69 139.87 155.7 139.75 155.72 139.67 155.82 139.41 155.87 139.31 156.13 138.81 156.18 138.59 156.21 138.43 156.21 138.24 156.19 138.12 156.13 137.99 156 137.8 155.66 137.43 155.57 137.31 155.51 137.2 155.48 137.12 155.43 136.88 155.41 136.74 155.29 135.99 155.17 135.53 154.88 134.88 154.79 134.67 154.77 134.57 154.71 134.29 154.6 133.54 154.49 132.89 154.45 132.24 154.42 131.18 154.41 130.97 154.34 130.75 154.04 129.94 153.65 128.91 153.61 128.74 153.51 128.28 153.46 127.97 153.46 127.57 153.47 127.24 153.49 126.99 153.41 125.5 153.37 125.08 153.36 124.78 153.35 124.52 153.36 123.72 153.36 123.15 153.36 122.85 153.37 122.7 153.44 122.41 153.61 121.96 153.62 121.95 153.69 121.76 153.96 121.17 154.07 120.87 154.18 120.55 154.57 119.37 154.61 119.25 154.76 118.75 154.87 118.4 155.22 117.5 155.38 117.13 155.46 117 155.62 116.76 156.01 116.27 156.41 115.68 157.14 114.8 157.32 114.6 157.92 113.86 158.33 113.4 158.85 112.75 159.16 112.29 159.61 111.57 160.1 110.86 160.52 110.26 161.43 108.63 161.65 108.18 161.79 107.89 161.99 107.52 162.38 106.99 162.44 106.92 162.48 106.87 162.54 106.82 163.31 106.32 163.63 106.11 163.9 105.9 164.69 105.06 165.07 104.64 165.46 104.15 166.12 103.4 166.45 103.06 166.94 102.47 167.06 102.35 167.95 101.44 167.98 101.39 168 101.36 168.01 101.31 168.03 101.21 168.06 100.76 168.07 100.59 168.1 100.38 168.11 100.32 168.12 100.31 168.14 100.24 168.23 100.08 168.48 99.7 168.63 99.5 168.85 99.17 169.15 98.6 169.22 98.43 169.23 98.39 169.24 98.33 169.25 98.27 169.23 98.21 169.22 98.13 168.96 97.4 168.95 97.28 168.95 97.2 168.97 97.16 169 97.1 169.04 97.04 169.08 97.01 169.23 96.91 169.43 96.79 169.86 96.58 170.41 96.38 170.85 96.19 170.86 96.18 171.23 96.04 171.87 95.84 172.26 95.67 173.1 95.33 173.66 95.04 174.17 94.75 174.35 94.68 176.06 94.29 176.78 94.18 177.22 94.11 177.44 94.07 177.5 94.06 177.56 94.04 177.58 94.02 177.63 93.98 177.96 93.4 178.07 93.13 178.1 93.05 178.13 93.01 178.25 92.85 178.43 92.66 178.69 92.43 178.97 92.09 179.02 92.02 179.04 91.98 179.07 91.9 179.46 90.84 179.51 90.72 179.62 90.4 179.74 89.92 179.8 89.68 179.82 89.59 179.85 89.49 180.23 88.72 180.63 87.84 180.63 87.83 180.94 87.1 181.17 86.31 181.2 86.2 181.24 86.08 181.3 85.95 181.4 85.71 181.48 85.59 181.55 85.5 181.61 85.44 181.66 85.4 181.73 85.35 181.78 85.32 181.86 85.29 181.96 85.26 182.52 85.25 183.12 85.26 183.26 85.25 183.34 85.24 183.46 85.22 183.53 85.2 184.07 84.96 184.45 84.74 184.83 84.48 184.9 84.44 184.94 84.43 185.01 84.4 185.07 84.39 185.13 84.38 185.85 84.54 186.07 84.58 186.14 84.59 186.25 84.59 186.32 84.58 186.47 84.54 186.79 84.42 187.12 84.26 187.63 83.99 187.64 83.98 187.7 83.96 187.74 83.95 187.79 83.94 187.82 83.95 187.84 83.96 187.9 83.99 187.98 84.04 188.32 84.29 188.35 84.3 188.37 84.31 188.42 84.32 188.48 84.32 188.5 84.32 188.53 84.31 188.55 84.31 188.57 84.29 188.7 84.23 188.86 84.13 188.96 84.05 189.09 83.89 189.1 83.87 189.15 83.81 189.29 83.67 189.38 83.6 189.6 83.46 189.9 83.3 190.31 83.1 190.63 82.94 190.83 82.86 191.15 82.74 191.9 82.6 192.12 82.56 192.2 82.53 192.47 82.39 192.56 82.34 192.82 82.18 193.23 81.85 193.34 81.72 193.38 81.65 193.41 81.57 193.42 81.49 193.41 81.42 193.39 81.31 193.33 81.17 193.17 80.81 193.14 80.73 193.14 80.64 193.14 80.57 193.17 80.45 193.19 80.36 193.22 80.27 193.27 80.17 193.32 80.1 193.49 79.94 193.61 79.85 193.71 79.79 193.83 79.73 193.93 79.7 194.04 79.68 194.28 79.68 194.46 79.69 194.62 79.72 194.89 79.83 194.95 79.84 195.01 79.84 195.04 79.84 195.56 79.73 195.91 79.64 196.02 79.6 196.27 79.48 196.32 79.45 196.37 79.41 196.4 79.38 196.78 78.81 196.81 78.77 196.85 78.75 197.74 78.24 199.05 77.61 199.18 77.55 199.51 77.4 200.16 77.08 200.95 76.71 202.07 76.37 202.24 76.32 202.3 76.29 202.82 75.96 203.39 75.53 203.59 75.42 203.73 75.36 203.9 75.3 204.02 75.25 204.09 75.23 204.19 75.2 204.29 75.2 204.8 75.15 205.02 75.12 205.39 75.04 205.76 74.91 206.17 74.76 206.54 74.6 207.76 73.99 208.4 73.71 208.98 73.47 209.23 73.34 209.89 72.91 210.15 72.76 210.25 72.71 210.34 72.66 210.71 72.57 211.53 72.45 211.66 72.42 211.79 72.38 211.8 72.37 211.89 72.33 212 72.27 212.07 72.22 212.12 72.17 212.15 72.14 212.2 72.06 212.2 72.05 212.24 71.95 212.23 71.84 212.22 71.79 212.17 71.67 211.84 71.17 211.81 71.05 211.8 70.98 211.81 70.91 211.83 70.85 211.86 70.8 211.9 70.76 211.96 70.72 212.43 70.56 212.49 70.52 212.54 70.49 212.6 70.44 213.2 69.5 213.29 69.43 213.35 69.41 213.42 69.4 213.43 69.4 213.52 69.4 213.58 69.4 213.64 69.41 213.69 69.43 214.71 70.15 214.81 70.2 214.91 70.22 215 70.23 215.15 70.23 215.21 70.23 215.3 70.2 215.53 70.05 215.59 70 215.74 69.75 215.8 69.64 215.83 69.54 215.97 68.74 216.04 68.26 216.15 67.74 216.25 67.12 216.27 66.99 216.46 66.04 216.51 65.9 216.55 65.81 216.6 65.73 216.65 65.69 216.72 65.66 216.93 65.6 216.95 65.6 217.08 65.56 217.14 65.56 217.29 65.54 217.97 65.54 218.49 65.51 218.61 65.5 218.73 65.46 219.26 65.22 219.62 64.95 219.66 64.9 219.69 64.83 219.69 64.79 219.7 64.71 219.7 64.67 219.69 64.61 219.55 64.28 219.52 64.23 219.22 63.71 219.18 63.63 219.05 63.28 219.03 63.17 219.01 62.95 219.01 62.86 219.04 62.77 219.08 62.7 219.22 62.47 219.24 62.45 219.48 62.17 219.57 62.09 219.67 62.02 219.8 61.95 220.15 61.81 220.57 61.64 220.62 61.61 220.63 61.6 220.65 61.58 220.66 61.57 220.71 61.5 220.77 61.39 220.92 61.11 220.96 61.03 221.2 60.47 221.29 60.37 221.31 60.36 221.4 60.31 221.51 60.32 221.59 60.35 221.66 60.41 221.71 60.48 221.85 60.75 221.94 60.92 221.98 61.01 222.05 61.14 222.09 61.17 222.13 61.18 222.25 61.19 222.37 61.2 222.41 61.2 222.48 61.18 222.53 61.14 222.59 61.1 223.07 60.55 223.22 60.41 223.3 60.36 223.64 60.11 223.78 60.04 223.91 59.98 224.06 59.94 224.26 59.9 224.55 59.85 226.33 59.56 226.48 59.52 226.66 59.43 226.95 59.26 227.74 58.63 228.11 58.41 228.25 58.36 228.61 58.29 229.53 58.19 230.05 58.05 230.46 57.91 230.99 57.65 231.29 57.47 231.56 57.35 231.73 57.31 232.08 57.3 232.58 57.26 233.2 57.24 233.47 57.17 234.22 56.78 236.51 55.8 225.75 36.23 216.86 21.36 217.84 20.86 218.1 20.69 218.59 20.35 218.93 20.07 218.94 20.06 219.3 19.73 219.7 19.49 219.83 19.42 220.09 19.29 220.74 19.03 221.88 18.7 222.55 18.47 223.17 18.2 223.72 17.97 224.15 17.85 224.22 17.84 224.51 17.79 224.52 17.79 224.79 17.74 225.21 17.61 225.71 17.41 226.46 17.1 226.77 16.96 227.04 16.81 227.09 16.77 227.18 16.72 227.42 16.57 227.74 16.44 228.32 16.25 229.13 15.98 229.58 15.8 229.94 15.65 230.14 15.57 230.6 15.33 230.99 15.06 231.45 14.68 231.85 14.43 232.19 14.25 232.48 14.15 232.85 14.1 233.37 14.06 233.78 14.01 234.09 13.93 234.23 13.84 234.41 13.73 234.72 13.47 235.04 13.25 235.38 13.1 236.19 12.81 237.04 12.53 238.02 12.28 238.81 12.07 239.24 11.93 239.6 11.74 240.23 11.36 240.73 10.91 241.14 10.65 241.63 10.44 242 10.34 242.39 10.34 242.94 10.38 243.41 10.37 243.83 10.3 244.33 10.16 244.75 10.08 245.28 10.09 245.8 10.09 246.43 10.03 246.92 9.95 247.43 9.8 248.21 9.47 248.73 9.25 249.32 9.07 250.13 8.79 250.75 8.6 251.18 8.51 251.54 8.49 251.79 8.47 252.1 8.38 252.66 8.14 253.4 7.82 253.78 7.57 254.4 7.23 254.56 7.17 254.85 7.07 254.87 7.06 255.12 7.11 255.59 7.38 256.21 7.71 257.04 8.03 257.85 8.24 258.56 8.41 258.97 8.55 259.33 8.79 259.69 8.99 260.1 9.13 260.2 9.19 260.37 9.29 260.69 9.44 260.81 9.58 260.82 9.73 260.77 9.88 260.74 9.96 260.69 10.06 260.69 10.21 260.73 10.4 260.88 10.69 261.35 11.16 261.68 11.38 262.07 11.54 262.42 11.65 262.64 11.82 262.73 12.01 262.78 12.33 262.82 12.84 262.9 13.11 263.09 13.35 263.21 13.66 263.24 13.91 263.19 14.1 263.1 14.34 263.01 14.66 263.03 14.86 263.15 15.05 263.52 15.56 263.72 15.81 263.78 16 263.77 16.24 263.75 16.51 263.79 16.69 263.94 16.82 264.38 17.02 265.85 17.58 266.89 17.96 267.17 18.13 267.32 18.31 267.41 18.57 267.47 18.9 267.5 19.1 267.46 19.22 267.35 19.35 267.17 19.4 266.27 19.42 265.99 19.53 265.74 19.67 265.63 19.82 265.56 19.96 265.51 20.08 265.49 20.24 265.57 20.4 265.74 20.59 265.79 20.65 265.91 20.93 265.93 21.21 265.93 21.24 265.91 21.45 265.83 21.82 265.65 22.34 265.5 22.85 265.48 23.15 265.5 23.36 265.59 23.52 265.82 23.73 266.29 24 267.02 24.38 267.09 24.4 267.44 24.49 268.27 24.66 268.86 24.81 269.16 24.96 269.35 25.16 269.51 25.46 269.63 25.76 269.79 26.03 269.94 26.22 270.23 26.63 270.42 27.03 270.46 27.19 270.45 27.39 270.52 27.59 270.61 27.72 270.73 27.8 270.83 27.83 271.11 27.88 271.25 27.94 271.28 27.95 271.42 28.07 271.54 28.27 271.56 28.32 271.71 28.74 271.9 29.08 272.18 29.41 272.54 29.72 273.18 30.45 273.9 31.32 274.13 31.6 275.37 33.1 276.29 34.21 277.58 35.9 279.46 38.41 281.07 40.54 281.53 41.2 282.49 42.44 282.98 42.98 283.91 41.56 284.56 40.96 285.39 40.26 285.7 40.51 285.91 40.69 286.13 40.87 286.76 41.95 287.84 43.55 288.49 44.72 289.35 46.6 289.41 46.9 289.47 47.13 289.57 48.15 289.59 48.35 289.59 48.4 289.67 49.09 289.74 49.46 290.2 51.14 290.35 51.95 290.51 53.4 290.56 54.73 290.53 55.98 290.46 56.9 290.46 57 290.45 57.7 290.44 57.8 290.41 58.31 290.39 58.41 290.35 58.47 290.18 58.5 287.54 58.48 287.38 58.51 287.27 58.58 287.24 58.62 287.22 58.77 287.32 59.13 287.95 61.64 288.14 62.51 288.4 63.82 288.54 64.56 288.84 65.69 288.92 65.84 288.97 65.91 289.01 65.98 289.06 66.03 289.3 66.53 289.83 66.28 290.35 66.17 291.2 66.01 292.56 65.71 294.38 65.24 295.48 64.96 296.2 64.77 296.46 64.7 297.12 64.54 297.88 64.35 299.33 64.03 302.68 63.3 304.77 62.81 309.15 61.78 309.92 61.68 310.27 61.52 310.69 61.55 310.9 61.46 311.17 61.37 311.67 61.63 312.01 61.83 312.4 62.05 313.99 62.62 316.85 63.29 322.52 64.61 327.69 65.72 330.55 66.18 333.23 66.28 335.03 66.11 335.2 66.06 344.44 63.68 349.23 62.11 350.41 61.92 351.08 61.94 352.1 62.16 353.84 62.38 355 62.66 357.14 63.55 358.52 64.32 360.55 65.75 362 66.55 362.22 66.64 362.81 66.89 363.39 67.18 364.11 67.42 364.51 67.44 364.75 67.43 364.89 67.43 365.26 67.48 365.66 67.6 365.96 67.66 366.31 67.84 366.46 67.91 366.7 68.15 367.11 68.81 367.23 68.97 367.31 69.06 367.5 69.21 367.64 69.3 367.83 69.38 367.95 69.45 368.18 69.49 368.51 69.55 368.96 69.6 369.33 69.6 369.73 69.59 370.33 69.47 370.74 69.34 371.33 69.12 371.76 68.93 372.1 68.77 372.39 68.68 372.71 68.63 373.2 68.56 373.69 68.54 374.01 68.55 374.34 68.59 374.96 68.74 375.52 68.89 375.66 68.94 376.72 69.29 376.75 69.3 377.15 69.43 377.32 69.47 377.38 69.49 377.53 69.53 377.7 69.53 377.82 69.53 377.96 69.5 378.09 69.45 378.17 69.41 378.81 69.01 378.93 68.96 379.31 68.77 379.76 68.6 380.39 68.3 380.75 68.17 381.23 68.01 381.63 67.86 381.89 67.73 382.16 67.58 382.34 67.49 382.48 67.42 382.7 67.34 383.17 67.21 383.19 67.31 383.55 68.54 384.24 70.6 384.26 70.67 384.29 70.83 384.49 71.67 385.08 73.61 386.05 75.75 386.25 76.31 387.02 78.43 387.53 79.67 387.8 80.33 387.88 80.48 388.76 82.23 389.56 83.99 389.95 84.83 391.33 88.01 391.85 89.49 392.5 91.04 393.09 92.46 393.88 94.48 394.55 95.58 395.8 97.21 396.87 98.71 397.59 99.79 399.27 102.15 400.21 103.88 401.52 105.82 402.75 107.76 403.43 108.77 403.88 109.31 403.89 109.33 403.98 109.01 404 108.69 404.02 107 404.02 106.97 404.05 106.86 404.12 106.77 404.24 106.68 404.43 106.63 404.62 106.66 405.06 106.76 407.28 107.52 407.84 107.72 408.18 107.71 408.42 107.68 408.72 107.54 409.41 107.03 409.7 106.74 409.82 106.46 409.87 106.23 409.87 106.05 409.84 105.83 409.7 105.45 409.24 104.48 409.08 104.14 409.02 103.89 409.02 103.8 409.01 103.55 409.01 103.18 409.05 102.88 409.16 102.61 410.52 100.37 411.76 98.4 411.81 98.19 411.8 97.91 411.75 97.55 411.67 97.31 411.61 97.11 411.53 96.87 411 95.2 410.51 92.59 410.49 92.34 410.52 91.88 410.57 91.67 410.59 91.61 410.61 91.55 410.88 91.49 411.18 91.51 412.68 91.63 415.56 91.86 419.96 92.21 420.28 92.23 427.09 92.78 427.54 92.8 428.14 92.97 429.07 93.24 429.46 93.25 429.65 93.19 429.84 93.05 429.92 92.81 429.91 92.53 429.83 92.18 429.66 91.92 428.45 90.94 428.35 90.83 428.31 90.65 428.36 90.49 428.5 90.33 428.85 90.14 429.73 89.77 430.73 89.07 434.98 86.22 439.08 83.81 443.7 80.89 446.91 78.89 448.57 77.73 453.04 74.35 458.41 70.56 464.39 66.65 468.28 64.28 470.23 63.08 473.89 60.8 477.07 58.75 481.28 56.21 483.56 54.71 484.53 54.26 484.71 54.6 485.54 56.08 486.67 57.75 487.6 59.11 487.79 59.57 487.87 59.93 488 60.86 488.17 61.87 488.31 62.26 488.47 62.49 488.62 62.72 488.66 62.74 488.9 62.91 490.05 63.54 490.36 63.7 491.13 64.02 491.63 64.28 491.72 64.34 491.84 64.43 492.02 64.64 492.17 64.89 492.41 65.5 492.45 65.58 492.83 66.48 492.9 66.65 493.65 68.02 494.33 68.97 495.14 69.93 495.88 70.94 496.03 71.13 496.66 71.94 496.79 72.11 497.25 72.7 497.7 73.06 498.18 73.3 499.2 73.66 499.44 73.8 499.54 73.85 499.67 74.02 499.96 74.54 500 74.63 500.38 75.47 500.62 76 500.65 76.09 500.85 76.7 501.18 77.35 502.12 78.45 502.85 79.36 503.39 79.78 504.13 78.59 505.8 75.78 506.32 74.9 509.34 69.92 510 68.81 511.34 66.54 513.64 62.81 514.48 61.44 516.99 57.37 518.17 55.37 520 52.38 521.1 50.54 523.09 47.26 525.84 42.81 527.57 39.79 528.36 38.49 530.11 35.62 531.03 34.18 531.54 33.39 532.16 32.43 533.9 29.46 536.86 24.73 538.21 22.73 540.38 19.27 541.08 18.1 542.72 15.39 544.76 12.32 548 7.16 550.98 2.31 551.73 1.12 551.87 1.05 552 1.01 552.11 1 552.2 1.04 552.21 1.04 552.37 1.16 552.6 1.36 553.15 1.75 553.63 2.1 554.14 2.3 555.27 2.39 555.32 2.41 555.65 2.44 555.85 2.53 556.14 2.69 556.55 3 557.22 3.51 557.6 3.87 557.92 4.29 558.18 4.76 558.35 5.2 558.89 6.11 558.94 6.16 559.21 6.47 559.48 6.83 559.69 7.1 559.8 7.32 559.82 7.41 559.83 7.47 559.87 7.77 559.97 8.43 560.03 8.75 560.1 9.14 560.14 9.32 560.19 9.53 560.21 9.59 560.26 9.68 560.33 9.77 560.43 9.86 560.59 9.94 560.67 9.96 560.82 10 561.22 10.12 561.35 10.15 561.55 10.2 561.6 10.22 562.43 10.38 562.44 10.4 562.53 10.41 562.68 10.41 562.93 10.4 562.96 10.41 563.27 10.47 563.49 10.59 563.61 10.67 563.62 10.7 563.74 10.86 563.82 11 563.89 11.22 563.86 11.38 563.34 12.46 562.51 14.66 562.5 14.75 562.51 14.85 562.55 14.95 562.58 15.04 562.67 15.1 562.8 15.17 562.88 15.22 563.15 15.34 563.32 15.41 563.68 15.46 564 15.5 564.13 15.55 564.33 15.67 565.28 16.3 565.5 16.45 566.29 16.97 566.65 17.09 567 17.07 567.48 17.05 567.94 17.1 568.84 17.18 569.27 17.26 569.57 17.39 569.85 17.56 570.19 17.86 571.17 19.09 571.75 19.68 572.25 19.97 572.68 20.22 573.22 20.59 573.57 20.87 574.01 21.07 575.46 21.48 577.33 21.94 577.48 22.02 577.66 22.14 577.83 22.29 578.11 22.6 579.25 23.91 579.31 23.95 579.63 24.13 579.86 24.27 580.44 24.32 581.04 24.28 581.23 24.19 582.77 23.49 583.13 23.4 583.59 23.43 583.95 23.52 584.74 23.94 586.03 24.44 586.31 24.44 586.63 24.45 587.24 24.28 587.85 24.12 588.21 24.15 588.55 24.21 588.77 24.28 589.02 24.48 589.32 24.74 589.92 25.57 590.43 26.08 590.5 26.15 590.57 26.22 590.71 26.29 590.84 26.36 590.88 26.39 591.32 26.46 592.2 26.61 592.52 26.67 592.87 26.88 593.41 27.28 594.39 28.25 595.37 29.07 597.51 30.37 599.89 31.62 600.21 31.82 600.67 32.09 600.92 32.24 601.02 32.28 601.11 32.33 601.42 32.44 601.62 32.51 601.76 32.56 602.05 32.62 602.18 32.65 602.44 32.7 603.25 32.84 604.01 32.94 604.05 32.95 604.27 33 604.4 33.05 604.48 33.1 604.53 33.12 605.01 33.4 605.56 33.71 605.99 34 606.39 34.25 606.69 34.42 607.11 34.67 608.15 34.21 610.6 33.02 610.71 32.97 610.76 33.1 613.75 41.22 614.11 42.21 614.47 41.99 615.86 41.23 619.5 39.22 624.03 37.66 624.08 37.5 624.11 37.09 624.15 36.64 624.15 36.08 624.23 35.19 624.42 34.54 624.69 33.75 625.02 33.15 625.12 32.45 625.07 31.94 625.04 31.72 625.02 31.55 625.06 31.34 625.27 31.13 625.52 30.87 625.76 30.8 627.24 30.37 628.25 30.03 628.39 30.01 628.52 30 628.61 30 628.69 30.02 628.81 30.07 629.05 30.24 629.16 30.38 629.19 30.44 629.24 30.63 629.25 30.86 629.23 31.08 629.2 31.21 629 31.78 628.94 32.05 628.9 32.33 628.88 32.61 628.89 32.83 628.94 33.08 629.42 34.61 629.43 34.65 629.57 35.02 629.59 35.07 629.68 35.11 629.74 35.12 629.79 35.11 629.87 35.07 630.38 34.77 631.24 34.23 631.41 34.13 631.61 34.04 631.7 34 631.89 33.97 632 33.96 632.12 33.97 632.22 34 632.32 34.04 632.49 34.17 632.68 34.34 632.79 34.44 632.93 34.64 633.1 34.92 633.2 35.05 633.29 35.15 633.39 35.21 633.46 35.24 633.5 35.26 633.61 35.3 633.77 35.35 634.11 35.49 634.29 35.6 634.42 35.7 634.55 35.84 634.76 36 634.96 36.11 635.05 36.13 635.11 36.13 635.75 35.96 636.1 35.88 636.23 35.87 636.6 35.87 636.93 35.88 637.33 35.95 637.74 36.06 637.92 36.12 638.11 36.2 638.4 36.35 638.67 36.54 638.75 36.6 639.29 37.11 640.84 38.8 641.51 39.5 642.09 40 642.22 40.09 642.52 40.29 642.96 40.48 643.21 40.54 643.73 40.63 645.84 41.02 646.06 41.07 646.66 41.24 647.06 41.4 647.17 41.45 647.43 41.6 647.98 41.95 648.14 42.03 648.41 42.1 648.62 42.12 648.72 42.11 648.85 42.08 648.91 42.06 649.08 41.98 649.3 41.83 649.67 41.54 649.83 41.43 650.24 41.16 650.56 40.97 650.95 40.79 651.93 40.37 652.57 40.08 652.77 39.98 653.07 39.83 653.25 39.76 653.34 39.75 653.35 39.75 653.45 39.76 653.48 39.78 653.56 39.81 653.6 39.84 653.65 39.87 653.72 39.94 654.38 40.88 654.53 41.07 654.79 41.42 655.16 41.87 655.46 42.21 655.98 42.83 656.15 43.01 656.25 43.09 656.34 43.15 656.45 43.19 656.54 43.19 656.64 43.15 656.71 43.09 656.77 43.01 656.81 42.89 656.91 42.34 656.98 42.12 657.02 42.04 657.05 42.01 657.1 41.96 657.24 41.9 657.37 41.88 657.56 41.86 657.69 41.87 657.87 41.91 657.92 41.92 658.03 41.98 658.22 42.11 658.34 42.3 658.39 42.39 658.42 42.5 658.44 42.69 658.45 43.06 658.47 43.26 658.5 43.51 658.53 43.64 658.65 43.91 658.72 44.02 658.89 44.24 659.04 44.36 659.25 44.49 659.42 44.55 659.65 44.61 659.94 44.63 660.04 44.63 660.33 44.6 661.09 44.46 662.11 44.17 663.07 43.83 663.71 43.62 663.95 43.54 664.16 43.52 664.22 43.53 664.34 43.56 664.48 43.61 664.69 43.7 665.21 44.01 665.53 44.25 665.68 44.38 665.83 44.48 665.95 44.55 667.67 45.2 667.76 45.22 667.94 45.25 668.13 45.26 668.15 45.26 668.37 45.19 668.51 45.13 669.55 44.53 669.7 44.48 669.85 44.42 670.12 44.39 670.24 44.39 670.34 44.4 670.36 44.41 670.63 44.49 670.89 44.65 671.14 44.84 671.35 45.03 671.54 45.27 671.63 45.55 671.63 45.75 671.57 45.86 671.03 46.44 670.75 46.8 670.7 46.89 670.62 47.04 670.53 47.22 670.5 47.28 670.3 47.8 670.3 47.82 670.28 47.86 670.2 48.13 669.88 49.31 669.82 49.59 669.77 49.85 669.65 50.54 669.59 51.08 669.56 51.56 669.57 51.74 669.6 51.92 669.66 52.2 669.74 52.53 669.77 52.76 669.78 53.09 669.77 53.16 669.71 53.41 669.52 54.27 669.5 54.41 669.49 54.53 669.48 54.67 669.53 54.88 669.57 54.96 669.63 55.07 669.81 55.27 670.1 55.48 670.85 55.93 671.01 56.05 671.07 56.09 671.22 56.27 671.33 56.46 671.37 56.55 671.42 56.76 671.43 56.9 671.38 57.27 671.32 57.48 671.24 57.72 671.04 58.11 670.76 58.55 670.4 59.12 670.26 59.39 670.18 59.57 670.06 60.01 669.9 60.63 669.69 61.49 669.5 62.1 669.37 62.55 669.35 62.66 669.35 62.82 669.38 62.91 669.39 62.93 669.45 63.01 669.56 63.09 669.69 63.14 669.82 63.18 670.47 63.28 671.02 63.34 671.38 63.34 671.55 63.3 671.74 63.23 671.85 63.18 672.04 63.06 672.28 62.9 672.32 62.87 672.43 62.81 672.58 62.75 672.68 62.72 672.85 62.7 672.95 62.71 673.03 62.74 673.11 62.78 673.37 62.94 673.55 63.08 673.73 63.27 673.82 63.35 674.03 63.53 674.13 63.6 674.27 63.68 674.39 63.74 674.62 63.84 674.72 63.87 674.89 63.9 675.08 63.92 675.31 63.94 675.58 64 675.69 64.04 675.84 64.12 676.24 64.41 676.42 64.62 676.55 64.81 676.59 64.88 676.69 65.1 676.73 65.24 676.75 65.32 676.85 65.72 676.9 65.84 676.98 65.99 677.11 66.15 677.26 66.25 677.55 66.38 677.76 66.44 678.13 66.53 678.7 66.61 678.93 66.62 679.08 66.61 679.29 66.56 679.3 66.56 679.42 66.49 679.55 66.39 679.63 66.28 679.69 66.15 679.77 65.86 679.83 65.69 679.92 65.56 680.04 65.47 680.14 65.41 680.27 65.38 680.37 65.39 680.46 65.41 680.5 65.43 680.62 65.51 680.74 65.66 680.8 65.75 680.81 65.78 680.93 66.03 681.11 66.48 681.18 66.63 681.22 66.74 681.22 66.86 681.21 66.96 681.16 67.05 680.89 67.43 680.83 67.53 680.63 67.84 680.52 68.04 680.43 68.27 680.4 68.45 680.39 68.62 680.4 68.69 680.45 68.98 680.5 69.08 680.62 69.28 680.87 69.43 681.08 69.52 681.32 69.58 681.54 69.61 681.74 69.62 682.16 69.61 682.45 69.57 682.61 69.54 682.8 69.48 682.99 69.41 683.21 69.29 683.77 68.96 684.23 68.73 684.43 68.65 684.45 68.64 684.57 68.61 684.65 68.59 684.84 68.58 685.01 68.61 685.11 68.64 685.24 68.71 685.34 68.79 685.46 68.96 685.53 69.1 685.59 69.34 685.6 69.42 685.61 69.52 685.61 69.83 685.58 70.3 685.57 71.1 685.58 71.21 685.62 71.41 685.72 71.72 685.78 71.87 685.92 72.17 686.04 72.43 686.06 72.45 686.24 72.73 686.56 73.14 687.09 73.76 687.42 74.13 687.49 74.22 687.68 74.48 687.84 74.79 687.95 75.04 688.32 76.31 688.46 76.7 688.57 76.98 688.66 77.16 688.72 77.27 688.83 77.44 689.11 77.84 689.43 78.25 689.56 78.43 689.7 78.65 689.89 79.02 689.99 79.3 690.12 79.74 690.17 79.89 690.22 80.05 690.37 80.4 690.51 80.7 690.53 80.72 691.46 82.34 691.94 83.05 692.16 83.36 692.22 83.44 692.33 83.58 692.6 83.9 692.73 84.09 692.83 84.27 692.94 84.49 693.01 84.66 693.08 84.88 693.18 85.25 693.18 85.28 693.24 85.44 693.42 85.78 693.68 86.21 693.82 86.4 694.55 87.37 694.64 87.49 694.98 87.95 695.18 88.25 696.06 89.61 696.55 90.39 696.88 90.9 697.01 91.15 697.11 91.36 697.2 91.63 697.22 91.77 697.27 92.16 697.3 92.31 697.36 92.53 697.45 92.77 697.61 93.15 697.78 93.43 697.95 93.64 698.06 93.73 698.17 93.83 699.05 94.4 699.29 94.57 699.57 94.8 699.72 94.97 699.87 95.24 699.93 95.35 700.02 95.54 700.04 95.58 700.13 95.77 700.21 95.99 700.3 96.23 700.59 97.1 700.68 97.35 700.82 97.71 700.95 97.99 701.02 98.14 701.12 98.29 701.24 98.48 701.8 99.25 702.42 100.07 703.79 101.84 704.04 102.18 704.3 102.64 704.44 102.91 704.72 103.52 705.17 104.41 705.33 104.7 705.44 104.87 705.56 105.04 705.79 105.31 706.16 105.61 706.37 105.75 706.68 105.96 707.01 106.22 707.5 106.65 708.16 107.41 708.56 107.97 708.78 108.27 709.14 108.57 709.35 108.94 709.45 109.22 709.47 109.38 709.46 109.61 709.42 109.87 709.19 110.46 709.16 110.57 709.16 110.73 709.18 110.79 709.27 110.94 709.58 111.15 710.72 111.74 711.04 111.94 711.89 112.54 712.42 112.94 712.77 113.45 713.45 114.46 713.82 115.07 714.47 116.26 714.59 116.49 715.22 117.88 715.3 118.03 717 120.99 717.12 121.17 717.89 122.32 718.64 123.4 719.61 124.67 720.64 126.1 721.55 127.35 722.19 128.21 724.53 131.43 725.13 132.29 726.73 134.78 727.23 135.56 728.06 136.83 728.47 137.39 728.59 137.54 728.88 137.83 729.48 138.51 729.67 138.76 729.98 139.23 730.69 140.41 731.48 141.6 732.87 143.62 734.03 145.37 735 146.75 735.96 148.12 737.72 150.74 739.78 153.67 740.74 155.11 741.31 155.94 742.17 157.18 749.64 168.19 749.76 168.37 757.65 180 758.35 181.1 759.23 182.42 760.31 183.89 761.49 185.53 763.05 187.84 765.56 191.53 766.21 192.45 767.63 194.62 768.3 195.56 769.16 196.74 770.03 198.02 770.8 199.1 771.76 200.43 772.42 201.4 773.41 202.8 774.19 203.88 774.34 204.1 774.79 204.84 775.17 205.42 776.8 207.81 778.27 210.04 778.38 210.19 779.65 211.79 779.76 211.97 779.79 212.09 779.8 212.17 779.8 212.29 779.76 212.45 779.68 212.68 779.6 212.86 779.52 213.05 779.51 213.31 779.51 213.34 779.53 213.55 779.56 213.61 779.57 213.65 779.58 213.68 779.65 213.88 779.68 213.9 780.23 214.18 780.42 214.4 780.47 214.47 780.6 214.74 780.65 214.88 780.83 215.68 781.49 218.13 781.87 219.41 781.97 219.71 782.29 220.56 782.48 221.14 782.55 221.42 782.98 223.39 783.36 224.99 783.57 225.66 784.16 227.69 784.71 229.68 784.91 230.46 785.1 231.3 785.25 231.91 785.44 232.56 785.74 233.45 785.87 233.87 785.98 234.26 786.28 235.44 786.59 236.44 786.85 237.32 787.25 238.72 787.49 239.74 788.11 242.15 788.36 243.28 788.47 243.82 788.52 243.97 788.94 245.05 789.1 245.43 789.17 245.61 789.49 246.82 789.96 248.74 790.22 249.75 790.72 251.5 791.57 254.58 792.28 257.08 792.71 258.77 793.71 262.9 794.47 265.95 794.74 266.98 795.62 270 796.54 273.48 796.6 273.7 796.83 274.57 797.15 275.63 797.52 277.12 797.72 277.77 797.91 278.41 797.92 278.49 797.99 278.87 798.03 279.35 798.01 279.82 797.97 280.21 797.89 280.66 797.76 281.62 797.7 282.26 797.51 284.92 797.2 287.74 796.79 292.24 796.61 294.02 796.34 297.47 796.16 299.51 796.07 300.27 795.79 305.56 795.71 306.18 795.62 306.66 795.42 307.6 795.32 308.11 795.28 308.48 795.33 308.86 795.35 308.97 795.45 309.29 795.53 309.53 795.86 310.33 796.14 311.17 796.29 311.77 796.68 313.28 797.08 314.92 797.57 316.62 797.68 316.98 798.03 317.91 798.62 319.58 798.79 320.22 799 321.2 798.87 321.21 798.87 321.25 798.86 321.3 798.79 321.51 798.66 321.82 798.48 322.12 798.23 322.49 797.75 322.92 797.26 323.19 796.32 323.63 796 323.75 795.88 323.76 795.8 323.73 795.75 323.67 795.68 323.55 795.63 323.42 795.54 323.31 795.44 323.26 795.35 323.25 795.25 323.27 794.6 323.5 794.4 323.58 794.3 323.66 794.21 323.78 794.14 323.95 793.93 324.36 793.88 324.5 793.8 324.6 793.68 324.68 790.56 325.92 788.84 326.6 785.46 327.85 783.06 328.76 781.06 329.62 779.63 330.26 779.37 330.28 779.13 330.26 778.87 330.07 778.86 330.04 778.85 329.92 778.85 329.8 778.88 329.68 778.94 329.55 778.96 329.41 778.96 329.34 778.93 329.26 778.87 329.17 778.75 329 778.43 329.03 778.39 329.12 778.35 329.22 778.31 329.34 778.27 329.36 778.23 329.37 778.19 329.37 778.12 329.34 778.05 329.29 777.97 329.22 777.87 329.14 777.77 329.04 777.66 328.97 777.55 328.97 777.44 329.04 777.36 329.15 777.24 329.32 777.18 329.46 777.12 329.56 777.05 329.67 776.9 329.83 776.73 329.97 776.58 330.08 776.53 330.12 776.29 330.29 773.8 331.2 773.48 331.32 773.15 331.44 770.28 332.47 766.08 334.24 765.08 334.66 764.25 335.1 763.95 335.18 763.78 335.19 763.69 335.19 763.68 335.19 763.54 335.13 763.43 335.01 763.3 334.83 763.17 334.63 763.04 334.46 762.97 334.38 762.73 334.03 762.58 333.8 762.39 333.58 762.19 333.43 762.06 333.33 761.89 333.27 761.68 333.26 761.34 333.31 760.92 333.4 759.97 333.76 759.54 333.99 759.14 334.26 758.86 334.42 758.68 334.49 758.55 334.5 758.41 334.48 758.27 334.39 758.14 334.2 757.89 334.33 757.85 334.52 757.84 334.68 757.84 334.84 757.87 335.05 757.93 335.29 758.09 335.69 758.14 335.87 758.15 335.98 758.1 336.12 757.99 336.27 757.85 336.39 757.62 336.65 757.61 336.68 757.46 336.85 757 337.24 756.82 337.59 756.68 337.92 756.56 338.21 756.4 338.39 756.26 338.46 755.82 338.59 755.79 338.6 755.6 338.64 755.48 338.67 755.43 338.67 755.35 338.64 755.3 338.61 755.25 338.52 755.21 338.42 755.2 338.28 755.16 338.16 755.07 338.05 754.96 337.98 754.73 337.9 754.64 337.9 754.4 338.08 754.47 338.27 754.79 338.89 754.83 339.04 754.83 339.12 754.83 339.13 754.81 339.22 754.75 339.3 754.66 339.37 754.58 339.44 754.43 339.49 754.29 339.52 754.15 339.53 753.99 339.52 753.95 339.51 753.85 339.47 753.83 339.47 753.73 339.4 753.62 339.34 753.48 339.29 753.36 339.3 753.25 339.33 753.13 339.35 752.98 339.36 752.87 339.33 752.65 339.24 752.52 339.35 752.52 339.45 752.5 339.5 752.45 339.58 752.39 339.65 752.33 339.74 752.31 339.79 752.3 339.84 752.33 339.94 752.39 340.04 752.49 340.16 752.53 340.2 752.64 340.34 752.67 340.41 752.67 340.48 752.68 340.52 752.65 340.58 752.59 340.67 752.58 340.67 751.69 341.2 751.4 341.24 751.25 341.22 750.96 340.91 750.92 340.86 749.95 339.47 749.8 339.35 749.36 338.84 749.06 338.58 748.86 338.44 748.77 338.38 748.69 338.35 748.6 338.35 748.44 338.34 748.37 338.35 748.29 338.38 748.25 338.41 748.17 338.5 748.14 338.59 748.13 338.73 748.15 338.94 748.14 339.13 748.04 339.46 748.02 339.5 747.93 339.92 747.88 340.45 747.87 340.78 747.79 341.01 747.67 341.19 747.58 341.3 747.38 341.47 747.02 341.59 743.67 342.92 741.88 343.7 739.53 344.7 737.38 345.51 736.06 345.98 735.79 346.15 735.65 346.31 735.6 346.44 735.52 346.56 735.24 346.83 734.72 347.2 734.65 347.24 733.57 347.95 731.36 349.45 730.54 349.94 729.77 350.39 728.94 350.92 728.82 351.02 728.67 351.19 728.62 351.29 728.45 351.5 728.31 351.71 728.15 351.92 727.94 352.04 727.58 352.18 727.29 352.22 727.08 352.26 726.86 352.31 726.33 352.44 725.78 352.54 725.56 352.58 725.09 352.74 724.72 352.92 723.97 353.44 722.31 354.77 718.53 357.62 717.06 358.7 716.89 358.83 716.79 359.01 716.7 359.29 716.64 359.45 716.63 359.47 716.58 359.55 714.88 361.18 713.57 362.37 713.06 362.95 712.79 363.11 712.14 363.63 711.89 363.96 711.63 364.21 710.85 364.67 710.59 364.9 710.51 365.16 710.43 365.45 710.1 366.86 709.9 367.26 708.67 368.94 708.17 369.44 707.66 369.92 706.93 370.53 705.88 371.21 705.53 371.36 705.2 371.44 704.82 371.49 704.47 371.51 704.22 371.51 703.91 371.46 703.71 371.31 703.6 371.2 703.46 371.05 703.19 370.88 702.89 370.74 702.62 370.72 702.31 370.78 701.88 370.97 701.57 371.23 701.34 371.48 701.24 371.74 701.2 371.93 701.2 372.15 701.33 372.42 701.41 372.65 701.38 372.79 701.32 372.99 701.06 373.39 700.91 373.57 700.73 373.71 700.53 373.73 700.17 373.73 699.94 373.61 699.62 373.41 699.29 373.3 698.97 373.23 698.6 373.28 698.3 373.47 698.06 373.7 697.88 373.98 697.77 374.25 697.55 374.49 697.2 374.8 696.87 375.1 696.25 375.67 695.8 376 695.39 376.25 694.58 376.59 694.22 376.67 693.97 376.72 693.53 376.68 693.01 376.62 692.39 377.19 692.75 377.63 692.89 377.96 692.92 378.17 692.93 378.34 692.93 378.44 692.88 378.59 692.88 378.6 692.79 378.76 692.73 378.88 692.61 378.98 692.1 379.2 691.93 379.29 691.65 379.42 691.28 379.51 690.57 379.49 690.06 379.48 689.69 379.59 689.42 379.88 689.42 379.89 689.36 379.94 689.24 380.12 689.21 380.43 689.28 380.82 689.37 381.06 689.34 381.33 689.3 381.58 689.21 381.97 688.97 382.95 688.9 383.24 688.88 383.63 688.89 384.64 688.97 385.63 689.17 386.43 689.18 386.47 689.18 386.67 689.14 386.96 689.06 387.23 688.85 387.73 688.66 388.26 688.63 388.32 688.42 388.78 687.54 390.08 686.77 391 686.72 391.15 686.7 391.31 686.65 391.6 686.6 391.88 686.47 392.25 686.32 392.58 686.1 392.86 685.68 393.41 685.03 394.26 684.47 395.2 683.78 396.27 683.43 396.78 682.96 397.46 682.85 397.55 682.78 397.59 682.63 397.64 682.48 397.64 682.33 397.61 682.11 397.51 682.03 397.5 681.98 397.52 681.94 397.56 681.92 397.58 681.92 397.62 681.92 397.63 681.96 397.77 682.06 397.98 682.46 398.44 682.48 398.49 682.48 398.56 682.48 398.62 682.46 398.67 682.4 398.73 682.33 398.77 682.02 398.85 681.9 398.9 681.78 398.98 681.06 399.72 680.58 400.34 680.12 401.02 679.54 401.94 679.03 402.92 678.09 404.73 677.06 406.87 676.33 408.55 675.92 409.46 675.83 409.74 675.71 409.97 675.59 410.12 675.42 410.23 675.21 410.32 674.99 410.42 674.89 410.47 674.83 410.52 674.75 410.65 674.69 410.96 674.69 410.98 674.47 411.77 674.21 412.54 673.91 413.21 673.44 414.09 673.06 414.75 672.33 415.59 672.03 416.37 671.78 417.18 671.69 417.47 671.63 417.68 671.56 417.85 671.38 418.1 671.17 418.25 670.35 418.69 669.7 419.03 669.32 419.32 669.06 419.66 668.91 420.1 668.88 420.53 668.96 421.3 669.08 421.94 669.09 421.98 669.09 422.04 669.16 422.6 669.19 422.93 669.22 423.19 669.21 423.35 668.97 423.89 668.68 424.54 668.48 424.97 668.35 425.2 667.84 425.93 667.51 426.41 667.03 426.95 666.5 427.47 666.22 427.65 665.98 427.75 665.16 428.03 664.71 428.13 664.29 428.23 663.51 428.35 663.32 428.35 662.18 429.35 662.38 429.69 662.52 429.94 662.63 430.22 662.69 430.45 662.7 430.65 662.66 430.81 662.58 431.02 662.48 431.28 662.42 431.46 662.41 431.65 662.44 431.84 662.51 431.99 662.6 432.11 663.17 432.51 663.29 432.6 663.34 432.65 663.35 432.71 663.34 432.76 663.32 432.8 663.27 432.93 663.2 433.07 663.01 433.41 662.99 433.45 662.46 434.66 662.46 434.69 662.46 434.72 662.55 434.84 662.56 434.88 662.57 434.91 662.56 434.93 662.01 436.13 661.41 437.53 660.51 440 660.51 440.12 660.53 440.21 660.58 440.28 660.63 440.32 660.74 440.42 660.95 440.56 661.56 440.91 661.58 440.92 661.64 440.97 661.69 441.08 661.69 441.34 661.69 441.57 661.74 442.74 661.71 443.32 661.68 443.69 661.61 444.07 661.52 444.39 661.49 444.58 661.48 444.72 661.5 444.86 661.58 445.03 661.88 445.62 661.94 445.83 661.97 446.15 661.89 448.8 661.84 449.11 661.75 449.3 661.64 449.47 661.51 449.63 661.44 449.84 661.36 450.22 661.32 450.47 661.34 450.76 661.4 451.02 661.45 451.38 661.41 451.6 661.35 451.88 661.25 452.16 661.16 452.31 660.97 452.5 660.76 452.71 660.6 452.92 660.36 453.28 660.08 453.93 659.87 454.26 659.83 454.42 659.82 454.57 659.88 454.86 659.88 454.99 659.86 455.08 659.8 455.15 659.7 455.19 659.55 455.17 659.37 455.13 659.21 455.11 658.98 455.13 658.8 455.19 658.7 455.23 658.41 455.34 657.3 455.86 657.19 455.93 657.06 456.11 657 456.25 656.86 456.63 656.72 457.06 656.58 457.35 656.44 457.49 656.22 457.63 655.97 457.8 655.96 457.82 655.86 457.92 655.1 459.84 655.5 460.08 656 460.44 656.32 460.73 656.62 461.03 656.93 461.34 657.14 461.61 657.19 461.76 657.22 461.91 657.19 462.11 657.09 462.39 656.91 462.79 656.57 463.6 656.49 463.86 656.45 464.07 656.45 464.26 656.51 464.55 656.63 464.87 656.84 465.21 657.04 465.44 657.26 465.64 657.36 465.72 657.43 465.85 657.48 466.03 657.49 466.26 657.48 466.77 657.57 468.61 657.55 469.51 657.51 471 657.39 473.31 657.38 473.53 657.35 473.76 657.31 474.03 657.22 474.41 657.08 474.7 656.88 474.99 656.63 475.37 656.5 475.6 656.39 475.79 656.08 476.31 655.87 476.87 655.05 479.77 652.33 487.49 651.41 489.24 650.13 492.04 648.4 495.79 647.92 496.84 645.97 501.79 643.95 505.94 643.79 506.3 643.74 506.43 643.74 506.77 643.71 506.97 643.61 507.21 643.46 507.37 643.37 507.42 643.2 507.51 643.04 507.61 642.94 507.71 642.78 508 641.81 509.71 640.99 511.04 640.19 512.13 639.61 512.78 637.01 515.28 636.2 516.07 635.48 516.94 635.23 517.15 634.97 517.32 634.62 517.48 634.16 517.54 633.95 517.6 633.53 517.79 632.13 518.61 631.59 518.93 629.48 519.95 629.12 520.15 628.8 520.38 624.52 523.86 624.25 524.07 624.13 524.17 622.96 525.09 618.72 529.99 615.14 534.35 612.49 537.3 611.92 538.03 611.85 538.09 611.78 538.14 611.7 538.16 611.56 538.12 611.39 538.05 611.33 538.04 611.22 538.03 611.14 538.05 611.06 538.09 610.26 538.74 609.67 539.2 608.4 540.42 608.24 540.58 607.45 541.5 607.42 541.53 607.39 541.54 607.35 541.54 607.31 541.53 607.28 541.51 607.2 541.48 607.1 541.46 606.98 541.47 606.79 541.51 606.66 541.59 606.1 542.11 605.88 542.24 605.56 542.39 605.33 542.47 605.14 542.5 605.02 542.52 604.85 542.5 604.64 542.46 604.45 542.39 604.38 542.38 604.31 542.39 604.26 542.41 604.22 542.45 604.03 542.62 603.82 542.75 603.71 542.8 603.52 542.88 603.07 543.05 603 543.08 602.96 543.1 602.94 543.14 602.92 543.19 602.91 543.25 602.92 543.36 603.27 544.82 603.28 544.87 603.27 544.93 603.23 544.97 603.15 545.01 600.07 545.72 600 545.73 599.95 545.73 599.92 545.72 599.89 545.69 599.86 545.63 599.46 544.41 599.41 544.36 599.34 544.33 599.23 544.32 599.1 544.34 598.57 544.54 598.15 544.69 597.9 544.73 597.68 544.75 597.49 544.74 597.32 544.65 595.11 543.72 594.38 543.4 593.91 543.2 593.27 542.94 592.04 542.4 590.54 541.68 590.04 541.5 588.68 541.17 588.56 541.15 588.45 541.17 588.35 541.21 588.29 541.3 588.23 541.42 588.22 541.49 588.17 541.6 588.12 541.68 588.04 541.74 587.93 541.81 587.84 541.81 587.71 541.76 587.1 541.41 586.55 541.18 586.06 541.02 585.32 540.83 583.84 540.51 582.6 540.26 582.57 540.25 581.68 540.03 580.67 539.74 578.96 539.04 577.64 538.56 576.45 538.05 576.34 537.98 575.59 537.51 574.75 536.81 574.52 536.52 574.36 536.2 574.2 535.79 574.13 535.43 574.1 535.12 574.12 534.71 574.18 534.29 573.03 533.54 571.88 533.87 571.62 533.9 571.27 533.95 570.23 534 570.2 534.01 569.64 533.96 568.61 533.83 567.43 533.57 564.79 532.8 563.09 532.39 562.85 532.36 562.54 532.35 562.32 532.36 562.11 532.43 561.66 532.69 561.53 532.76 561.35 532.82 561.22 532.83 559.55 532.63 559.4 532.59 559.28 532.5 558.87 531.89 558.76 531.75 558.6 531.67 558.42 531.6 550.19 529.87 549.71 529.69 549.28 529.51 548.77 529.19 547.7 528.52 546.99 528.15 546.49 527.92 545.84 527.73 545.03 527.56 538.81 526.31 533.55 525.1 527.32 523.76 521.69 522.44 521.43 522.44 521.31 522.46 521.2 522.51 521.12 522.57 520.81 523.21 520.76 523.28 520.7 523.31 520.61 523.32 520.47 523.31 518.61 522.66 518.57 522.65 518.52 522.67 518.49 522.69 518.46 522.72 518.33 522.92 518.22 523.09 513.96 530.2 511.79 533.81 507.42 541.1 507.64 541.21 508.07 541.4 508.4 541.65 509.04 542.22 511.89 546.08 512 546.24 512.85 547.39 519.97 556.88 523.27 561.34 526.78 566.44 527.47 567.53 527.87 568.23 528.06 568.63 528.21 569.12 528.26 569.7 528.36 572.49 528.16 574.04 527.98 574.6 527.6 575.46 527.11 576.39 524.68 580.16 523.07 582.32 521.75 583.8 519.35 585.95 519.12 586.29 519.01 586.66 519.01 587.1 519.13 587.58 519.33 587.95 520.13 589.22 520.34 589.51 520.44 589.74 520.44 589.96 520.34 590.28 520.24 590.53 518.87 594.22 518.76 594.42 518.58 594.61 518.4 594.74 518.21 594.84 517.94 594.89 516.97 594.89 516.86 594.93 516.75 595.01 516.62 595.1 516.49 595.15 516.31 595.17 516.16 595.18 516.02 595.22 515.91 595.29 515.78 595.47 515.65 595.75 515.55 596.18 515.5 596.43 515.38 596.74 515.13 597.15 514.98 597.42 514.83 597.62 514.69 597.73 514.46 597.82 514.35 597.82 514.15 597.84 513.77 597.86 513.55 597.91 513.32 598.11 512.47 599.06 512.19 599.27 512.16 599.29 511.83 599.51 511.79 599.54 511.36 599.77 510.67 600.02 510.52 600.12 510.36 600.3 510.24 600.54 510.15 600.73 510.12 600.94 510.13 601.12 510.22 601.74 510.34 602.51 510.39 603.04 510.39 603.73 510.37 604.03 510.37 604.95 510.34 605.62 510.24 606.44 510.24 606.45 510.13 606.7 509.94 606.91 509.68 607.17 509.55 607.5 509.53 607.78 509.56 608.04 509.64 608.23 510.52 609.75 510.65 609.98 510.69 610.35 510.66 610.71 510.55 610.97 510.42 611.3 510.26 611.62 510.04 611.88 509.63 612.12 509.07 612.28 508.52 612.36 508.13 612.39 507.88 614.68 507.9 614.85 507.94 615.06 508.06 615.26 508.47 615.81 508.67 616 508.87 616.2 509.15 616.37 509.46 616.5 510.35 616.66 511.06 616.89 511.56 617.07 511.97 617.33 512.31 617.72 514.55 621.58 516.16 624.79 516.33 625.16 516.44 625.59 516.64 627.53 516.79 629.69 516.37 634.23 516.42 634.77 516.57 635.72 517.63 641.62 518.61 644.01 518.71 644.43 518.76 644.83 518.69 645.32 518.47 645.83 515.3 650.52 514.15 652.75 513.86 653.15 513.24 653.84 512.52 654.53 511.15 655.78 509.73 656.98 508.49 657.93 507.5 658.57 506.24 659.23 501.43 661.14 496.66 663.17 495.81 663.48 495.22 663.65 493.93 663.92 493.04 664.05 492.23 664.16 491.34 664.25 490.45 664.26 489.69 664.26 489.18 664.08 488.6 663.93 488.19 663.83 487.89 663.83 487.71 663.93 487.68 664.14 487.62 664.46 487.62 664.7 487.39 664.98 485.62 666.34 485.6 666.35 485.3 666.43 485.23 666.44 484.69 667.24 484.22 667.94 Z"/>
</g>
</svg>