<?xml version="1.0"?>
<svg xmlns="http://www.w3.org/2000/svg" version="1.2" baseProfile="tiny" width="800" height="1043" viewBox="0 0 800 1043" stroke-linecap="round" stroke-linejoin="round">
<g id="สิงห์บุรี">
<path d="M 435.61 888.75 431.04 887.33 430.38 887.12 428.69 886.64 427.58 886.27 425.89 885.68 425.11 885.41 424.94 885.35 423.72 884.81 423.57 884.75 422.9 884.39 422.45 884.15 421.83 883.8 421.55 883.6 421.44 883.46 421.39 883.31 421.33 883.15 421.34 882.75 421.32 881.38 421.32 879.78 421.31 878.83 421.34 878.43 421.38 878.15 421.43 877.88 421.5 877.62 421.68 877.27 421.88 876.89 421.98 876.72 422 876.56 422.02 876.39 422.01 876.2 421.94 875.99 421.87 875.82 421.79 875.59 421.61 875.15 421.43 874.82 421.2 874.54 420.88 874.18 420.61 873.89 420.43 873.71 420.1 873.39 419.89 873.17 419.77 872.99 419.68 872.72 419.59 872.39 419.4 871.27 419.34 871 419.26 870.71 419.17 870.58 419.01 870.44 418.8 870.33 418.61 870.28 418.41 870.27 418.14 870.31 418.13 870.32 417.89 870.4 417.19 870.67 416.33 871.09 416.09 871.16 415.92 871.17 415.77 871.14 415.64 871.09 415.5 871 415.4 870.89 415.34 870.83 415.07 870.44 414.63 869.6 414.28 868.79 413.89 867.98 413.77 867.72 413.36 866.87 412.76 865.76 412.4 865.16 412.06 864.74 411.67 864.36 411.36 864.12 411.19 864.03 411.14 864 410.93 863.92 410.62 863.85 410.37 863.84 409.85 863.86 409.83 863.86 408.87 863.9 408.29 863.91 407.82 863.88 407.45 863.81 407.14 863.67 406.79 863.49 406.78 863.48 406.53 863.28 406.42 863.19 405.79 862.75 405.39 862.49 405.19 862.4 404.92 862.26 404.58 862.13 404.11 862 403.59 861.89 403.02 861.82 402.47 861.75 402.08 861.69 401.86 861.58 401.71 861.41 401.63 861.06 401.53 860.31 401.52 859.91 401.57 859.6 401.64 859.3 401.79 858.98 402.09 858.5 402.52 857.91 402.62 857.8 402.98 857.35 403.3 856.95 403.52 856.44 403.72 855.81 403.87 855.04 404.19 852.54 404.24 851.82 404.26 851.48 404.23 851.11 404.15 850.82 403.97 850.57 403.76 850.4 403.43 850.24 403.37 850.22 403.06 850.11 402.65 850.02 402.2 849.95 401.72 849.91 401.37 849.84 401.31 849.83 400.95 849.66 400.71 849.45 400.42 849.12 399.3 847.73 398.91 847.32 398.5 847.06 397.97 846.76 397.89 846.72 397.62 846.57 397.21 846.26 396.9 845.97 396.7 845.65 396.7 845.64 396.54 845.24 396.45 844.67 396.35 843.53 396.28 842.75 396.21 842.21 396.1 841.8 396.04 841.64 395.88 841.22 395.32 840.13 394.44 838.77 393.5 837.44 393.03 836.87 393.01 836.84 392.48 836.24 392.11 835.8 391.78 835.35 391.75 835.31 391.42 834.81 390.99 834.25 390.43 833.71 389.88 833.29 389.64 833.17 389.47 833.09 388.95 832.87 388.3 832.65 387.05 832.27 386.36 831.97 385.8 831.69 385.32 831.32 384.78 830.89 384.36 830.55 383.57 830 383.24 829.89 383 829.88 382.71 829.9 381.75 830.39 380.95 830.89 380.34 831.4 379.61 832 378.61 832.92 377.97 833.36 377.91 833.39 376.95 833.82 375.6 834.39 374.67 834.68 371.59 835.23 369.06 835.57 368.26 835.75 367.57 835.95 366.85 836.18 366.76 836.21 365.09 836.75 362.57 837.65 360.66 838.29 358.69 838.77 358.43 838.83 358.05 838.92 357.65 839.02 356.39 839.28 355.69 839.47 355.13 839.63 353.88 840.02 353.17 840.24 353.1 840.26 352.69 840.38 351.7 840.64 350.53 840.85 350.16 840.89 349.93 840.87 349.53 840.75 349.36 840.7 348.79 840.53 348.29 840.44 347.91 840.4 347.38 840.4 346.57 840.44 345.57 840.47 344.64 840.54 341.98 840.86 340.87 840.97 340 841.11 339.38 841.26 339.05 841.39 338.65 841.59 338.4 841.74 338.33 841.78 338.2 841.86 337.58 842.27 337.07 842.67 336.61 843.06 335.82 843.82 335.68 844 335.55 844.21 335.37 844.6 335.02 845.32 334.96 845.44 334.8 845.69 334.54 846.07 334.32 846.31 334.03 846.48 333.69 846.65 333.47 846.75 333.79 847.48 333.86 847.66 334.19 848.21 334.44 848.51 334.71 848.76 335.01 849.02 335.29 849.22 335.52 849.36 335.82 849.53 336.49 849.85 337.77 850.42 339.02 850.84 339.65 851.04 340.4 851.16 340.61 851.19 340.7 851.22 340.88 851.34 341.12 851.45 341.59 851.64 342.13 851.87 342.57 852.06 343.04 852.29 343.34 852.46 343.56 852.6 343.88 852.84 344.36 853.24 344.81 853.61 345.15 853.91 345.4 854.19 345.6 854.44 345.74 854.65 345.85 854.86 346.02 855.21 346.2 855.71 346.37 856.3 346.56 856.81 346.63 857.07 346.69 857.31 346.7 857.42 346.69 857.73 346.67 858.08 346.68 858.61 346.7 859.34 346.71 859.8 346.68 860.21 346.65 860.6 346.6 861.1 346.59 861.16 346.5 861.67 346.39 862.21 346.31 862.48 346.24 862.66 346.18 862.76 346.12 862.81 346.01 862.87 345.82 862.95 345.28 863.15 344.83 863.33 344.75 863.35 344.43 863.46 343.67 863.69 342.03 864.28 340.94 864.69 339.7 865.15 339.23 865.25 337.98 865.28 336.3 865.39 335.18 865.47 333.32 865.61 332.05 865.73 331.39 865.79 330.59 865.92 328.83 866.11 327.71 866.21 326.93 866.22 325.39 866.18 324.13 866.17 323.62 866.16 323.21 866.2 322.74 866.29 322.18 866.42 321.62 866.55 321.19 866.68 320.14 866.97 319.61 867.09 319.21 867.12 318.79 867.1 318.31 867.07 317.34 866.89 316.65 866.74 316.07 866.54 315.65 866.37 315.18 866.06 314.91 865.89 314.67 865.68 314.39 865.39 314.04 864.9 313.54 864.21 312.79 863.27 312.48 862.93 312.16 862.7 311.73 862.5 311.31 862.35 310.93 862.25 310.48 862.18 310.11 862.16 309.59 862.17 309.11 862.19 308.58 862.25 308.24 862.3 307.8 862.44 307.42 862.59 306.43 863.13 305.75 863.51 305 863.86 304.38 864.2 303.88 864.49 303.5 864.78 303.18 865.09 302.52 865.79 302.18 866.19 302 866.55 301.91 866.85 301.86 867.16 301.82 867.82 301.8 868.22 301.8 868.43 301.79 869.15 301.79 869.3 301.77 869.49 301.69 869.69 301.07 870.91 300.93 871.16 300.44 871.89 300.16 872.31 299.69 872.93 299.17 873.56 298.94 873.83 298.69 874.29 298.39 874.98 298.13 875.65 297.84 876.45 297.68 877.03 297.64 877.4 297.57 877.96 297.52 878.93 297.49 879.36 297.5 880.03 297.52 881.06 297.57 881.47 297.7 882.38 298.02 884.25 298.09 884.74 298.09 884.96 298.06 885.2 298 885.39 297.87 885.58 297.71 885.77 297.41 886.01 297.06 886.23 296.82 886.35 296.65 886.37 296.43 886.36 296.17 886.28 295.86 886.15 295.57 886 295.32 885.84 295.07 885.63 294.88 885.44 294.64 885.21 294.25 884.82 293.9 884.5 293.58 884.16 293.15 883.8 292.8 883.56 292.44 883.36 291.97 883.11 291.26 882.76 290.82 882.5 290.44 882.21 290.13 881.9 289.74 881.37 289.39 880.85 288.99 880.22 288.56 879.61 288.2 879.13 287.58 878.46 287.06 877.97 286.24 877.2 285.58 876.63 284.95 876.12 284.12 875.52 283.71 875.23 283.18 874.92 282.31 874.52 281.29 873.98 280.05 873.36 278.85 872.83 277.9 872.42 276.68 871.92 275.88 871.57 275 871.2 273.67 870.61 272.82 870.24 272.43 870.12 271.91 869.96 271.28 869.78 270.3 869.56 269.71 869.41 269.22 869.26 268.91 869.12 268.65 868.96 268.41 868.8 267.91 868.43 267.35 867.99 267.11 867.81 266.73 867.56 266.36 867.38 265.95 867.17 265.21 866.88 264.14 866.44 263.19 866.05 261.82 865.52 260.89 865.15 259.66 864.66 258.91 864.36 258.26 864.1 257.9 863.97 257.37 863.8 257 863.71 256.24 863.6 255.29 863.41 254.67 863.25 254.26 863.13 253.78 862.94 253.34 862.79 252.85 862.62 252.41 862.44 252.15 862.32 251.94 862.2 251.74 862.06 251.43 861.83 251.04 861.46 250.46 860.91 250.04 860.49 249.49 859.97 248.82 859.28 248.39 858.86 248.09 858.53 247.92 858.31 247.7 857.98 247.38 857.5 246.78 856.6 246.29 855.85 245.93 855.33 245.41 854.56 244.99 853.85 244.57 853.25 244.18 852.6 243.84 852.08 243.61 851.67 243.41 851.32 243.2 850.94 242.97 850.46 242.79 850.02 242.61 849.59 242.43 849.12 242.24 848.67 241.92 848.02 241.71 847.58 241.62 847.33 241.5 846.88 241.37 846.19 241.22 845.47 241.14 844.89 241.11 844.72 240.94 843.77 240.86 843.32 240.77 842.98 240.67 842.65 240.58 842.4 240.25 841.75 239.8 841.04 239.4 840.54 238.91 840.04 238.35 839.47 237.93 838.96 237.81 838.78 237.54 838.35 237.1 837.66 236.13 838.17 235.93 838.26 235.4 838.53 234.58 838.94 234.35 839.06 234.32 839.12 234.28 839.25 234.18 839.56 234.09 839.89 233.96 840.25 233.8 840.59 233.69 840.83 233.63 840.93 233.55 840.98 233.22 841.1 232.61 841.28 231.91 841.49 231.19 841.73 230.64 841.93 230.02 842.18 228.91 842.64 228.51 842.82 227.99 843.01 227.02 843.32 226.48 843.51 226.26 843.58 226.11 843.67 225.8 843.86 225.37 844.13 225.1 844.32 224.73 844.61 224.07 845.14 223.47 845.64 223.15 845.92 222.96 846.1 222.58 846.5 222.53 846.55 222.23 846.86 221.92 847.06 221.61 847.24 221.39 847.33 221.04 847.45 220.88 847.47 219.98 847.54 219.13 847.54 218.82 847.53 218.1 847.39 217.65 847.31 217.48 847.27 217.22 847.18 216.97 847.1 216.82 847.04 216.69 846.97 216.58 846.9 216.52 846.86 216.36 846.76 216.13 846.62 215.91 846.5 215.73 846.42 215.56 846.36 215.19 846.23 214.5 845.96 214.28 845.89 214.08 845.86 213.89 845.86 213.61 845.86 212.98 845.85 211.97 845.83 211.2 845.79 210.85 845.79 210.49 845.8 210.16 845.82 209.95 845.82 209.71 845.79 209.7 845.79 209.49 845.75 209.48 845.75 209.13 845.69 208.89 845.63 208.5 845.53 208.21 845.44 207.9 845.37 207.69 845.34 207.53 845.33 207.33 845.36 207.12 845.41 206.96 845.47 206.7 845.56 206.28 845.72 205.72 845.93 205.36 846.05 205.22 846.07 205.1 846.08 204.97 846.06 204.56 845.97 204.16 845.89 203.8 845.81 203.52 845.77 203.11 845.74 202.52 845.67 201.92 845.62 201.57 845.6 201.37 845.61 201.16 845.67 200.59 845.86 200.24 845.99 199.73 846.16 199.34 846.27 199.14 846.3 198.8 846.3 198.32 846.35 197.65 846.39 196.85 846.46 196.51 846.52 196.11 846.58 195.85 846.65 195.4 846.8 194.84 847.01 194.39 847.18 194.09 847.29 193.88 847.36 193.64 847.41 193.27 847.46 192.78 847.48 192.33 847.49 192.05 847.5 191.82 847.55 191.61 847.62 191.48 847.69 191.29 847.85 189.79 847.5 188.6 847.19 187.92 847.05 187.73 846.91 187.65 846.35 187.6 846.09 187.39 845.02 187.36 844.76 187.27 844.65 187.11 844.58 185.12 844.33 184.97 844.29 184.92 844.14 184.83 842.85 184.79 842.1 184.77 841.88 184.71 841.79 184.49 841.7 183.94 841.63 182.88 841.5 182.07 841.43 181.84 841.48 181.05 841.71 180.14 841.98 179.35 842.16 179.13 842.19 178.93 842.14 178.41 841.82 177.38 841.1 176.1 840.2 175.46 839.72 174.92 839.11 174.22 838.27 173.81 837.89 172.63 837.05 171.99 836.67 171.01 836.05 169.82 835.27 169.43 835.02 169.27 834.95 169 834.95 168.37 834.91 166.62 834.89 165.4 834.89 165.29 834.95 165.17 835.05 165.05 835.11 164.81 835.14 164.48 835.23 164.21 835.27 163.88 835.37 163.56 835.38 162.98 835.4 162.8 835.43 162.7 835.5 162.6 835.69 162.6 835.92 162.56 836.19 162.49 836.41 162.43 836.49 162.31 836.55 161.79 836.61 160.72 836.73 160.58 836.75 160.44 836.84 160.25 837 159.2 837.82 158.78 838.11 158.69 838.21 158.65 838.3 158.65 838.59 158.7 840.1 158.7 840.66 158.7 840.72 158.7 840.93 158.65 841.06 158.55 841.14 158.43 841.21 158.06 841.26 157.64 841.31 157.33 841.33 157.08 841.34 156.93 841.37 156.72 841.45 156.59 841.5 156.41 841.58 155.08 841.68 151.63 842.07 149.32 842.29 147.15 842.49 146.29 842.58 145.18 842.72 143.98 843.03 141.37 843.73 140.56 843.97 139.14 844.39 135.06 845.6 133.45 846 130.55 846.94 128.54 847.52 127.67 847.7 126 848 125.65 848.04 125.22 848.01 124.37 847.98 123.61 847.94 122.98 847.99 122.37 848.07 119.54 848.71 117.1 849.21 116.9 847.6 116.67 846.65 116.25 845.53 116.11 845.25 115.87 844.78 115.86 844.77 115.83 844.72 115.8 844.66 115.66 844.46 115.25 843.89 114.57 843.16 114.03 842.68 113.37 842.23 112.89 842.03 112.68 841.94 112.48 841.85 111.96 841.73 111.86 841.71 111.26 841.65 110.72 841.64 110.09 841.72 109.17 841.95 109 841.99 105.91 842.81 104.35 843.22 103.74 843.38 103.58 843.42 103.32 843.46 102.48 843.56 101.49 843.69 98.87 844.24 98.65 844.27 98.3 844.32 97.99 844.36 97.27 844.38 96.65 844.36 96.49 844.34 96.08 844.28 95.66 844.16 95.35 844.07 94.48 843.61 93.9 843.18 93.77 843.08 93.48 842.8 92.81 842.14 91.73 840.95 91.23 840.36 90.82 839.73 90.52 839.21 90.41 839.01 90.2 838.6 90.2 838.58 89.66 836.85 89.63 836.75 89.54 836.38 89.45 836.05 89.42 835.9 89.31 835.31 89.07 833.95 88.82 832.55 88.43 830.05 88.2 828.88 87.79 827.3 87.58 826.47 87.18 824.88 87.06 823.95 87.04 823.7 87.01 823.33 87.05 821.15 87.05 820.98 87.05 820.05 86.99 819.72 86.98 819.66 86.86 819.27 86.67 818.97 86.44 818.7 86.1 818.43 85.72 818.21 85.4 818.09 85.15 818.06 84.89 818.04 84.44 818.06 84.33 818.06 82.65 818.24 82.2 818.29 82.02 818.29 81.51 818.31 81.2 818.29 81.06 818.28 77.9 817.89 76.91 817.74 76.12 817.61 74.86 817.42 71.23 816.85 70.24 816.66 66.99 816.05 64.74 815.52 64.08 815.33 63.75 815.23 63.69 815.21 63.67 815.2 63.22 815.03 62.88 814.9 62.64 814.78 61.76 814.32 61.7 814.28 60.84 813.77 60.74 813.71 60.66 813.64 60.31 813.3 59.99 812.91 59.93 812.84 59.65 812.32 59.51 811.96 59.43 811.58 59.39 811.26 59.43 810.77 59.5 810.47 59.51 810.44 59.59 810.09 59.81 809.35 60.2 808.12 60.2 808.1 60.26 807.91 60.63 806.71 60.81 806.12 61.24 804.54 61.29 804.35 61.62 803.07 61.84 802.37 61.93 802.11 62.03 801.8 62.23 801.23 62.5 800.5 62.77 799.81 62.81 799.73 63.13 799.04 63.7 797.86 64.27 796.56 64.71 795.52 65.36 794.16 66.09 792.73 66.2 792.53 66.93 791.22 66.94 791.19 67.27 790.61 67.3 790.56 67.32 790.54 67.37 790.42 67.6 789.95 68.17 788.55 68.42 787.85 68.73 786.99 69.12 786.02 69.5 785.23 70.14 784.03 70.69 783.02 71.12 782.01 71.43 781.17 71.48 781 71.56 780.76 72.3 778.74 72.38 778.34 72.41 778.02 72.4 776.66 72.39 775.76 72.38 774.95 72.45 773.46 72.48 773.17 72.61 771.57 72.63 771.24 72.7 770.29 72.7 770.17 72.71 769.74 72.71 769.49 72.65 768.96 72.57 768.28 72.2 767.13 72.11 766.85 72.04 766.58 71.36 763.18 71.13 761.72 71.02 760.19 71.01 760 71 759.91 71 759.11 71.05 757.75 71.18 756.7 71.33 755.49 71.43 754.81 71.66 753.17 71.78 752.35 71.87 751.99 72.14 750.8 72.23 750.48 72.3 750.24 72.59 749.35 72.73 748.94 73.24 747.79 74.1 746.34 75.03 745.13 75.22 744.88 75.24 744.86 76.33 743.54 77.04 742.77 77.64 742.13 78.38 741.27 78.74 740.85 78.78 740.81 79.68 739.77 80.92 738.43 81.03 738.31 81.09 738.25 82.75 736.94 84.5 735.75 86.3 734.39 86.31 734.39 86.69 734.1 86.78 734.02 86.82 733.98 88.15 732.69 88.42 732.42 88.61 732.24 90.08 730.63 91.46 729.28 91.7 729.04 91.73 729.02 93.29 727.5 93.47 727.32 93.87 726.92 95.01 725.77 95.6 725.02 95.73 724.83 95.73 724.82 96.16 724.21 96.34 723.81 96.44 723.59 96.51 723.38 96.75 722.73 96.88 722.38 97.11 721.43 97.15 721.1 97.2 720.55 97.19 720.47 97.12 719.74 97.1 719.64 96.97 718.96 96.93 718.76 96.82 718.34 96.8 718.27 96.68 717.86 96.63 717.7 96.53 717.4 96.18 716.65 95.53 715.57 94.91 714.64 93.7 712.71 92.72 711.38 91.7 709.92 91.68 709.88 91.58 709.69 91.41 709.39 91.13 708.85 91.11 708.79 91.02 708.52 91.02 708.51 90.95 708.23 90.91 707.95 90.88 707.67 90.87 707.38 90.88 707.1 90.9 706.95 90.91 706.81 90.93 706.73 90.94 706.65 90.96 706.53 91.03 706.25 91.12 705.98 91.14 705.94 91.16 705.86 91.26 705.58 91.29 705.5 91.66 704.51 92.16 703.42 92.22 703.33 92.3 703.21 92.31 703.19 92.45 703 93.87 701.66 94.89 700.45 94.98 700.33 95.33 699.87 95.44 699.72 95.56 699.56 95.86 699.02 96.11 698.48 96.23 697.85 96.29 697.27 96.34 696.46 96.38 695.65 96.41 695.11 96.34 693.87 96.24 693.2 96.07 692.53 95.43 690.11 95.04 688.43 94.94 687.83 94.75 686.66 94.61 685.79 94.61 685.78 94.53 685.14 94.4 683.5 94.42 682.92 94.44 682.7 94.48 682.52 94.61 681.93 94.8 681.42 95.1 680.87 95.96 679.82 96.33 679.44 98.13 678.11 99.26 677.24 100.13 676.54 100.52 676.13 100.99 675.52 102.63 673.44 103.22 672.64 103.43 672.16 103.59 671.77 103.66 671.58 103.71 671.47 103.82 671.07 103.84 670.98 103.86 670.92 103.97 670.29 104.05 669.73 104.05 669.27 104.05 668.85 104.08 668.35 104.1 668.14 104.14 667.49 104.15 666.96 104.1 666.49 103.98 665.78 103.95 665.63 103.92 665.54 103.77 664.87 103.62 664.13 103.6 664.01 103.58 663.9 103.51 663.69 103.37 663.26 102.99 662.32 102.92 662.16 102.57 661.53 101.76 660.34 101.37 659.88 100.25 658.98 100.02 658.82 98.58 657.92 97.56 657.09 95.48 655.34 95.2 655.06 94.34 654.34 93.19 653.12 92.4 652.18 91.69 651.42 91.33 651.03 90.77 650.34 90.53 649.94 90.41 649.68 90.35 649.54 90.26 649.03 90.26 648.5 90.27 648.1 90.32 647.89 90.62 646.65 90.84 645.76 90.87 645.63 90.88 645.59 91.05 645.16 91.14 644.94 91.28 644.69 91.55 644.21 91.93 643.63 92.18 643.31 92.35 643.15 92.69 642.82 93.12 642.46 95.04 640.91 95.31 640.68 95.72 640.35 95.81 640.28 96.25 639.96 97.73 638.88 99.07 637.9 99.15 637.84 100.21 636.9 100.24 636.87 100.36 636.74 100.81 636.16 101.14 635.64 101.54 634.99 101.92 634.27 102.2 633.63 102.38 633.27 102.72 632.78 103.01 632.37 103.58 631.74 104.12 631.24 104.16 631.2 104.43 630.94 104.7 630.77 105.46 630.27 105.78 630.12 106.06 629.99 106.46 629.8 106.88 629.65 107.96 629.35 108.24 629.27 108.51 629.17 108.56 629.15 109.29 628.72 109.31 628.71 109.4 628.61 109.81 628.17 109.85 628.13 109.95 628.02 110.02 627.94 110.7 626.92 111.03 626.16 111.52 624.71 111.85 622.83 111.97 622.09 112 621.12 111.99 620.91 111.95 620.28 111.91 619.71 111.89 619.38 111.87 618.15 111.87 617.93 111.87 617.59 111.85 617.41 111.79 617.03 111.77 616.93 111.48 616.24 111.03 615.48 110.63 614.97 110.55 614.91 110.41 614.79 110.04 614.47 109.28 614 109 613.88 108.51 613.66 108.19 613.55 107.95 613.47 107.58 613.4 107.46 613.39 107.3 613.38 106.46 613.32 106.21 613.3 106.01 613.3 104.98 613.28 104.9 613.28 104.56 613.27 104.5 613.27 103.37 613.18 103.12 613.13 101.88 612.88 101.1 612.74 99.16 612.47 98.34 612.35 97.44 612.18 96.9 612.09 96.49 612.11 96.19 612.18 95.85 612.27 95.43 612.39 95.42 612.4 95.29 612.44 95.08 612.53 94.71 612.69 93.95 613.02 93.26 613.32 93.18 613.35 93.09 613.38 92.01 613.82 91.75 613.92 91.25 614.12 91.04 614.23 90.23 614.65 90 614.77 89.62 614.95 88.61 615.45 88.5 615.51 88.45 615.54 88.13 615.75 87.63 616.08 86.93 616.58 86.79 616.68 86.56 616.84 85.9 617.31 85.36 617.62 85.26 617.67 85.19 617.7 84.64 617.93 84.41 617.99 83.53 618.24 82.76 618.39 82.69 618.41 82.49 618.44 82.41 618.46 81.77 618.47 81.51 618.44 81.45 618.43 81.44 618.43 80.4 618.36 80.35 618.36 80.23 618.35 78.62 618.15 77.66 618 77.49 617.97 76.95 617.83 76.72 617.77 76.51 617.72 75.47 617.36 75.17 617.24 74.68 617 73.63 616.32 72.59 615.48 72.31 615.17 71.97 614.79 71.39 614.15 71.24 613.99 70.47 613.03 70.4 612.95 70.34 612.88 69.72 612.01 69.44 611.55 69.26 611.25 69.1 610.97 68.6 610.07 68.42 609.62 68.4 609.56 68.29 609.27 68.1 608.59 68.01 608.09 67.82 606.12 67.75 605.34 67.63 604.03 67.59 603.77 67.45 602.6 67.41 602.3 67.28 601.46 67.26 601.4 67.08 600.6 66.97 600.11 66.9 599.85 66.89 599.8 66.65 598.95 66.44 598.24 66.19 597.6 65.97 597.11 65.89 596.97 65.62 596.56 65.46 596.27 65.37 596.09 65.24 595.79 65.2 595.6 65.02 594.85 64.97 594.69 64.86 594.28 64.7 593.62 64.66 593.45 64.55 592.62 64.51 592.34 64.51 592.08 64.51 591.87 64.53 591.66 64.55 591.55 64.59 591.15 64.59 590.98 64.55 590.18 64.53 590.08 64.45 589.55 64.45 589.45 64.45 588.43 64.5 588.13 64.52 588.07 64.54 587.94 64.7 587.55 64.7 587.53 64.84 587.2 64.99 586.81 65.02 586.74 65.05 586.68 65.73 585.5 65.76 585.45 66.03 585.04 66.8 584.17 67.06 583.88 67.57 583.46 68 583.19 68.09 583.15 68.12 583.13 68.41 583.01 68.52 582.96 68.71 582.9 69.11 582.78 69.7 582.67 70.88 582.54 71.21 582.52 71.36 582.51 71.74 582.54 71.82 582.54 71.86 582.55 71.93 582.56 73.11 582.71 73.51 582.76 74.13 582.79 74.24 582.8 74.54 582.82 74.72 582.83 75.08 582.83 75.88 582.8 76.5 582.74 76.99 582.64 77.39 582.53 77.74 582.43 77.85 582.39 79.37 581.83 80.07 581.59 80.7 581.41 80.72 581.41 80.8 581.39 81.66 581.24 82.45 581.12 83.03 581.08 83.07 581.08 84.01 581.06 84.75 581.09 85.03 581.11 85.47 581.14 85.92 581.17 86.22 581.15 86.64 581.08 86.82 581.03 87.55 580.83 88.92 580.26 89.35 580.07 89.6 579.89 90.03 579.43 90.45 578.71 90.62 578.37 90.82 577.95 91.27 577.03 91.73 576.13 92.07 575.57 92.29 575.24 92.4 575.09 92.56 574.86 92.66 574.74 93.21 574.1 94 573.36 94.07 573.32 94.42 573.08 94.89 572.83 96.36 572.11 96.76 571.9 97.7 571.38 97.88 571.28 98.37 571.1 98.78 570.99 99.11 570.91 99.3 570.87 100.33 570.71 100.66 570.66 100.96 570.62 101.33 570.56 101.87 570.45 102.49 570.3 102.97 570.17 103.58 570 104.42 569.71 106.07 568.94 106.17 568.89 106.35 568.78 106.88 568.47 106.94 568.45 107.01 568.42 107.59 568.21 107.7 568.17 109.98 567.19 111.29 566.59 111.29 566.57 110.12 563.95 109.77 563.16 109.19 561.86 108.16 559.65 107.52 558.35 106.96 557.3 106.71 556.83 106.43 556.31 106.17 555.81 106.02 555.4 105.95 555.12 105.88 554.78 105.85 554.38 105.85 553.8 105.55 553.87 105.54 553.87 105.52 553.88 105.39 553.92 105.24 553.96 105.07 554.03 105.01 554.07 104.84 554.16 104.49 554.37 104.29 554.48 103.6 554.78 103.39 554.87 103.14 554.98 102.6 554.13 102.59 554.1 101.96 553.41 101.46 552.94 101.36 552.88 98.17 551.11 95.38 549.66 94.6 549.36 93.19 548.92 92.3 548.67 91.63 548.52 91.08 548.47 90.68 548.45 90.27 548.46 89.81 548.59 89.31 548.78 87.57 549.69 83.05 552.04 80.8 553.19 80.47 552.95 80.25 552.86 80.13 552.85 80.01 552.86 79.81 552.91 79.46 553.04 78.97 553.28 78.12 553.71 77.41 554.02 77.04 554.16 76.33 554.36 75.65 554.54 72.42 555.51 67.83 556.87 64.59 557.78 61.45 558.65 58.02 559.57 57.43 559.71 56.84 559.86 56.26 559.98 53.53 560.48 49.86 561.09 48.91 561.26 48.43 561.37 48.09 561.47 47.83 561.56 47.27 561.82 46.02 562.49 43.91 563.43 41.87 564.18 41.56 564.26 40.96 564.42 38.35 564.88 36 565.29 34.98 565.4 34.59 565.45 34.41 565.45 34.2 565.44 34.02 565.41 32.92 565.06 30.65 564.15 29.58 563.71 27.84 562.86 25.91 561.74 22.9 559.93 20.6 558.63 19.43 558.07 18.16 557.51 15.24 556.18 14.29 555.75 14.08 555.64 13.8 555.44 13.49 555.21 13.18 554.9 12.98 554.63 12.79 554.31 12.65 553.98 12.55 553.68 12.5 553.46 12.46 553.19 12.45 552.92 12.48 552.4 12.8 550.27 13.22 547.75 13.26 547.49 13.28 547.3 13.28 547.01 13.25 546.64 13.2 546.41 13.09 545.94 12.42 543.65 12.27 543.15 12.15 542.65 12.07 542.09 12.03 541.69 12.02 539.14 12.08 535.22 12.11 533.8 12.25 531.54 12.48 529.18 12.62 526.89 12.61 525.58 12.61 525.36 12.58 525.17 12.53 524.94 12.41 524.49 12.22 523.98 11.81 523.21 11.37 522.5 10.42 521.08 9.55 519.91 9.01 519.25 8.39 518.57 7.91 518.07 6.97 517.18 6.47 516.74 5.05 515.54 4.2 514.84 3.8 514.46 3.54 514.17 3.11 513.6 2.95 513.31 2.8 512.97 2.66 512.59 2.58 512.33 2.5 511.91 2.45 511.4 2.44 511.14 2.44 510.78 2.44 510.42 2.48 510.03 2.74 508.07 3.25 504.73 3.37 503.76 3.41 503.16 3.41 502.85 3.41 502.54 3.4 502.22 3.17 500.31 2.9 498.55 2.87 498.34 2.82 498.1 2.41 496.66 1.56 493.7 1.42 493.13 1.19 491.7 1.01 489.93 1 489.09 1.02 488.67 1.11 488.07 1.2 487.64 1.3 487.31 1.89 485.69 2.3 484.73 2.54 484.35 2.8 484.05 3.06 483.77 3.36 483.53 3.68 483.32 4.3 483.05 6.28 482.46 7.82 481.94 8.11 481.85 8.63 481.62 9.17 481.37 9.72 481.04 11.02 480.08 12.36 479.09 12.6 478.96 12.79 478.87 12.99 478.8 13.31 478.71 14.5 478.43 18.42 477.65 20.31 477.28 20.61 477.26 20.84 477.24 21.24 477.24 21.53 477.25 23.63 477.43 28.16 477.91 31.51 478.09 31.86 478.08 32.08 478.06 33.07 477.86 33.68 477.71 34.71 477.39 35.7 477.07 38 476.1 39.3 475.39 39.72 475.14 40.69 474.45 42.47 473 43.35 471.98 43.47 471.83 43.55 471.7 43.63 471.51 43.67 471.3 44.14 468.97 44.71 466.1 44.85 465.59 44.98 465.13 45.13 464.7 45.42 463.9 45.59 463.49 46.89 460.79 49.19 456.99 50.98 453.88 51.87 452.35 52.63 450.76 52.89 450.16 53.93 446.78 54.77 443.25 55.04 441.96 55.1 441.65 55.13 441.32 55.2 440.1 55.27 437.74 55.24 436.41 55.24 436.38 59.5 435.52 59.66 435.55 59.79 435.72 60.16 436.73 64.03 436.36 70.2 435.71 72.53 435.73 76.05 435.86 81.68 435.89 88.07 436.05 91.89 436.73 99.69 436.78 144.23 440.29 144.48 440.47 144.7 440.69 144.84 440.83 145.22 441.07 145.56 441.21 145.89 441.27 146.27 441.27 146.59 441.29 146.98 441.47 147.08 441.78 147.19 442.2 147.33 442.53 147.35 442.98 147.31 443.37 147.45 443.59 147.65 443.81 148.03 443.97 148.17 444.07 148.27 444.5 148.29 444.81 148.32 445.43 148.32 445.62 148.28 446.05 148.46 446.5 149.03 446.62 149.35 446.58 149.47 446.56 149.49 446.56 149.77 446.57 149.79 446.57 149.78 446.58 149.96 446.72 150.14 447.17 150.2 447.28 150.39 447.59 151.35 448.71 151.85 448.89 152.19 448.89 152.46 448.89 153.11 449.11 154.14 449.81 155.07 450.34 156.08 450.96 158.25 451.71 158.97 451.79 159.48 451.72 160.3 451.83 160.7 452.03 161.16 452.26 161.8 452.54 162.35 452.54 162.38 452.54 163.13 452.55 163.71 452.55 164.1 452.86 164.12 453.09 164.13 453.18 164.17 453.7 164.09 454.4 163.87 455.47 164.62 455.61 164.82 455.65 166.18 455.91 166.98 456.07 168.77 456.41 170.65 456.77 175.36 457.66 180.21 458.43 182.62 458.63 184.6 458.65 185.79 458.67 186.81 458.64 188.07 458.59 188.25 458.59 189.14 458.55 190.33 458.47 191.28 458.4 192.9 458.32 193.29 458.3 195.12 458.19 195.93 458.22 196.97 458.43 198.26 458.73 199 458.99 199.37 459.14 199.68 459.35 200.31 459.95 200.37 460.02 200.8 460.44 201.08 460.66 201.42 460.9 201.45 460.92 202.07 461.4 202.59 460.9 203.4 460.17 203.95 459.67 205.59 458.31 207.92 456.42 209.64 454.85 210.35 454.26 210.74 453.99 211.35 453.61 212.04 453.16 212.72 452.56 212.89 452.34 213.13 452.04 213.28 451.73 213.42 451.37 213.51 450.77 213.52 450.52 213.53 450.24 213.4 449.07 213.39 448.99 213.17 447.64 212.99 446.3 212.92 445.76 214.05 445.75 214.69 445.77 214.99 445.78 216.2 445.77 217.42 445.72 218.45 445.59 219.41 445.39 219.96 445.28 220.48 445.25 221.38 445.28 222.11 445.22 222.58 445.16 222.86 445.07 223.37 444.8 223.76 444.59 224.19 444.33 224.45 444.18 224.66 444.14 225.1 444.17 225.85 444.27 226.37 444.32 226.59 444.29 226.83 444.22 227.04 444.24 227.37 444.3 227.67 444.31 228.25 444.33 229.07 444.35 229.73 444.33 230.35 444.28 231.04 444.13 232.01 444 232.52 443.84 233.43 443.45 234 443.09 234.57 442.82 234.97 442.68 235.18 442.68 235.42 442.73 235.8 442.85 236.24 442.91 236.88 442.97 237.48 443.05 237.77 443.1 238.02 443.22 238.3 443.33 238.67 443.42 239.2 443.4 239.9 443.41 240.26 443.45 240.55 443.54 240.85 443.67 241.38 443.79 242.12 443.9 242.69 444.05 243.31 444.14 243.71 444.15 244.1 444.07 245.07 443.77 245.56 443.59 247.07 442.89 249.41 441.72 250.94 441.22 252.29 440.78 252.6 440.64 253.54 440.23 255.37 439.37 255.82 439.13 256.08 438.95 257.04 438.2 257.68 437.68 258.49 437.05 259.29 436.52 260.27 435.8 261.21 435.11 262.15 434.47 263.66 433.53 264.08 433.33 264.5 433.2 265.91 432.97 267.08 432.85 267.69 432.75 268.62 432.61 270.07 432.37 271.15 432.15 271.88 431.97 272.79 431.69 273.88 431.32 274.62 431.02 274.75 430.92 274.86 430.8 275.04 430.66 275.41 430.46 276.66 429.88 277.44 429.5 278.02 429.18 278.44 428.98 278.74 428.85 278.45 428.26 278.28 427.96 278.13 427.76 278 427.64 277.81 427.51 277.44 427.31 277.03 427.07 276.54 426.8 276.25 426.6 276.1 426.48 275.94 426.29 275.66 425.8 275.46 425.37 275.36 425 275.31 424.73 275.32 424.53 275.37 424.29 275.46 424.12 275.72 423.58 275.99 422.98 276.1 422.51 276.18 422.12 276.23 421.57 276.29 420.91 276.34 420.6 276.43 420.43 276.54 420.28 276.69 420.2 277.07 420.11 277.25 420.04 277.42 419.92 277.55 419.75 277.64 419.58 277.72 419.35 277.77 419.1 277.78 418.73 277.7 418.17 277.63 417.71 277.56 417.47 277.47 417.33 277.37 417.15 277.31 416.93 277.2 416.34 277.06 415.87 276.91 415.29 276.89 414.83 276.93 414.19 277.05 413.25 277.11 412.71 277.08 412.47 277.06 412.25 276.92 411.95 276.78 411.61 276.73 411.5 276.54 410.81 276.3 409.84 276.24 409.2 276.25 408.46 276.31 407.56 276.28 406.93 276.2 406.2 276.15 405.46 276.12 405.12 276.09 404.76 275.99 404.28 275.89 403.86 275.88 403.49 275.97 402.94 276.14 402.06 276.18 401.44 276.1 400.59 275.92 399.27 275.57 397.3 275.29 395.72 275.2 395.42 275.29 395.21 277.71 394.32 278.34 394.12 278.38 393.99 278.08 393.15 277.46 391.54 277.42 391.12 277.36 390.78 276.59 388.38 276.19 386.39 276.07 386.29 275.94 386.29 275.48 386.41 275.37 386.33 275.32 384.41 275.2 382.83 275.38 381.5 275.47 380.32 275.47 380.13 275.58 380.13 276.28 380.16 277.14 379.83 277.86 379.32 279.54 378.47 280.99 377.89 281.36 377.78 283.51 377.19 284.73 376.64 285.84 376 285.84 375.89 283.96 374.28 283.21 373.41 282.61 371.96 282.53 370.82 282.3 370.04 282 369.55 281.35 368.98 280.92 368.81 280.57 368.8 279.51 368.84 279.07 368.75 278.9 368.5 277.97 364.28 278.15 363.99 278.28 363.63 278.22 363.17 277.94 362.17 279.63 362.25 279.31 361.38 278.26 360.07 279.33 359.25 278.21 357.27 277.86 356.71 276.3 354.22 274.67 351.49 271.48 346.15 271.4 345.65 271.45 344.64 271.85 342.68 272.09 340.98 272.54 338.51 272.83 333.59 271.32 333.1 270.08 332.65 268.61 332.08 267.65 331.66 266.98 331.57 266.29 331.52 265.62 331.77 264.93 332.1 264.21 333 262.69 335.06 262.13 335.96 261.63 336.4 260.87 336.94 260.27 337.12 259.62 337.2 258.74 337.31 257.86 337.35 256.55 337.43 255.63 337.51 255.14 337.54 254.83 337.56 253.97 337.62 252.4 337.73 252.06 337.74 251.27 337.8 250.94 337.8 250.6 337.78 250.25 337.74 249.95 337.7 249.61 337.65 249.27 337.57 248.88 337.47 248.55 337.37 248.14 337.22 247.88 337.11 247.23 336.78 246.75 336.52 246.02 336.16 245.21 335.75 244.86 335.56 244.63 335.41 244.34 335.12 244.05 334.77 243.97 334.64 243.86 334.44 243.78 334.27 243.73 334.11 243.66 333.85 243.61 333.59 243.59 333.35 243.59 333.1 243.62 332.63 243.66 331.93 243.72 330.9 243.8 330.4 243.94 329.57 244.15 328.6 244.39 327.53 244.64 326.47 244.76 325.93 244.54 325.88 244.21 325.88 243.99 325.87 243.83 325.85 243.74 325.81 243.71 325.76 243.72 325.68 243.79 325.48 243.83 325.29 243.85 325.07 243.82 324.82 243.69 324.39 243.54 324.01 243.22 323.3 242.82 322.69 242.37 322.1 242.02 321.7 241.63 321.35 241.19 321.04 240.46 320.57 239.73 320.01 239.42 319.65 239.15 319.31 238.9 319.01 238.68 318.81 238.19 318.43 237.35 317.88 235.97 316.95 234.98 316.26 234.6 315.94 234.41 315.72 234.26 315.45 233.95 314.77 233.65 314.12 233.41 313.66 233.05 312.9 232.82 312.28 232.64 311.7 232.3 310.55 232.06 309.86 232.04 309.81 231.82 309.26 231.62 308.85 231.53 308.68 231.11 307.94 230.46 306.84 230.18 306.35 230.04 306.12 229.88 305.83 229.79 305.64 229.73 305.47 229.67 305.1 229.52 304.21 229.31 303.04 229.11 302.15 228.89 301.52 228.88 301.5 228.42 300.22 228.09 299.34 227.94 298.96 227.77 298.38 227.65 297.84 227.61 297.31 227.52 296.18 227.41 295.13 227.26 294.12 227.09 293.1 226.98 292.39 226.91 291.79 226.89 291.44 226.85 290.66 226.81 290.36 226.76 289.94 226.73 289.82 226.62 289.39 226.42 288.9 226.18 288.47 225.87 288.08 225.83 288.02 225.35 287.6 224.63 287.05 223.64 286.39 222.8 285.92 221.79 285.49 220.47 285.02 219.59 284.8 218.7 284.68 218.11 284.64 217.38 284.64 216.39 284.69 215.48 284.77 214.52 284.85 213.77 284.94 213.35 285.01 212.92 285.12 212.9 285.13 212.56 285.23 212.11 285.38 211.66 285.57 211.61 285.59 211.24 285.74 210.85 285.87 210.44 285.95 209.92 286.03 209.16 286.14 208.62 286.25 208.02 286.43 207.41 286.64 207 286.84 206.51 287.09 206.4 287.16 205.87 287.5 205.28 287.9 204.69 288.35 204.12 288.89 203.65 289.43 203.1 290.12 202.71 290.63 202.44 291 202.23 291.37 202.07 291.66 201.85 292.03 201.63 292.46 201.46 292.74 201.29 292.98 201.06 293.26 200.78 293.56 200.31 293.97 199.89 294.32 199.4 294.69 198.87 295.03 198.35 295.28 197.75 295.46 197.01 295.63 196.34 295.71 195.61 295.73 195.06 295.67 194.62 295.56 194.05 295.33 193.14 294.86 192.47 294.46 191.95 294.04 191.69 293.75 191.51 293.44 191.31 292.97 191.15 292.4 190.85 291.32 190.67 290.82 190.47 290.44 190.21 290.08 189.88 289.77 189.41 289.46 188.61 288.98 187.4 288.32 186.05 287.55 185.31 287.1 184.75 286.76 183.64 286.1 182.68 285.61 181.57 285.03 181.11 284.72 181.04 284.68 180.97 284.62 180.38 284.14 179.38 283.29 178.82 282.81 178.58 282.53 178.5 282.39 178.44 282.3 178.42 282.24 178.34 282.01 178.28 281.68 178.28 281.33 178.31 280.76 178.32 280.67 178.38 280.16 178.43 279.72 178.51 279.04 178.64 278.22 178.64 278.21 178.74 277.91 178.75 277.9 178.88 277.64 178.9 277.61 178.96 277.52 179.17 277.19 179.5 276.69 179.82 276.2 180.18 275.51 180.68 274.45 181.17 273.38 181.36 272.8 181.54 272.08 181.65 271.53 181.68 271.38 181.71 271.22 181.79 270.63 181.82 270.22 181.83 269.97 181.83 269.48 181.78 268.99 181.67 268.35 181.59 268.11 181.5 267.95 181.29 267.53 181.07 267.16 180.8 266.76 180.38 266.24 179.86 265.85 179.3 265.49 178.66 265.17 178.21 265.01 177.8 264.94 177.48 264.92 177.12 265.03 176.79 265.2 176.24 265.65 175.94 265.87 175.43 266.24 174.74 266.99 173.57 268.47 173.09 269.1 172.43 270.17 172.06 270.67 171.82 270.82 171.47 270.86 170.89 270.85 169.86 270.79 168.52 270.7 167.26 270.67 166.21 270.66 165.19 270.57 164.28 270.43 163.09 270.21 162.17 269.97 161.59 269.75 160.86 269.27 160.17 268.74 159.71 268.26 159.32 267.79 159.09 267.39 158.99 266.97 158.98 266.51 159.17 265.99 159.47 265.45 159.96 264.95 160.66 264.38 161.55 263.78 162.17 263.38 162.86 263.07 163.67 262.82 164.65 262.45 165.84 262.1 166.29 261.85 167.11 261.28 167.51 260.89 167.77 260.58 167.96 260.27 168.08 259.4 168.2 258.35 168.2 257.73 168.11 257.34 167.84 256.7 167.42 255.78 167.02 254.92 166.58 254.29 166 253.74 165.26 253.32 164.07 252.84 162.5 252.31 161.3 251.85 159.52 251.1 158.5 250.66 157.68 250.41 156.99 250.28 156.44 250.29 155.94 250.31 155.26 250.44 154.23 250.68 153.67 250.84 153.5 251.07 153.37 251.59 153.32 252.13 153.3 252.58 153.36 253.39 153.46 254.48 153.53 255.54 153.49 256.3 153.38 257.09 153.31 257.3 153.03 257.65 152.81 257.92 152.6 258.34 152.52 258.62 152.35 258.76 151.96 258.94 151.47 259.15 150.93 259.35 150.05 259.53 149.25 259.73 148.47 259.81 147.7 259.94 146.89 260.19 145.56 260.46 145.38 260.42 145.3 260.33 145.25 260.02 145.21 259.68 145.11 259.28 144.97 259.05 144.56 258.48 144.04 257.75 143.38 257.13 142.84 256.66 142.43 256.4 142.08 256.3 141.49 255.81 141.23 255.44 140.85 254.88 140.48 254.41 140.18 253.63 139.88 253.23 138.91 252.65 136.99 251.96 136.01 251.61 135.25 251.36 134.54 251.14 133.26 250.8 133.14 250.78 131.81 250.48 130.85 250.32 130.09 250.24 129.17 250.16 128 250.1 126.89 250.09 125.65 250.11 123.63 250.11 122.2 250.12 120.22 250.13 118.03 250.14 116.41 250.16 114.38 250.16 112.66 250.17 110.62 250.17 111.14 249.44 114.93 244.46 112.84 241.88 106.46 234 106.2 234.15 103.64 229.86 105.26 228.48 105.39 228.41 108.88 228.53 109.19 223.76 106.3 223.58 106.47 219.15 106.19 219.14 106.22 214.22 99.6 214.06 99.77 209.29 99.44 209.28 96.89 209.26 97.07 204.38 97.06 199.73 97.06 199.68 138.28 210.49 138.16 215.18 143.67 215.3 143.65 211.4 143.65 210.56 154.52 214.17 155.38 214.36 158.04 214.1 165.15 213.09 167.09 212.71 171.36 211.17 172.95 210.42 176.04 208.27 181.95 203.99 183.83 202.59 185.41 201.14 187.52 198.98 188.92 197.46 190.58 196.03 191.39 195.43 192.7 194.46 192.74 194.11 192.83 193.83 193.09 193.34 193.54 192.42 193.75 191.88 193.91 191.23 194.13 189.87 194.34 188.9 194.6 188.05 194.86 187.41 195.09 187.01 195.33 186.78 195.57 186.66 195.81 186.63 196.09 186.64 197.46 186.77 198.63 186.89 199.64 187.05 200.33 187.14 200.59 187.17 200.78 187.16 200.97 187.12 201.13 187.03 202.67 185.66 203.33 184.96 203.44 184.76 203.47 184.58 203.48 184.39 203.44 184.07 203.39 183.81 203.25 182.74 203.13 181.49 203.12 180.69 203.17 180.3 203.27 180.01 203.58 179.4 203.88 178.87 204.15 178.43 204.57 177.8 204.71 177.52 204.82 177.15 205.19 176.11 205.33 175.8 205.52 175.56 206.26 174.8 206.41 174.6 206.49 174.4 206.52 174.23 206.51 174.01 206.48 173.82 206.44 173.69 206.38 173.55 206.21 173.24 206.06 173.01 205.86 172.79 205.47 172.42 204.92 171.91 204.55 171.48 204.39 171.27 204.24 171 204.08 170.62 203.96 170.42 203.86 170.29 203.7 170.15 203.63 170.04 203.6 169.91 203.58 169.71 203.6 168.74 203.59 166.93 203.48 161.85 203.51 161.56 209.47 161.23 215.44 158.87 235.58 150.07 239.01 148.3 241.66 146.9 242.13 146.61 242.6 146.31 242.95 146.12 243.19 146.04 243.27 146.03 243.43 146.01 243.91 146.08 244.32 146.11 244.56 146.12 244.77 146.05 245.07 145.88 245.62 145.32 246.2 144.7 246.59 144.42 247.45 143.99 249.97 142.67 250.21 142.61 250.4 142.62 250.55 142.69 250.65 142.82 250.96 143.19 251.76 144.09 253.18 145.75 254.84 147.49 254.97 147.6 255.74 148.3 255.96 148.46 256.26 148.67 256.3 148.68 256.39 148.72 256.74 148.86 257.25 148.95 257.67 148.95 258.16 148.87 258.65 148.63 258.94 148.35 259.15 147.95 259.27 147.64 259.33 147.51 259.5 147.27 259.78 147.08 260.17 146.94 260.67 146.87 261.1 146.87 262.67 147 263.46 147.06 263.87 147.05 263.9 147.05 264.36 146.98 265.66 146.61 268.58 145.64 270.6 144.96 271.74 144.67 272.8 144.37 273.82 144.11 275.17 143.88 276.9 143.68 278.19 143.48 278.76 143.39 279.01 143.37 279.19 143.41 279.34 143.53 279.49 143.73 279.64 143.95 279.78 144.13 280.01 144.43 280.28 144.64 280.67 144.86 281.16 145.04 281.18 145.05 281.83 145.22 282.02 145.25 282.81 145.37 283.42 145.42 284.04 145.55 285.47 145.92 287.09 146.4 287.97 146.65 288.58 146.75 289.21 146.81 292.07 146.91 292.18 145.93 292.26 145.19 292.39 144.1 292.65 142.53 292.85 141.5 293.19 140.41 293.88 138.38 294.22 137.26 294.39 136.7 294.67 135.42 294.81 134.1 294.82 132.84 294.67 131.27 294.5 129.83 294.23 128.41 293.9 127.35 293.61 126.6 292.89 125.1 292.25 123.84 291.78 123.04 291.29 122.2 289.82 120.03 288.8 118.57 287.66 117.12 285.95 115.1 285.82 114.95 287.31 113.12 287.7 112.65 287.88 112.42 288.57 111.77 289.39 110.98 290.23 110.3 291.11 109.68 291.15 109.66 292.02 109.14 292.41 108.83 292.63 108.53 292.76 108.21 292.77 107.9 292.73 107.62 292.59 107.4 292.32 107.14 291.99 106.82 291.75 106.51 291.62 106.2 291.57 105.9 291.52 105.44 291.46 105.03 291.41 104.71 291.33 104.44 291.32 104.41 291.19 104.07 291.02 103.72 290.82 103.3 290.78 102.92 290.89 102.55 291.16 102.04 291.31 101.85 291.4 101.78 291.78 101.47 292.14 101.23 292.52 101.06 292.92 100.96 293.23 100.88 293.37 100.85 293.69 100.71 293.92 100.53 294.29 100.11 294.45 99.94 294.91 99.47 295.29 99.13 295.83 98.81 296.56 98.33 297 98 297.37 97.69 297.66 97.34 297.81 97.1 298.18 96.5 298.79 95.37 299.14 94.84 299.42 94.55 299.98 94.18 300.91 93.84 302.45 93.49 302.8 93.37 303.31 93.15 303.75 92.91 304.08 92.67 304.4 92.36 304.85 91.93 305.37 91.51 305.79 91.26 306.29 91.1 306.69 91 307.11 90.96 307.61 91.03 308.21 91.13 308.85 91.23 309.4 91.32 310.04 91.39 310.53 91.38 311.44 91.28 312.49 91.19 313 91.19 313.33 91.25 313.7 91.4 313.72 91.41 314.33 91.73 314.54 91.82 314.73 91.87 314.87 91.86 314.99 91.8 315.09 91.72 315.14 91.56 315.19 91.19 315.28 90.64 315.34 90.49 315.48 90.09 315.71 89.72 315.81 89.55 316.26 89.08 316.56 88.92 316.81 88.87 317.17 88.93 317.47 89.06 318.19 89.45 318.74 89.72 319.02 89.87 319.63 90.13 320.14 90.28 320.64 90.35 321.07 90.41 321.85 90.51 322.26 90.62 322.66 90.8 322.93 90.88 323.2 90.89 323.52 90.83 324.05 90.73 324.51 90.67 325.05 90.64 325.42 90.57 325.85 90.44 326.02 90.35 326.27 90.23 326.84 89.91 327.07 89.77 327.67 89.4 328.09 89.16 328.55 88.96 328.92 88.85 329.78 88.59 331.22 88.22 332.84 87.81 334.28 87.46 335.13 87.24 335.82 87.04 335.87 87.03 336.24 86.93 336.89 86.79 337.3 86.68 337.45 86.63 337.6 86.54 337.79 86.36 337.9 86.24 338.14 85.89 338.24 85.75 338.25 85.74 338.7 85.15 339.05 84.69 339.16 84.59 339.32 84.49 339.5 84.44 339.91 84.39 340.55 84.3 340.86 84.24 341.05 84.18 341.13 84.15 341.17 84.14 341.41 84.04 341.61 83.92 341.71 83.81 341.73 83.79 341.79 83.69 341.85 83.6 341.99 83.37 342.13 83.23 342.3 83.13 342.5 83.04 342.69 82.99 342.81 82.97 343.2 82.89 343.77 82.77 344.74 82.61 345.46 82.47 345.83 82.41 345.96 82.38 346.06 82.34 346.18 82.29 346.3 82.23 346.36 82.21 346.41 82.21 346.45 82.23 346.51 82.29 346.57 82.35 346.61 82.38 346.67 82.39 346.73 82.39 346.77 82.37 346.81 82.33 347.04 81.98 347.32 81.46 347.63 80.88 347.99 80.15 348.14 79.87 348.35 79.48 348.56 79.09 348.63 78.94 348.72 78.72 348.76 78.62 348.87 78.33 349.09 77.84 349.3 77.41 349.36 77.31 349.43 77.22 349.5 77.17 349.6 77.13 350.23 77 350.63 76.91 351.01 76.8 351.32 76.71 351.46 76.67 351.64 76.61 352.17 76.42 352.69 76.21 353.38 75.94 354.31 75.63 355.24 75.36 355.46 75.3 355.76 75.21 356.59 74.97 357.47 74.74 358.36 74.54 359.1 74.36 359.97 74.12 360.63 73.93 361.05 73.8 361.22 73.72 361.31 73.64 361.35 73.56 361.38 73.46 361.38 73.34 361.34 73.05 361.27 72.61 361.21 72.11 361.18 71.78 361.18 71.62 361.19 71.47 361.25 71.24 361.41 70.91 361.66 70.5 361.85 70.26 362.2 69.86 362.58 69.5 363.12 69.01 363.63 68.61 363.93 68.42 364.53 68.17 365.03 67.98 365.84 67.6 366.63 67.24 367.34 66.9 367.9 66.57 368.23 66.35 368.5 66.12 368.94 65.79 369.37 65.48 369.92 65.07 370.51 64.6 371.26 64.05 371.71 63.71 371.83 63.59 372.03 63.39 372.16 63.22 372.33 62.98 372.45 62.83 372.68 62.61 373.06 62.29 373.25 62.16 373.38 62.07 373.64 61.92 373.89 61.75 374.4 61.35 375.1 60.76 375.75 60.22 376.39 59.7 376.91 59.3 377.52 58.87 378.21 58.39 378.68 58.09 379.21 57.78 379.8 57.38 380.35 57 380.6 56.82 381.12 56.44 381.7 56.02 382.22 55.62 382.77 55.18 383 55 383.34 54.69 383.8 54.3 384.34 53.86 385.14 53.25 385.83 52.72 386.46 52.24 387.48 51.49 388.29 50.93 388.99 50.43 389.56 49.99 390.11 49.6 390.94 49.01 391.69 48.46 392.36 47.96 392.95 47.51 393.43 47.12 394.17 46.54 394.81 46.05 395.69 45.4 396.5 44.82 397.19 44.3 398.03 43.67 398.71 43.16 399.44 42.59 400.22 41.99 400.92 41.44 400.94 41.42 401.32 41.15 401.5 41.02 401.67 40.91 401.89 40.75 402.07 40.62 402.31 40.4 402.68 40.05 403.06 39.71 403.48 39.4 404.08 38.94 404.8 38.37 406.08 37.37 407.41 36.33 408.27 35.65 408.5 35.47 409.48 34.7 410.5 33.9 410.87 33.57 411.15 33.28 411.4 32.97 411.7 32.54 411.91 32.3 412.61 31.77 413.91 30.74 414.17 30.52 418.06 27.16 418.69 26.59 420.05 25.25 421.21 24.09 422.62 22.67 423.85 21.39 424.99 20.22 425.87 19.39 426.64 18.8 427.47 18.19 428.55 17.36 429.67 16.48 430.69 15.67 431.1 15.33 431.62 14.9 432.54 14.05 433.78 13.02 434.32 12.56 434.73 12.21 435.4 11.7 436.52 10.96 437.75 10.17 438.03 10 439.2 9.26 440.05 8.72 440.76 8.27 441.43 7.79 442.11 7.28 442.56 6.93 443.1 6.51 443.39 6.34 444.33 5.65 446.24 4.3 447.25 3.59 447.68 3.28 448.08 3 450.16 1.56 450.89 1.07 451.03 1 451.16 1 451.24 1.05 451.69 2.05 453.22 5.37 454.22 7.52 454.47 8 454.63 8.22 454.68 8.34 454.72 8.51 454.64 9 454.22 11.31 454.1 11.9 452.27 22.04 450.69 31.47 449.85 36.1 448.22 44.97 447.68 48.13 447.32 50.26 447.26 51.05 447.31 52.14 447.46 53.16 448.39 55.97 449.13 57.88 451.23 63.05 462.8 68.48 472.25 73.15 477.67 76.94 479.49 78.07 483.26 79.9 486.07 81.02 488.82 82.12 490.57 82.89 493.29 84.09 496.81 85.65 501.24 87.86 504.04 89.25 506.59 91.01 513.73 96.47 520.69 101.56 526.18 105.34 527.9 106.52 532.69 109.69 546.66 119.71 548.87 121.29 549.04 121.42 580.58 144.03 581.02 144.34 583.27 145.96 593.95 153.62 596.91 155.74 604.46 161.15 629.72 178.24 633.09 180.53 633.52 180.11 634.29 179.38 635.05 178.63 635.75 177.99 636.47 177.31 636.56 177.22 641.06 155.89 689.43 170.61 691.16 171.14 691.91 171.96 693.29 173.49 695.03 175.44 696.56 177.14 697.75 178.48 699.02 179.9 700.38 181.41 701.78 182.98 703.64 185.02 704.88 186.39 705.78 187.39 706.45 188.14 707.98 189.8 709.5 191.57 711.18 193.44 712.36 194.78 713.48 196.03 714.9 197.58 716.41 199.24 718.04 201.08 719.81 203.04 721.3 204.75 722.42 206.02 724.18 207.97 725.44 209.37 727.16 211.25 728.51 212.77 729.52 213.92 731.05 215.65 732.68 217.48 734.42 219.41 735.72 220.86 737.59 222.95 738.98 224.46 740.72 226.41 742.12 227.96 743.72 229.75 745.2 231.46 745.63 232.01 746.08 232.63 746.34 232.97 746.77 233.55 747.16 234.17 747.58 234.9 747.95 235.61 748.49 236.69 748.85 237.51 749.2 238.41 749.52 239.32 749.82 240.33 750.1 241.38 750.33 242.47 750.5 243.54 750.57 244.22 750.63 245.09 750.65 246.15 750.65 247.14 750.62 247.97 750.6 248.46 750.54 248.95 750.4 249.9 750.23 250.89 750.05 251.76 749.84 252.56 749.56 253.63 749.22 254.62 748.82 255.68 748.51 256.51 748.1 257.62 747.69 258.67 747.34 259.68 746.86 260.94 746.4 262.2 745.87 263.58 745.38 264.91 744.84 266.42 744.39 267.61 743.79 269.17 743.4 270.22 742.84 271.73 742.34 273.05 741.83 274.39 741.41 275.51 740.91 276.85 740.35 278.33 739.95 279.38 739.37 280.99 738.92 282.2 738.52 283.24 737.96 284.78 737.39 286.26 736.95 287.44 736.58 288.45 736.12 289.63 735.51 291.28 734.96 292.76 734.49 294 734 295.25 733.56 296.47 733.08 297.79 732.63 299.01 732.15 300.27 731.7 301.43 731.28 302.54 730.68 304.05 730.25 305.19 729.87 306.19 729.48 307.2 729.17 308.03 729.03 308.4 729 308.46 728.96 308.5 728.9 308.52 728.83 308.51 728.82 308.51 728.61 308.48 728.33 308.46 727.98 308.48 727.5 308.52 726.7 308.63 726.05 308.72 725.49 308.78 725.22 308.8 724.93 308.8 724.61 308.77 724.21 308.67 723.55 308.45 722.59 308.18 721.47 307.87 720.66 307.6 719.79 307.32 718.95 307.1 718.09 306.94 716.97 306.77 715.33 306.56 712.89 306.35 711.31 306.19 710.35 306.13 710.05 306.11 709.5 306.07 709.14 306.04 708.69 305.99 708.42 305.95 708.26 305.91 708.2 305.89 708.11 305.84 708.08 305.81 708.05 305.79 707.92 305.69 707.78 305.62 707.61 305.57 707.42 305.54 706.37 305.57 706.13 305.55 704.95 305.31 703.27 304.91 702.96 304.88 702.7 304.88 702.25 304.92 701.72 305 701.05 305.16 699.96 305.41 699.75 305.44 699.44 305.43 699.11 305.43 698.82 305.48 697.47 305.77 697.19 305.82 696.9 305.85 696.3 305.85 695.61 305.89 695.03 305.96 694.77 306.04 694.45 306.17 694.1 306.35 693.9 306.43 693.47 306.48 692.92 306.55 692.49 306.65 692.09 306.72 691.77 306.77 691.68 306.79 691.61 306.8 691.63 306.88 691.66 307.07 691.69 307.35 691.78 309.5 691.85 311.38 692.04 314.65 692.44 319.69 692.52 322.89 692.56 323.2 692.69 323.43 692.02 323.7 691.21 324.01 686.66 324.98 685.04 325.48 684.74 325.56 688.93 333.08 691.4 339.26 693.29 343.45 695.05 346.67 696.88 349.44 698.1 351.27 698.52 351.89 698.89 352.85 699.36 354.08 700.01 355.88 700.84 359.61 701.44 364.71 701.53 365.46 701.67 366.58 702.57 373.64 702.96 375.38 704.37 382.31 704.46 383.15 704.44 383.33 704.22 383.5 703.86 383.57 703.29 383.62 701.67 383.66 701.65 383.66 701.25 383.72 701.12 383.76 700.97 383.93 700.96 384.13 701.18 384.93 701.98 387.39 701.99 387.44 702.26 388.63 702.21 388.91 702.12 388.94 700.65 389.48 700.54 389.64 701.39 394.96 701.44 395.55 701.55 396.01 701.52 396.91 701.31 396.93 701.03 397.01 700.93 397.18 700.91 397.25 700.87 397.57 700.88 398.4 700.84 399.53 700.83 400.01 700.79 400.95 700.78 401.29 700.8 401.55 700.97 402.14 701.14 402.97 701.42 404.46 701.67 406.02 701.81 407.19 701.92 408.46 701.99 409.23 702.02 409.66 702 410.39 702.09 410.98 702.21 411.34 702.25 411.69 702.27 412.28 702.89 418.18 703.14 421.07 703.05 425.54 702.83 427.3 702.2 429.16 700.66 436.15 699.3 444.15 698.89 449.74 698.78 451.25 698.55 452.9 697.8 458.43 697.57 464.38 697.34 464.91 697.17 465.25 696.14 466.59 694.88 467.77 694.2 468.35 691.88 469.98 691.03 470.42 688.22 471.86 683.28 473.69 673.85 476.86 673.45 476.99 659.45 482.45 650.29 486.59 645.87 488.68 639.77 491.55 633.41 494.23 625.08 497.51 624.89 497.58 624.88 497.83 624.88 497.92 624.82 498.23 624.63 498.65 623.17 501.13 622.02 503.48 621.76 504.11 621.65 504.37 621.46 505.15 621.64 506.86 621.85 507.96 621.94 508.46 621.99 508.71 622.24 509.48 622.96 511.71 625.56 518.37 626.76 517.24 628.26 520.93 628.59 522.06 628.64 522.69 628.63 523.07 628.56 525.37 628.56 525.48 628.5 526.22 628.51 526.86 628.53 527.48 628.54 527.9 628.72 529.81 628.75 530.16 628.83 530.81 628.88 531.11 628.97 531.46 629.16 532.01 629.17 532.04 629.22 532.17 629.32 532.46 629.37 532.6 629.39 532.74 629.38 532.8 629.38 532.89 629.36 533.19 629.28 533.57 629.1 534.52 629.07 534.8 629.06 534.83 629.06 534.9 629.06 535.11 629.05 535.19 629.05 535.29 629.07 535.51 629.13 535.85 629.17 536.2 629.2 536.68 629.21 537.44 629.22 538.61 629.19 538.7 629.08 538.73 628.69 538.8 628.68 538.81 628.67 538.81 628.28 538.84 628.04 538.86 627.95 538.89 627.87 538.92 627.8 538.96 627.75 539.01 627.72 539.06 627.71 539.08 627.65 539.19 627.59 539.41 627.56 539.5 627.49 539.98 627.48 540.07 627.42 540.3 627.38 540.43 627.19 541.01 627.06 541.33 626.87 541.84 626.72 542.33 626.55 542.99 626.28 543.74 627.03 543.98 628.19 544.26 628.21 544.26 628.26 544.27 628.27 544.28 628.32 544.3 628.36 544.37 628.38 544.43 628.39 544.51 628.26 545.9 628.23 546.26 628.23 546.27 628.19 546.47 628.25 546.64 628.7 547.82 628.74 547.88 628.76 547.99 628.81 548.17 628.83 548.33 628.85 548.44 628.86 548.47 628.87 548.64 628.89 548.85 628.9 549 628.9 549.09 628.91 549.35 628.93 549.61 628.94 549.83 628.97 550.07 628.98 550.4 628.97 550.77 628.97 550.99 629.01 551.37 629.06 551.65 629.11 552.06 629.13 552.36 629.12 552.52 629.11 552.76 629.12 553.04 629.11 553.3 629.1 553.35 629.1 553.38 629.08 553.51 629.05 553.65 629.02 553.76 628.99 553.86 628.93 553.99 628.86 554.11 628.73 554.31 628.6 554.53 628.48 554.79 628.37 555.03 628.35 555.1 628.25 555.36 628.21 555.52 628.19 555.62 628.01 556.41 627.92 556.75 627.84 557.03 627.71 557.45 627.67 557.56 627.59 557.75 627.53 557.91 627.39 558.22 627.24 558.47 627.24 558.48 627.06 558.74 626.96 558.86 626.86 558.98 626.76 559.07 626.66 559.14 627.25 559.91 627.34 560.05 627.41 560.22 627.46 560.37 627.51 560.69 627.51 560.88 627.51 561.19 627.48 561.5 627.46 561.56 627.4 561.77 627.27 562 627.07 562.4 626.95 562.74 626.92 563.08 626.99 563.69 627.03 564.41 627.04 564.78 627.08 565.25 627.09 566.22 627.27 566.28 627.41 566.3 627.71 566.32 628.14 566.3 628.16 566.29 629.43 566.14 629.79 566.09 629.88 566.1 630.24 566.1 630.73 566.14 630.89 566.17 630.99 566.19 631.32 566.26 631.51 566.32 631.82 566.43 632.22 566.6 632.51 566.76 632.89 567.03 632.96 567.09 633.16 567.3 633.39 567.63 633.7 568.16 633.98 568.75 634.11 569.1 634.23 569.5 634.36 570.13 634.45 570.61 634.47 570.75 634.66 572.29 634.76 573.16 634.84 573.82 634.84 574.51 634.8 574.82 634.73 575.31 634.72 575.39 634.64 575.67 634.37 576.67 633.37 579.78 633.71 581.13 634.13 582.58 634.65 583.4 635 583.73 635.23 583.91 636.68 585 637.75 585.77 638.2 586.5 638.55 587.2 638.74 588.05 639.04 592.03 639.22 592.76 641.64 598.11 644.14 603.64 643.89 603.81 642.96 604.28 642.69 604.44 642.03 604.83 640.86 605.61 639.61 605.99 639.25 606.14 639.67 606.77 640.75 608.35 640.93 608.63 640.96 608.77 640.96 608.89 640.93 609.03 640.71 609.15 640.66 609.3 640.63 609.45 640.65 609.74 640.73 610.38 640.73 611.06 640.65 611.34 640.58 611.62 640.52 612.1 640.42 612.39 640.26 612.71 639.81 613.22 639.67 613.35 639.67 613.48 639.91 614.02 640.34 614.8 641.07 616.23 642.08 618.03 648.35 626.58 648.66 626.4 648.76 626.37 648.89 626.36 649.07 626.35 649.25 626.36 649.41 626.36 649.56 626.35 649.71 626.32 649.99 626.26 651.18 625.92 651.8 625.72 652.01 625.65 652.2 625.56 652.86 625.2 653.05 625.09 653.16 625 653.36 624.82 653.99 624.24 654.14 624.13 654.15 624.13 654.26 624.05 654.39 623.95 654.51 623.88 654.61 623.82 654.71 623.78 654.77 623.77 654.86 623.74 654.97 623.73 655.09 623.73 655.21 623.73 655.35 623.74 655.44 623.75 655.56 623.77 655.84 623.83 656.05 623.88 656.15 623.88 656.23 623.89 656.31 623.88 656.38 623.86 656.39 623.86 656.46 623.83 656.51 623.79 656.54 623.75 656.57 623.7 656.6 623.63 656.63 623.56 656.65 623.46 656.72 623.06 656.77 622.83 656.81 622.7 656.84 622.63 656.88 622.56 656.93 622.51 656.99 622.45 657.03 622.41 657.06 622.4 657.11 622.37 657.14 622.36 657.22 622.33 657.29 622.31 657.37 622.29 657.48 622.27 657.58 622.27 657.65 622.27 657.76 622.27 657.85 622.27 658.28 622.29 658.45 622.29 658.54 622.29 658.68 622.27 658.76 622.25 658.9 622.22 659.02 622.19 659.25 622.12 659.33 622.09 659.44 622.04 659.54 622 659.95 621.78 660.08 621.7 660.42 621.49 660.52 621.42 660.65 621.31 660.82 621.17 660.9 621.12 661.04 621.03 661.19 620.95 661.25 620.92 661.49 620.84 662.4 622.74 663.54 625.06 665.19 627.26 665.92 628.67 666.05 628.61 666.21 628.53 668.88 627.23 669.27 627.15 669.59 627.12 669.92 627.16 670.23 627.19 671.24 627.3 671.41 627.32 671.84 627.44 672.15 627.61 672.57 627.99 672.84 628.43 673.07 629.01 673.12 629.13 673.26 629.6 673.32 630.16 673.33 630.21 673.28 630.73 673.08 631.47 672.87 631.96 672.87 631.97 672.86 631.98 671.16 635.05 670.94 635.33 670.67 635.44 670.14 635.5 670.13 635.5 669.59 635.53 668.92 635.51 668.89 635.79 669.49 638.54 669.6 638.71 670.1 638.84 671.47 639.12 672.58 639.29 673.6 639.42 674.29 639.44 674.7 639.44 675.31 639.45 676.33 639.38 676.69 639.43 677.12 639.55 677.65 639.75 678.24 639.99 678.77 640.22 679.35 640.48 679.99 640.8 680.95 641.27 681.54 641.54 682.04 641.67 682.49 641.71 682.91 641.7 683.3 641.67 683.78 641.61 684.2 641.49 684.67 641.22 685.05 640.99 685.47 640.67 685.79 640.34 686.07 640.01 686.34 639.68 686.56 639.4 686.82 639.18 687.11 638.99 687.56 638.75 688.21 638.45 688.66 638.33 688.96 638.28 689.28 638.27 689.77 638.27 690.41 638.3 690.8 638.36 691.06 638.41 691.29 638.51 691.5 638.63 691.73 638.85 692.11 639.16 692.6 639.6 693.07 640.03 693.41 640.3 693.95 640.67 694.38 640.91 695.03 641.17 695.37 641.25 695.74 641.27 695.99 641.27 696.32 641.21 696.62 641.14 696.85 641.1 697.26 641.12 698.08 641.19 699.24 641.31 699.61 641.35 700.28 641.43 700.72 641.46 702.36 641.55 702.97 641.57 703.39 641.63 703.93 641.75 704.03 641.82 704.03 641.9 703.85 642.62 703.65 642.62 702.86 642.65 702.07 642.67 700.32 642.62 699.73 642.63 699.22 642.64 698.91 642.67 698.78 642.68 698.64 642.71 698.54 642.74 698.44 642.78 698.35 642.85 698.28 642.91 698.23 642.97 698.17 643.08 697.84 643.92 697.04 645.85 696.32 647.66 695.74 649.06 695.28 650.06 695.24 650.2 695.2 650.28 695.12 650.36 695.03 650.45 694.93 650.58 694.83 650.7 694.75 650.82 694.64 650.99 694.54 651.16 694.45 651.33 694.35 651.49 694.29 651.58 694.24 651.7 694.19 651.83 694.14 652.01 694.09 652.21 694.05 652.51 694.01 652.73 693.99 652.87 693.96 652.99 693.88 653.21 693.73 653.57 693.24 654.68 693.15 654.87 693.11 654.94 693.03 655 692.91 655.08 691.74 655.59 691.39 655.75 691.17 655.84 691.06 655.91 690.96 656.04 690.83 656.26 690.72 656.33 689.49 657.03 689.31 657.12 691.73 662.04 692.03 662.86 692.46 664.92 692.48 665.46 692.48 665.9 692.41 666.33 692.34 666.57 689.72 666.78 689.7 666.78 689.68 666.96 689.69 667.57 689.71 667.85 689.74 668.16 689.72 668.33 689.66 668.63 689.63 668.74 689.61 668.85 689.59 668.92 689.07 670.59 689 670.79 688.9 671.09 688.81 671.31 688.71 671.49 688.59 671.64 688.54 671.7 688.42 671.85 688.33 671.98 688.3 672.02 688.16 672.21 688.08 672.36 688 672.5 687.94 672.66 687.88 672.88 687.82 673.15 687.78 673.42 687.77 673.65 687.76 673.87 687.78 674.19 687.82 675.38 687.85 675.66 687.93 676.23 687.93 676.28 688.24 678.63 688.42 679.73 688.49 680.07 688.6 680.61 688.76 681.26 688.86 681.66 688.94 681.98 689.06 682.39 689.07 682.4 689.2 682.87 689.29 683.14 689.42 683.45 689.65 684.03 689.8 684.34 689.89 684.52 690 684.67 690.09 684.78 690.26 684.94 690.42 685.07 690.55 685.15 690.61 685.18 690.72 685.24 691.1 685.38 691.4 685.48 691.61 685.56 691.78 685.64 691.99 685.76 692.42 686.04 692.7 686.21 693.6 686.78 693.73 686.84 693.85 686.9 693.99 686.95 694.21 687 694.46 687.04 695.11 687.09 696.45 687.13 696.64 687.13 696.83 687.12 697.07 687.1 697.1 687.09 697.34 687.05 697.5 687.02 697.64 687 697.78 687 697.95 687.01 698.16 687.04 698.61 687.15 698.62 687.16 698.94 687.23 699.13 687.24 699.34 687.24 699.95 687.25 700.63 687.23 701.82 687.2 703.36 687.14 703.72 687.15 704.48 687.16 705.44 687.17 705.77 687.18 708.76 687.22 708.93 687.23 709.07 687.24 709.28 687.28 709.5 687.33 709.51 687.33 710.08 687.52 710.35 687.6 710.58 687.66 710.79 687.68 710.98 687.68 711.14 687.67 711.34 687.64 711.63 687.58 712.51 687.33 712.76 687.25 713.76 686.94 714.62 686.7 715.16 686.58 715.51 686.53 715.83 686.47 717.32 686.21 717.46 686.19 717.6 686.2 717.77 686.22 718.11 686.29 718.62 686.43 719.07 686.59 719.48 686.75 719.86 686.93 720.1 687.08 720.3 687.21 720.54 687.37 720.58 687.42 720.66 687.49 720.75 687.59 721.01 687.88 721.06 687.93 721.07 687.95 721.3 688.22 721.6 688.6 721.74 688.79 721.77 688.86 721.8 688.9 721.86 689.02 722.03 689.36 722.43 690.18 722.62 690.57 722.75 690.81 722.85 691 722.94 691.2 723 691.36 723.04 691.53 723.09 691.71 723.13 692.01 723.21 692.84 723.26 693.86 723.27 694.23 723.28 694.69 723.3 694.94 723.32 695.12 723.35 695.35 723.38 695.49 723.43 695.68 723.6 696.22 723.92 697.23 724 697.46 724.04 697.66 724.12 698.05 724.14 698.28 724.16 698.51 724.22 699.45 724.26 699.92 724.27 700.08 724.27 700.33 724.27 702.29 724.25 702.46 724.2 702.66 724.1 702.93 724.09 702.97 723.97 703.29 723.9 703.51 723.67 704.16 723.58 704.42 723.57 704.44 723.51 704.62 723.47 704.84 723.23 706.24 723.19 706.48 723.14 706.67 723.02 707.12 722.65 708.23 722.6 708.5 722.42 709.28 722.27 709.92 722.21 710.19 722.09 710.69 722.02 711.01 721.92 711.57 721.85 712.01 721.78 712.47 721.77 712.66 721.76 712.92 721.72 713.88 721.71 714.06 721.66 714.81 721.61 715.44 721.58 715.59 721.56 715.63 721.53 715.74 721.35 716.31 721.25 716.6 721.21 716.77 721.21 716.89 721.24 717.06 721.32 717.45 721.38 717.65 721.47 717.86 721.59 718.09 721.71 718.25 721.85 718.39 721.99 718.5 722.02 718.52 722.13 718.59 722.27 718.66 722.32 718.69 722.48 718.76 722.61 718.85 722.7 718.94 722.79 719.08 723.58 720.77 723.69 720.95 723.82 721.1 724.48 721.96 724.7 722.29 724.89 722.6 724.98 722.75 725.08 722.9 724.7 723.24 723.34 724.66 721.99 725.93 719.89 727.79 719.65 727.9 719.39 727.87 718.98 727.78 718.87 727.81 718.56 728.64 718.36 729.32 718.23 729.74 718.12 730.28 717.94 730.82 717.6 731.56 717.15 732.58 716.87 733.23 716.69 733.67 716.55 733.88 716.41 734.08 715.53 734.93 714.56 736.02 714.02 736.69 713.91 736.75 713.79 736.74 713.22 736.64 713.15 736.66 713.1 736.74 713 737.67 713 738.12 712.95 738.7 712.88 739.04 713.59 739.36 713.62 739.47 712.1 742.9 713.14 743.21 714.18 743.51 715.3 743.69 716.07 743.81 716.17 743.91 716.29 744.48 716.41 744.58 717.31 744.57 716.39 747.52 716.28 747.99 716.4 749.37 716.52 749.83 716.34 750.84 716.87 750.55 717.83 750.2 718.56 750.03 719.05 749.97 719.66 750 722.97 751.08 723.85 751.36 724.8 751.67 725.68 751.97 726.55 752.24 727.3 752.34 727.37 752.36 727.57 752.42 727.62 752.49 727.7 753.96 727.78 754.04 728.02 754.04 728.36 754.07 728.41 754.17 728.42 754.89 728.42 755.93 728.42 756.13 728.42 757.04 734.98 758.04 735.34 758.21 735.5 758.39 735.55 758.69 735.56 759.09 735.64 759.21 736.95 759.61 737.92 760.07 738.67 760.52 739.47 761 740.39 761.8 739.56 763.13 739.53 763.22 739.55 763.37 740.07 763.68 740.55 764 740.82 764.18 740.81 764.24 740.12 765.44 740.05 765.55 740.08 765.57 740.27 765.67 741.11 766.09 741.56 766.29 741.1 767.21 740.54 767.86 740.32 768.13 739.55 770.5 739.49 770.53 739.12 770.48 739.01 770.48 738.91 771.37 738.88 772.4 738.84 773.62 738.77 774.04 738.5 774.59 738.2 774.99 737.92 775.37 737.69 775.56 737.59 775.64 737.46 775.75 736.96 776.07 736.73 776.3 736.7 776.44 736.82 776.9 737.1 777.58 737.32 777.98 737.46 778.26 737.6 778.52 737.98 779.22 738.39 779.77 737.75 780.94 737.15 782.03 736.77 782.71 737.08 782.84 737.12 782.86 740.81 784.39 743.21 785.35 749.91 788.02 753.2 790.4 757.4 793.34 762.31 796.52 764.2 797.69 767.88 799.88 767.92 799.9 770.84 801.5 772.57 802.31 774.38 803.06 775.81 803.59 784.75 806.82 774.15 818.86 773.95 819.09 772.15 821.13 769.52 823.95 768.36 825.06 765.82 827.61 762.86 831.03 760.54 833.63 759.7 834.5 758.53 835.47 758.42 835.56 758.25 835.71 758.11 835.84 757.55 836.33 755.58 837.91 754.56 838.18 754.48 838.19 753.54 838.33 753.12 838.4 752.64 838.45 752.41 838.46 752.22 838.48 752.13 838.48 751.97 838.46 751.89 838.44 751.83 838.42 751.75 838.38 751.58 838.3 751.43 838.25 751.37 838.23 751.29 838.23 751 838.22 750.82 838.22 750 838.27 749.72 838.31 749.65 838.32 749.53 838.37 749.47 838.4 749.39 838.45 749.31 838.51 749.2 838.62 748.96 838.92 748.71 839.19 748.42 839.5 748.3 839.59 747.69 839.92 747.61 839.96 747.59 839.98 747.57 840.02 747.56 840.05 747.56 840.09 747.57 840.16 747.59 840.4 747.59 840.48 747.58 840.52 747.57 840.55 747.55 840.57 747.27 840.86 747.21 840.94 748.88 842.4 749 842.52 749.12 842.65 749.21 842.78 749.32 842.94 749.43 843.16 749.56 843.43 749.64 843.65 749.7 843.88 749.75 844.13 749.78 844.31 749.8 844.53 749.8 844.55 749.81 844.77 749.79 845.05 749.75 845.36 749.71 845.55 749.69 845.69 749.67 845.84 749.67 845.98 749.67 846.08 749.69 846.23 749.74 846.52 749.8 846.72 749.84 846.84 749.91 846.98 750.01 847.17 750.33 847.64 750.46 847.82 750.82 848.22 751.37 848.83 751.93 849.36 752.01 849.42 752.14 849.5 752.27 849.57 752.38 849.62 752.5 849.66 752.7 849.71 753.02 849.77 753.17 849.81 753.31 849.84 753.43 849.88 753.55 849.92 753.64 849.97 753.73 850.02 753.91 850.14 754.05 850.24 754.19 850.34 754.33 850.45 754.52 850.64 755.27 851.4 755.35 851.48 755.55 851.65 755.64 851.71 755.84 851.84 756 851.93 756.2 852.02 756.52 852.16 756.59 852.19 756.77 852.25 756.84 852.29 756.9 852.34 756.94 852.4 756.98 852.47 757 852.57 757 852.64 756.99 852.73 756.96 852.8 756.93 852.87 756.87 852.96 756.69 853.2 756.4 853.6 755.7 854.49 755.04 855.23 754.87 855.44 754.78 855.56 754.7 855.71 754.63 855.84 754.57 855.97 754.53 856.1 754.51 856.13 754.47 856.31 754.46 856.4 754.44 856.55 754.43 856.72 754.43 856.82 754.43 856.94 754.45 857.06 754.48 857.17 754.53 857.29 754.6 857.44 754.65 857.51 755.14 858.24 755.3 858.49 755.39 858.65 755.66 859.12 755.79 859.35 755.85 859.49 756.21 860.36 756.29 860.52 756.37 860.65 756.46 860.78 756.54 860.88 756.63 860.97 756.74 861.07 756.86 861.15 757.12 861.32 757.26 861.4 757.34 861.48 757.38 861.55 757.42 861.66 757.44 861.76 757.44 861.89 757.43 862.06 757.41 862.18 757.37 862.34 757.3 862.54 757.21 862.72 757.13 862.82 757.1 862.87 756.99 862.98 756.9 863.06 756.79 863.12 756.65 863.18 755.29 863.71 754.51 863.99 754.42 864.01 754.39 864.01 754.31 864.03 754.29 864.03 754.18 864.03 753.32 864.01 752.93 864 752.74 864 752.6 864.01 752.49 864.04 752.38 864.08 752.26 864.15 752.16 864.25 752.02 864.45 751.65 864.96 751.59 865.06 751.47 865.23 751.38 865.35 751.22 865.56 751.08 865.77 750.95 865.98 750.87 866.15 750.77 866.42 750.69 866.65 750.59 867.06 750.52 867.35 750.52 867.37 750.49 867.5 750.48 867.64 750.48 867.78 750.49 867.9 750.52 868 750.56 868.12 750.57 868.12 750.62 868.21 750.71 868.32 750.89 868.53 750.97 868.64 751.03 868.75 751.08 868.86 751.13 868.97 751.18 869.15 751.23 869.44 751.28 869.75 751.31 869.93 751.35 870.06 751.4 870.19 751.48 870.32 751.58 870.44 751.68 870.54 751.78 870.61 751.89 870.65 753.06 871.03 753.81 871.26 754.34 871.44 754.41 871.47 754.46 871.51 754.5 871.57 754.54 871.65 754.58 871.81 754.62 872.03 754.64 872.23 754.68 873.04 754.7 873.13 754.73 873.23 754.77 873.3 754.85 873.4 754.95 873.5 755.11 873.64 755.21 873.71 755.73 874.03 756.32 874.48 756.55 874.67 756.84 874.93 756.89 875 756.93 875.09 756.95 875.17 756.97 875.29 756.99 876.01 756.99 876.08 756.92 876.46 756.89 876.59 756.84 876.7 756.78 876.82 756.71 876.9 756.63 876.98 756.57 877.02 756.54 877.04 756.39 877.15 756.26 877.22 756.15 877.29 756.07 877.36 756.04 877.41 755.96 877.51 755.77 877.75 755.7 877.86 755.63 877.99 755.58 878.11 755.54 878.23 755.53 878.26 755.5 878.35 755.47 878.46 755.44 878.59 755.42 878.72 755.41 879.02 755.41 879.14 755.42 879.23 755.43 879.33 755.46 879.39 755.5 879.48 755.59 879.61 755.71 879.76 755.85 879.92 756.48 880.5 756.77 880.74 756.95 880.88 758.08 881.79 758.17 881.85 758.26 881.89 758.39 881.94 758.54 882 758.65 882.05 758.78 882.12 758.92 882.19 759.06 882.29 759.25 882.44 759.67 882.83 759.92 883.09 760.29 883.47 760.39 883.58 761.25 884.63 761.59 885.03 761.95 885.52 762.02 885.65 762.05 885.76 762.07 885.91 762.07 886.1 762.05 886.19 762.02 886.28 761.97 886.38 761.75 886.75 761.63 886.95 761.59 887.04 761.58 887.07 761.32 887.74 761.27 887.88 761.23 888 761.21 888.12 761.19 888.33 761.18 888.37 761.15 888.64 761.1 889.23 761.09 889.44 761.08 889.55 761.07 889.86 761.08 890.17 761.08 890.47 761.09 890.65 761.1 890.77 761.11 890.89 761.16 891.19 761.19 891.44 761.25 891.83 761.32 892.28 761.47 892.96 761.6 893.51 761.67 893.82 761.68 893.88 761.7 893.96 761.76 894.31 761.77 894.52 761.76 894.77 761.76 894.8 761.74 895.05 761.73 895.07 761.71 895.32 761.7 895.41 761.63 895.64 761.54 895.89 761.37 896.27 761.13 896.69 761.1 896.74 761.01 896.94 760.93 897.17 760.91 897.23 760.85 897.45 760.74 897.94 760.71 898.17 760.67 898.42 760.66 898.68 760.65 899.09 760.63 899.4 760.6 899.61 760.57 899.75 760.56 899.77 760.57 899.89 760.58 899.93 760.58 899.94 760.58 899.99 760.63 900.24 760.77 900.7 760.93 901.16 761.07 901.57 761.12 901.69 761.79 902.91 762.17 903.53 762.29 903.73 762.81 904.74 763.45 905.91 763.92 906.7 764.08 906.94 764.34 907.27 764.63 907.66 765.04 908.14 765.37 908.47 765.83 908.89 766.37 909.38 766.53 909.52 765.57 909.95 764.42 910.16 762.76 910.33 762.06 910.43 761.82 910.55 761.42 911.05 761.04 911.25 759.08 911.98 758.46 912.1 757.99 912.2 757.6 912.36 755.84 914.03 755.65 914.4 755.68 914.6 755.92 915.21 756 915.54 755.95 916.04 755.99 916.49 756.17 916.81 757.72 918.14 757.73 918.13 757.92 917.98 758.1 917.86 758.43 917.7 758.76 917.57 759.26 917.36 759.83 917.13 760.36 916.91 760.82 916.74 761.08 916.67 761.42 916.62 761.7 916.61 761.95 916.61 762.2 916.64 762.51 916.67 762.78 916.73 762.95 916.79 763.08 916.86 763.17 916.94 763.24 917.03 763.27 917.12 763.3 917.31 763.36 917.77 763.42 918.06 763.47 918.2 763.55 918.34 763.63 918.43 763.73 918.5 763.86 918.53 764.08 918.54 764.45 918.55 764.78 918.57 764.93 918.59 765.06 918.62 765.15 918.66 765.24 918.73 765.28 918.79 765.3 918.88 765.3 919.05 765.28 919.27 765.24 919.64 765.23 919.93 765.23 920.41 765.25 920.75 765.3 920.95 765.35 921.11 765.45 921.32 765.55 921.47 765.68 921.63 765.71 921.66 766 921.83 766.46 922.11 767.18 922.19 767.3 922.2 768.24 922.24 769.08 922.46 769.97 922.81 770.8 923.1 771.61 923.4 772.34 923.76 772.63 923.85 772.72 924.87 772.73 926.03 772.63 926.8 772.54 927.2 772.23 927.43 771.5 927.48 771.09 927.4 770.82 927.01 770.56 926.86 769.85 926.75 767.58 927.12 766.39 927.39 765.65 927.57 765.11 927.63 764.43 927.63 763.65 927.63 763.42 927.65 763.39 927.66 763.26 927.71 763.14 927.84 763.08 928.09 763.03 928.85 762.95 929.94 762.92 930.53 762.92 931.3 762.92 931.49 762.9 931.64 762.86 931.76 762.78 931.85 762.7 931.89 762.6 931.95 762.32 932.11 762.27 932.13 762.09 932.2 761.99 932.23 761.8 932.29 761.5 932.35 761.11 932.41 760.85 932.45 760.4 932.51 760.36 932.52 760.28 932.53 760.18 932.55 760.08 932.59 760.01 932.62 759.9 932.71 759.88 932.73 759.8 932.83 759.78 932.87 759.75 932.91 759.53 933.29 759.23 933.77 758.97 934.2 758.73 934.61 758.63 934.81 758.48 935.21 758.47 935.23 758.43 935.33 758.39 935.58 758.35 935.81 758.28 936.08 758.26 936.15 758.26 936.16 758.36 936.22 759.59 937.07 762.15 938.67 763.21 939.33 766.75 940.91 770.55 942.51 774.12 943.58 779.38 944.81 783.51 946.18 786.72 947.94 789.06 949.5 790.59 951.1 792.52 953.2 793.37 954.68 793.78 955.4 795.03 957.83 795.45 958.64 796.45 961.94 797.11 965.6 797.28 966.57 797.45 967.04 798.28 969.4 798.67 970.52 799 971.46 798.82 971.73 798.24 972.6 797.51 973.77 797.37 974.03 797.31 974.15 797.23 974.25 795.83 975.93 795.74 976.02 795.51 976.27 795.32 976.41 795.14 976.53 794.98 976.62 794.84 976.68 794.69 976.73 794.61 976.76 794.59 976.77 794.47 976.79 794.35 976.8 794.13 976.81 793.83 976.81 793.69 976.81 793.55 976.8 793.24 976.78 792.26 976.64 792.08 976.61 791.95 976.6 791.84 976.59 791.66 976.61 791.36 976.65 791.03 976.71 790.84 976.76 790.69 976.83 790.56 976.91 790.4 977.06 790.17 977.27 789.91 977.53 789.79 977.63 789.63 977.75 789.47 977.83 789.3 977.92 789.17 977.99 789.03 978.04 788.8 978.12 788.63 978.18 788.52 978.22 788.34 978.3 787.59 978.75 787.44 978.88 786.69 979.58 786.56 979.72 786.3 980.02 786.16 980.23 786.06 980.4 785.99 980.58 785.93 980.75 785.9 980.91 785.87 981.08 785.86 981.23 785.86 981.46 785.89 981.65 785.94 981.94 786.04 982.35 786.1 982.56 786.24 983.01 786.4 983.44 786.76 984.4 786.78 984.46 786.88 984.79 787.01 985.22 787.08 985.5 787.57 988.02 787.63 988.22 787.68 988.36 788.1 988.52 788.49 988.69 788.63 988.76 788.73 988.81 788.9 988.9 789.08 989.04 789.26 989.23 789.48 989.48 789.7 989.77 789.89 990.06 790.02 990.34 790.15 990.69 790.15 990.71 790.27 991.22 790.32 991.62 790.37 991.99 790.38 992.76 790.37 993.12 790.34 993.42 790.3 993.67 790.23 993.91 790.12 994.18 789.97 994.43 789.78 994.7 789.59 994.94 789.37 995.13 788.85 995.58 788.31 996.04 787.35 996.69 786.93 996.98 786.41 997.33 786.2 997.44 785.93 997.55 785.81 997.58 785.43 997.67 785.04 997.75 784.71 997.79 783.14 997.82 782.62 997.84 782.16 997.85 781.51 997.81 781.07 997.74 780.75 997.69 780.45 997.62 780.15 997.53 779.67 997.36 779.53 997.31 778.77 996.96 777.91 996.56 777.28 996.27 777.03 996.14 776.78 996.04 776.51 995.96 775.91 995.82 775.26 995.71 774.83 995.67 774.46 995.67 774.21 995.68 773.97 995.72 773.72 995.82 773.06 996.15 772.16 996.61 771.7 996.91 771.42 997.12 771.21 997.3 771.2 997.3 771.02 997.51 770.85 997.75 770.69 998 770.55 998.29 770.34 998.8 770.29 998.93 769.79 1000.29 769.73 1000.5 769.7 1000.6 769.61 1001.04 769.5 1001.76 769.41 1002.46 769.38 1002.77 769.39 1002.83 769.43 1003.49 769.46 1003.71 769.49 1003.84 769.53 1004.04 769.56 1004.21 769.78 1005.11 769.85 1005.28 769.88 1005.34 769.94 1005.43 770.03 1005.55 770.27 1005.85 770.59 1006.27 770.61 1006.3 770.82 1006.59 771.03 1006.9 771.65 1008.06 771.8 1008.35 771.87 1008.56 771.93 1008.78 771.95 1009 771.94 1009.2 771.92 1009.39 771.89 1009.58 771.82 1009.83 771.81 1009.86 771.68 1010.17 771.53 1010.46 771.4 1010.67 771.22 1010.88 771.03 1011.09 770.8 1011.3 770.73 1011.35 770.52 1011.52 770.24 1011.7 770 1011.84 769.89 1011.9 769.45 1012.14 768.97 1012.37 768.62 1012.5 768.29 1012.63 766.74 1013.05 765.38 1013.42 765.02 1013.5 764.72 1013.59 764.15 1013.74 763.69 1013.88 763.3 1014.04 762.98 1014.17 762.6 1014.41 762.28 1014.64 762.05 1014.82 761.77 1015.09 761.55 1015.31 761.51 1015.36 761.36 1015.56 761.21 1015.8 761.05 1016.11 760.93 1016.41 760.83 1016.74 760.74 1017.04 760.73 1017.09 760.66 1017.35 760.61 1017.64 760.59 1017.91 760.59 1018.05 760.59 1018.13 760.6 1019.8 760.63 1020.08 760.66 1020.35 760.73 1020.62 760.79 1020.86 760.85 1021.02 760.87 1021.07 760.96 1021.23 761.13 1021.46 761.23 1021.57 761.24 1021.59 762.08 1022.55 764 1024.78 764.07 1024.89 764.21 1025.24 764.29 1025.5 764.58 1026.54 764.62 1026.7 764.66 1026.97 764.71 1027.27 764.96 1028.75 765.1 1029.79 765.24 1030.83 765.27 1031.06 765.4 1032.08 765.54 1032.88 765.66 1033.52 765.73 1034.02 765.77 1034.49 765.79 1035.12 765.78 1035.2 765.73 1035.48 765.72 1035.57 765.45 1036.36 765.42 1036.42 765.26 1036.71 765.13 1036.91 765.01 1037.05 764.66 1037.51 764.59 1037.57 763.98 1038.14 763.86 1038.24 763.69 1038.35 762.61 1038.89 762.49 1038.93 762.36 1038.97 762.24 1038.99 761.79 1039.04 761.46 1039.05 761.33 1039.05 760.8 1039.02 760.68 1039 760.54 1038.98 760.24 1038.93 759.72 1038.83 759.54 1038.79 759.39 1038.75 759.18 1038.68 758.86 1038.57 758.45 1038.45 758.2 1038.36 757.95 1038.28 757.77 1038.21 757.52 1038.1 757.42 1038.06 757.28 1038 757.25 1037.99 756.63 1037.77 756.43 1037.7 756.3 1037.67 756.1 1037.64 755.95 1037.62 755.81 1037.6 755.68 1037.6 755.29 1037.63 754.57 1037.66 754.45 1037.68 754.31 1037.71 754.1 1037.76 753.95 1037.8 753.81 1037.85 753.69 1037.91 753.54 1037.99 753.43 1038.06 753.35 1038.12 753.26 1038.2 753.17 1038.28 753.09 1038.37 752.97 1038.5 752.69 1038.84 752.31 1039.27 752.07 1039.56 751.9 1039.8 751.74 1040.02 751.65 1040.1 751.58 1040.14 751.53 1040.17 751.41 1040.23 751.23 1040.27 751.02 1040.28 750.78 1040.28 750.65 1040.3 750.54 1040.32 750.48 1040.35 750.4 1040.41 750.34 1040.46 750.15 1040.47 750.01 1040.47 749.94 1040.44 749.85 1040.36 749.71 1040.2 749.47 1039.8 749.11 1039.03 748.98 1038.7 748.93 1038.51 748.86 1038.23 748.76 1037.62 748.75 1037.48 748.75 1037.44 748.76 1037.39 748.78 1037.36 748.83 1037.33 749 1037.25 749.1 1037.21 749.14 1037.17 749.15 1037.14 749.16 1037.07 749.15 1036.99 749.13 1036.88 749.04 1036.59 748.94 1036.33 748.75 1035.96 748.55 1035.6 748.37 1035.32 748.34 1035.27 748.21 1035.07 748.05 1034.9 747.88 1034.73 747.67 1034.58 747.53 1034.48 747.32 1034.4 747.14 1034.33 746.82 1034.22 746.4 1034.11 745.88 1033.99 744.62 1033.72 743.45 1033.47 742.82 1033.35 742.66 1033.3 742.46 1033.22 742.29 1033.12 742.1 1033 741.98 1032.91 741.77 1032.73 741.58 1032.58 741.39 1032.46 741.17 1032.31 740.83 1032.1 740.39 1031.88 739.9 1031.66 739.34 1031.43 738.6 1031.07 737.62 1030.61 737.21 1030.37 736.45 1029.92 735.84 1029.58 735.58 1029.42 735.36 1029.33 735.17 1029.26 734.98 1029.22 734.77 1029.19 734.58 1029.19 734.41 1029.19 734.2 1029.24 734 1029.32 733.78 1029.45 733.48 1029.7 733.07 1030.06 732.59 1030.5 732.27 1030.86 732.01 1031.22 731.67 1031.78 731.46 1032.11 731.33 1032.27 731.01 1032.53 730.19 1033.23 729.61 1033.73 729.42 1033.96 729.23 1034.26 729.01 1034.62 728.91 1034.88 728.82 1035.22 728.67 1035.9 728.55 1036.35 728.34 1036.99 728.16 1037.37 728.06 1037.57 727.58 1038 726.27 1038.98 724.68 1039.98 723.01 1040.94 721.71 1041.45 720.42 1041.92 720.3 1041.94 719.85 1041.96 718.48 1041.88 717.04 1041.79 714.97 1041.49 714.11 1041.37 711.78 1041.14 710.17 1040.9 709.63 1040.85 709.57 1040.86 707.05 1041.26 705.28 1041.39 704.97 1041.27 704.58 1040.98 704.43 1040.95 704.05 1041.06 703.23 1041.32 701.66 1041.91 701.51 1041.89 701.41 1041.82 700.58 1040.11 700.55 1040.07 700.33 1039.76 700.23 1039.69 699.52 1039.22 699.2 1038.91 698.18 1037.36 696.2 1033.14 696.08 1032.82 695.9 1032.82 695.35 1032.86 693.57 1033.31 692.22 1033.59 691.35 1033.76 691.32 1033.32 689.88 1033.57 688 1033.91 687.1 1034.13 686.62 1034.17 685.64 1033.97 684.2 1033.38 683.38 1033.05 682.67 1032.66 681.85 1032.02 680.17 1030.78 679.87 1030.59 679.69 1030.37 679.63 1030.2 679.62 1030.17 679.5 1029.93 679.43 1029.86 679.32 1029.84 679.06 1029.83 678.63 1029.82 678.03 1029.76 677.39 1029.66 676.62 1029.46 676.26 1029.39 675.31 1029.2 674.66 1029.11 673.03 1029.08 671.76 1029.24 670.54 1029.63 669.96 1029.63 668.31 1029.82 668 1029.84 667.88 1029.35 667.66 1027.27 667.5 1025.64 667.45 1025.11 667.39 1024.47 667.25 1024.47 665.5 1024.69 663.95 1024.68 661.15 1024.56 657.16 1024.17 656.95 1024.15 653.58 1024.41 652.06 1024.28 649.19 1024.04 647.59 1023.71 645.92 1023.45 644.37 1023.47 642.08 1023.8 640.52 1023.93 640.44 1023.94 640.36 1023.97 640.27 1024.01 640.05 1024.08 639.88 1024.12 639.74 1024.15 639.58 1024.17 639.34 1024.17 639.07 1024.18 638.88 1024.19 638.58 1024.21 638.18 1024.28 638.07 1024.3 637.95 1024.35 637.82 1024.43 637.8 1024.44 637.57 1024.54 637.37 1024.65 637.18 1024.71 637.04 1024.75 636.86 1024.78 636.65 1024.81 636.25 1024.81 636.07 1024.82 635.96 1024.83 635.89 1024.87 635.84 1024.92 635.81 1024.99 635.76 1025.09 635.7 1025.24 635.66 1025.3 635.6 1025.34 635.53 1025.36 635.35 1025.39 635.09 1025.43 634.95 1025.44 634.87 1025.44 634.79 1025.42 634.72 1025.41 634.65 1025.4 634.58 1025.39 634.4 1025.39 633.96 1025.34 633.61 1025.3 633.14 1025.19 632.75 1025.1 632.4 1025.01 632.12 1024.94 632 1024.92 631.7 1024.81 631.45 1024.72 631.15 1024.58 630.97 1024.49 630.69 1024.37 630.46 1024.24 630.21 1024.14 629.86 1023.99 629.76 1023.9 629.71 1023.77 629.68 1023.61 629.63 1023.42 629.56 1023.27 629.49 1023.11 629.39 1022.96 629.28 1022.85 629.14 1022.73 629 1022.61 628.81 1022.48 628.69 1022.41 628.58 1022.39 628.44 1022.39 628.11 1022.49 627.92 1022.57 627.74 1022.67 627.36 1022.93 627.15 1023.09 626.88 1023.29 626.7 1023.41 626.49 1023.55 626.36 1023.68 626.21 1023.83 626.09 1023.97 625.97 1024.04 625.85 1024.09 625.7 1024.13 625.53 1024.18 625.46 1024.23 625.41 1024.28 625.4 1024.34 625.41 1024.41 625.42 1024.51 625.41 1024.58 625.36 1024.61 625.09 1024.72 624.43 1025.06 623.88 1025.31 623.27 1025.57 622.7 1025.84 622.05 1026.12 621.42 1026.32 621.13 1026.44 620.96 1026.55 620.84 1026.65 620.72 1026.78 620.7 1026.82 620.62 1027.01 620.52 1027.25 619.73 1027.33 619.69 1027.35 619.59 1027.43 619.49 1027.55 619.37 1027.71 619.24 1027.8 619.07 1027.84 618.91 1027.83 618.76 1027.76 618.56 1027.6 618.52 1027.56 618.47 1027.51 618.4 1027.43 618.26 1027.25 618.1 1027.07 617.92 1026.97 617.63 1026.93 617.17 1026.97 616.88 1027.1 616.7 1027.21 616.55 1027.35 616.34 1027.62 616.16 1027.83 615.86 1028.04 615.48 1028.26 615.15 1028.37 614.86 1028.43 614.66 1028.43 614.48 1028.38 614.33 1028.3 614.13 1028.58 613.84 1029 613.21 1029.72 612.51 1030.47 612.4 1030.54 612.28 1030.56 612.17 1030.52 611.93 1030.29 611.52 1029.83 611.36 1029.55 611.24 1029.3 611.16 1029.01 611.07 1028.59 610.82 1028.12 610.64 1027.83 610.57 1027.6 610.52 1027.25 610.46 1026.64 610.39 1026.43 610.2 1026.22 610.02 1026.1 609.39 1025.76 608.35 1025.09 608.26 1025.03 608.77 1024.12 609.12 1023.36 609.21 1023.16 609.58 1022.29 609.76 1021.77 609.93 1021.27 610.41 1019.75 610.9 1018.1 611.16 1017.25 611.38 1016.55 611.55 1016.07 611.85 1015.26 612.07 1014.56 612.23 1013.73 612.29 1013.16 612.29 1012.78 612.29 1012.65 612.25 1012.1 612.16 1011.53 612.15 1011.47 612.03 1010.87 611.94 1010.2 611.92 1009.31 611.89 1008.67 611.82 1008.19 611.61 1007.48 611.31 1006.82 610.95 1006.24 610.79 1006.05 610.69 1005.91 610.6 1005.81 610.16 1005.42 609.42 1004.99 609.07 1004.83 608.26 1004.47 607.5 1004.14 607.15 1003.98 606.21 1003.55 605.77 1003.33 605.41 1003.04 605.08 1002.63 604.8 1002.1 604.52 1001.42 604.31 1000.72 604.17 999.98 604.04 999.18 603.96 998.53 603.97 998.1 604 997.65 604.08 997.21 604.17 996.85 604.3 996.49 604.5 996.15 604.84 995.69 604.87 995.65 605.29 995.21 605.85 994.73 606.61 994.17 607.67 993.46 608.38 992.99 608.65 992.81 608.76 992.72 609.31 992.34 610.11 991.68 610.72 990.99 611.18 990.39 611.52 989.93 611.57 989.86 611.91 989.29 612.32 988.35 612.66 987.24 612.79 986.56 612.82 985.67 612.75 984.82 612.73 984.69 612.48 983.18 612.27 982.21 612.03 981.5 611.71 980.8 611.34 980.16 611.23 979.98 610.7 979.08 609.78 977.01 609.34 975.97 609.28 975.85 609.04 975.28 608.9 974.91 608.85 974.66 607.87 972.69 606.94 970.81 604.93 966.92 602.49 961.74 601.67 959.97 601.22 959.28 601.12 959.23 600.73 958.98 599.95 958.52 599.77 958.44 598.36 957.72 596.57 956.74 595.89 956.37 594.88 955.91 593.88 955.5 592.46 954.96 591.92 954.75 590.55 954.15 588.3 952.92 587.95 952.7 586.4 951.75 585.85 951.37 585.36 951.02 585.23 950.94 584.52 950.33 583.87 949.74 583.85 949.71 583.74 949.58 583.69 949.51 583.43 949.19 583.4 949.15 583.08 948.64 582.73 947.91 582.43 947.15 582.15 946.35 581.83 945.32 581.66 944.84 581.54 944.5 581.51 944.41 581.31 944.04 581.02 943.61 580.65 943.3 580.57 943.25 580.04 942.95 579.31 942.67 579.14 942.63 578.45 942.46 577.69 942.39 576.93 942.31 576.9 942.44 576.48 944.01 576.09 945.23 575.86 945.77 575.74 946 575.59 946.2 575.18 946.51 575.03 946.63 574.9 946.83 574.83 947.1 574.79 947.51 574.72 948.65 574.66 950.18 574.65 951.02 574.62 951.34 574.53 951.55 574.37 951.75 574.03 952 572.97 952.68 571.92 953.42 571.4 953.8 570.57 954.41 568.93 955.6 568.73 955.74 568.57 955.95 568.52 956.14 568.52 956.4 568.6 956.75 568.71 957.09 568.87 957.41 569.01 957.72 569.17 958.17 569.33 958.8 569.4 959.07 569.61 959.91 569.72 960.48 569.76 960.91 569.73 961.48 569.61 962.12 569.4 962.78 569.4 962.8 569.03 963.6 568.59 964.33 568.15 964.91 567.91 965.2 567.81 965.33 567.37 965.74 566.42 966.67 565.79 967.33 565.15 967.99 563.82 969.33 562.84 970.35 562.27 970.94 560.42 972.91 559.32 974.15 558.93 974.57 557.94 975.66 556.59 977.1 555.67 978.08 554.74 979.13 554.19 979.74 554.1 979.8 554 979.83 553.88 979.85 553.83 979.85 553.57 979.84 553.45 979.86 553.34 979.89 553.24 979.95 553.23 979.96 553.09 980.05 552.97 980.1 552.82 980.11 552.66 980.1 552.53 980.07 552.43 980.05 552.34 980.06 552.25 980.1 552.18 980.19 552.03 980.47 551.96 980.63 551.92 980.88 551.94 981.18 551.92 981.42 551.89 981.57 551.82 981.68 551.69 981.79 551.29 981.99 551 982.08 550.83 982.12 550.72 982.18 550.64 982.28 550.48 982.58 550.43 982.65 550.37 982.7 550.24 982.71 550.03 982.7 547.85 982.39 547.77 982.4 547.71 982.43 547.68 982.49 547.66 982.6 547.64 982.66 547.58 982.7 547.51 982.7 546.81 982.61 545.4 982.45 544.93 982.42 544.3 982.33 544.05 982.31 543.74 982.29 543.22 982.29 542.33 982.35 541.69 982.39 541.47 982.41 540.9 982.46 540.37 982.54 539.87 982.66 539.51 982.76 539.19 982.86 538.9 982.95 538.24 983.12 538.11 983.16 537.76 983.21 537.23 983.22 536.79 983.2 536.23 983.15 535.6 983.15 535.49 983.15 535.42 983.12 535.38 983.09 535.37 983.06 535.36 983.04 535.35 982.94 535.35 982.64 535.35 982.61 535.34 982.57 535.29 982.54 535.22 982.53 534.34 982.59 533.93 982.61 533.83 982.61 533.76 982.58 533.73 982.55 533.71 982.54 533.7 982.47 533.69 982.4 533.65 982.33 533.56 982.29 532.98 982.23 532.07 982.11 531.44 982.06 530.89 982.05 530.63 982.05 530.43 982.06 529.96 982.09 529.8 982.11 529.45 982.15 528.98 982.17 527.99 982.18 527.11 982.14 526.42 982.09 525.88 982.01 525.78 981.99 525.46 981.94 525.21 981.9 524.58 981.87 524.55 982.75 523.77 982.75 523.61 984.5 521.81 984.49 521.52 984.65 521.42 984.83 519.36 985.09 518.77 982.13 518.31 980.52 517.82 978.57 517.43 976.95 517.15 976.05 516.32 974.28 516.06 974.36 515.96 974.19 515.37 973.13 514.94 972.29 514.06 970.85 513.28 969.71 512.68 968.76 512.48 968.48 512.35 968.22 512.02 967.07 511.54 965.03 511.17 963.23 511.15 963.16 511.05 963.1 509.73 963.11 508.42 963.13 508.31 963.09 508.29 963 508.29 962.99 508.3 959.84 508.29 959.67 508.25 959.63 508.12 959.64 508.1 959.64 506.43 959.99 505.11 960.3 504.9 960.3 504.81 960.25 504.77 960.15 504.74 959.9 504.66 958.49 504.62 958.23 504.58 958.15 504.41 957.31 504.39 956.89 504.31 956.34 504.3 956.26 504.22 956.23 503.39 956.14 503.36 956.07 503.37 955.52 503.4 954.35 503.43 954.1 504.03 951.45 504.06 950.95 504.03 950.87 503.87 950.81 501.98 950.21 501.94 950.11 502.38 948.31 502.41 948.02 502.34 946.88 502.32 946.72 502.23 946.65 501.54 946.29 500.79 946.01 500.1 945.65 499.77 945.16 499.2 943.58 498.63 942.32 498.22 941.51 498.07 941.2 497.9 941 497.65 940.79 496.47 939.69 496.27 939.37 496.04 938.45 495.69 936.5 495.42 934.98 495.01 932.57 494.96 932.52 494.87 932.5 493.57 932.65 492.22 932.69 490.59 932.69 489.67 932.62 489.15 932.59 488.96 932.61 488.54 932.67 488.22 932.68 487.92 932.68 487.65 932.64 487.34 932.57 487.02 932.5 486.77 932.46 486.41 932.48 484.97 932.63 482.69 932.88 482.44 932.93 482.34 932.99 482.25 933.08 482.17 933.16 482.07 933.19 481.57 933.21 481.06 933.24 480.36 933.29 478.9 933.52 478.13 933.63 477.85 933.43 477.44 933.3 477.04 933.28 476.46 933.32 476.05 933.32 475.3 933.37 474.67 933.42 473.72 933.63 471.43 934.16 469.15 935.01 467.55 935.68 465.75 936.21 462.73 936.65 459.64 937.47 458.66 937.53 458.18 937.48 457.39 937.4 456.19 937.27 455.25 936.96 454.63 936.57 454.09 935.91 453.34 934.67 452.8 933.7 451.11 930.33 448.85 925.53 447.18 922.12 445.95 919.38 445.39 918.13 444.96 917.3 444.67 916.95 444.38 916.72 443.89 916.48 443.35 916.32 442.72 916.16 441.94 916.01 440.88 915.81 439.9 915.66 439.25 915.55 438.83 915.37 438.44 915.04 438 914.59 437.37 913.62 436.6 912.32 435.81 911.06 435.39 910.44 434.95 909.22 434.71 908.58 434.59 907.84 434.56 906.99 434.6 906.12 434.75 905.56 435.06 904.99 435.41 904.59 436 904.06 436.65 903.61 437.16 903.1 437.66 902.61 437.9 902.06 438.14 901.6 438.34 901 438.44 900.37 438.55 899.52 438.44 898.78 438.27 898.21 437.96 897.69 437.58 897.29 437.06 896.77 436.72 896.31 436.43 895.83 436.23 895.35 436.15 893.95 436.14 893 436.18 892.28 436.33 891.57 436.4 890.9 436.34 890.15 436.18 889.71 435.94 889.15 435.61 888.75 Z"/>
</g>
</svg>